<?xml version="1.0" encoding="utf-8"?>
<!-- Generator: Adobe Illustrator 27.0.0, SVG Export Plug-In . SVG Version: 6.00 Build 0)  -->
<svg version="1.1" id="Layer_1" xmlns="http://www.w3.org/2000/svg" xmlns:xlink="http://www.w3.org/1999/xlink" x="0px" y="0px"
	 viewBox="0 0 841.89 595.28" style="enable-background:new 0 0 841.89 595.28;" xml:space="preserve">
<style type="text/css">
	.st0{fill:#414042;}
	.st1{fill:none;}
	.st2{fill-rule:evenodd;clip-rule:evenodd;fill:#414042;}
</style>
<g>
	<path class="st0" d="M637.09,323.17c-4.29,2.04-8.61,3.35-13.11,1.79c-2.51-0.66-4.95-1.71-7.49-2.16
		c0.22-0.96,0.79-1.71,0.79-2.67c0-0.44-0.26-0.79-0.57-0.79c-3.01,0-5.98,0.93-8.95-0.3c-1.82-0.58-3.65-0.88-5.51-0.55
		c-4.62,1.22-1.47,8.86,1.59,2.95c0.92-1.32,2.28,1.24,1.75,2.55c-0.4,1.18-1.05,2.01-1.98,2.16c-0.97,0.15-1.96,0.15-2.94,0.15
		c-4.45,0.11-5.03,3.99-5.93,3.92c-0.9,0.07-1.49-3.81-5.93-3.92c-0.98,0-1.97,0-2.94-0.15c-0.93-0.15-1.59-0.98-1.98-2.16
		c-0.54-1.31,0.83-3.88,1.75-2.55c3.06,5.91,6.21-1.73,1.59-2.95c-1.86-0.33-3.69-0.03-5.51,0.55c-2.97,1.23-5.94,0.3-8.95,0.3
		c-0.31,0-0.57,0.35-0.57,0.79c0,0.96,0.57,1.71,0.79,2.67c-2.54,0.44-4.98,1.5-7.49,2.16c-4.5,1.55-8.81,0.24-13.11-1.79
		c-0.1-0.05-0.19,0.09-0.15,0.23c1.56,4.98,6.48,5.69,10.74,5.39c2.31-0.17,4.6-0.68,6.84-1.48c2.07-0.73,3.94-1.27,0.41,1.19
		c-4.07,2.38-8.51,2.06-12.82,2.14c-0.21,0.01-0.42,0.02-0.64,0.04c-0.26,0.02-0.42,0.44-0.28,0.74c0.16,0.34,0.38,0.53,0.76,0.68
		c1.43,0.55,2.86,0.8,4.31,0.91c2.59,0.2,5.18-0.12,7.74-0.8c1.31-0.31,2.55-1.16,3.87-1.41c0.19,0.81,0.05,1.3-0.46,1.7
		c-2.37,1.88-4.92,2.51-7.6,2.37c-0.28,0-0.55-0.03-0.82-0.04c-0.44,0-0.63,0.82-0.27,1.17c0.07,0.06,0.15,0.12,0.25,0.16
		c0.14,0.06,0.27,0.11,0.41,0.15c1.04,0.35,2.11,0.49,3.18,0.45c3.05-0.11,5.55-1.1,8.43-3.28c2.39-1.81,1.54,0.59,0.14,1.64
		c-6.3,3.96-0.42,3.89,2.37,1.79c1.59-1.19,2.36-2.89,3.84-3.51c0.19-0.08,0.36,0.14,0.35,0.41c-0.06,1.24-0.81,2.08-1.12,3.18
		c-0.11,0.41,0.07,0.88,0.38,0.94c1.84,0.39,3.1-1.89,4.36-3.56c4.46-5.64,7.48,3.83,7.85,9.21l0,0.01
		c0.05,0.18,0.16,0.26,0.27,0.25c0.11,0.01,0.23-0.07,0.27-0.25l0-0.01c0.37-5.38,3.38-14.85,7.85-9.21
		c1.26,1.66,2.52,3.94,4.36,3.56c0.31-0.06,0.49-0.53,0.38-0.94c-0.31-1.1-1.05-1.95-1.12-3.18c-0.01-0.27,0.16-0.49,0.35-0.41
		c1.49,0.62,2.26,2.32,3.84,3.51c2.79,2.1,8.67,2.17,2.37-1.79c-1.4-1.05-2.25-3.45,0.14-1.64c2.88,2.18,5.38,3.17,8.43,3.28
		c1.07,0.04,2.14-0.1,3.18-0.45c0.14-0.05,0.27-0.1,0.41-0.15c0.1-0.04,0.18-0.1,0.25-0.16c0.37-0.35,0.18-1.18-0.27-1.17
		c-0.27,0-0.54,0.04-0.82,0.04c-2.68,0.14-5.23-0.49-7.6-2.37c-0.51-0.4-0.64-0.89-0.46-1.7c1.32,0.25,2.56,1.1,3.87,1.41
		c2.55,0.68,5.14,1,7.74,0.8c1.44-0.11,2.87-0.36,4.31-0.91c0.38-0.15,0.6-0.34,0.76-0.68c0.15-0.31-0.01-0.72-0.28-0.74
		c-0.22-0.02-0.43-0.03-0.64-0.04c-4.31-0.08-8.75,0.23-12.82-2.14c-3.53-2.46-1.66-1.92,0.41-1.19c2.24,0.8,4.53,1.31,6.84,1.48
		c4.27,0.31,9.18-0.41,10.74-5.39C637.28,323.27,637.19,323.12,637.09,323.17z"/>
	<rect x="540.53" y="306.12" class="st1" width="108.39" height="50"/>
</g>
<g>
	<rect x="146.85" y="306.12" class="st1" width="136.63" height="50"/>
	<g>
		<path class="st0" d="M232.78,335.6c-0.06,0.03-0.12,0.06-0.18,0.1C232.67,335.7,232.73,335.67,232.78,335.6z"/>
		<path class="st0" d="M229.82,337.27c-0.06,0.03-0.12,0.06-0.18,0.09C229.72,337.36,229.78,337.33,229.82,337.27z"/>
		<path class="st0" d="M205.55,337.78c-0.06,0.03-0.12,0.05-0.18,0.08C205.44,337.88,205.5,337.85,205.55,337.78z"/>
		<path class="st0" d="M169.01,322.36c-0.01-0.01-0.01-0.01-0.02-0.02C168.99,322.35,169,322.36,169.01,322.36z"/>
		<path class="st0" d="M170.85,321.4c-0.55-2.49-1.18-4.96-2.11-7.35c-0.08-0.14-0.16-0.27-0.24-0.41
			c-0.33-0.58-0.66-1.17-1.13-1.66c-0.18-0.19-0.34-0.39-0.56-0.52c-0.31-0.19-0.57-0.07-0.59,0.26c0,0.02,0,0.05,0,0.07
			c0.02,0.29,0.08,0.58,0.15,0.87c0.03,0.13,0.07,0.25,0.1,0.38c0.1,0.39,0.29,0.75,0.33,1.16c0.01,0.06,0.01,0.13,0.01,0.2
			c0.04,0.06,0.05,0.13,0.02,0.2c0.2,0.72,0.15,1.44,0,2.16c0,0,0,0,0,0c0.03,0.03,0.03,0.06-0.01,0.09c0,0.14-0.01,0.28-0.02,0.42
			c-0.07,0.68-0.28,1.34-0.48,1.99c-0.02,0.06-0.03,0.11-0.05,0.17c-0.12,0.39-0.19,0.81-0.46,1.15c0,0,0,0,0,0
			c-0.03,0.11-0.06,0.22-0.1,0.33c-0.18,0.57-0.43,1.12-0.69,1.66c-0.08,0.15-0.15,0.3-0.23,0.45c0,0,0,0,0,0c0,0,0,0,0,0l0,0
			c0,0,0,0,0,0c-0.03,0.1-0.06,0.19-0.09,0.29c-0.16,0.43-0.39,0.83-0.57,1.26c-0.09,0.21-0.18,0.42-0.26,0.63
			c-0.05,0.02-0.08,0.05-0.06,0.11c-0.19,0.25-0.26,0.56-0.44,0.81c-0.03,0.04-0.06,0.08-0.1,0.12c-0.03,0.07-0.06,0.14-0.09,0.2
			c-0.11,0.26-0.23,0.52-0.34,0.79c-0.02,0-0.03,0.01-0.05,0.01c-0.02,0-0.03,0.01-0.05,0.01c0,0-0.01,0-0.01,0c0,0,0,0-0.01,0
			c0,0,0,0.01,0,0.01c0,0.02,0.01,0.04,0.01,0.06c0,0.01,0.01,0.02,0.01,0.04c0,0,0,0,0,0c0,0,0,0,0,0
			c-0.55,0.89-0.97,1.84-1.43,2.77c-0.09,0.18-0.14,0.39-0.25,0.56c-0.03,0.06-0.86,2.28-0.92,2.41c-0.03,0.06-0.19,0.7-0.24,0.87
			c-0.04,0.11-0.15,0.77-0.16,0.93c0,0-0.1,0.49-0.11,0.59c-0.06,0.4-0.09,0.81-0.09,1.21c0,0.49,0.28,2.51,0.29,2.53
			c0,0,0.04,0.32,0.05,0.43c0.03,0.28,0.74,2.9,0.81,3.11c0.35,1.22,0.81,2.39,1.45,3.49c0.42,0.99,1.01,1.88,1.69,2.71
			c0.46,0.56,0.94,1.11,1.55,1.53c0.4,0.27,0.81,0.49,1.32,0.32c0.07,0.03,0.11-0.01,0.14-0.07c0,0,0,0,0,0
			c0.12-0.01,0.19-0.08,0.27-0.15c0.4-0.36,0.41-0.43-0.01-0.78c-0.33-0.27-0.67-0.52-1.02-0.77c-0.52-0.38-1-0.8-1.38-1.33
			c-1.12-1.57-2.45-5.76-2.44-5.8c-0.03-0.06-0.26-0.99-0.27-1.42c0,0-0.11-1.15-0.15-1.72c-0.27-3.78,0.52-7.35,2.15-10.75
			c0.05-0.11,0.09-0.24,0.13-0.36c0.02-0.03,0.04-0.06,0.06-0.09c0.5-0.78,0.79-1.66,1.11-2.53c0.37-1,0.76-1.99,1.24-2.95
			c0.11-0.22,0.24-0.42,0.36-0.64c0.01-0.02,0.03-0.05,0.04-0.07c0.07,0.03,0.11,0.06,0.14,0.09c0.08,0.1,0.03,0.21,0.02,0.31
			c-0.05,0.55-0.17,1.08-0.32,1.6c-0.07,0.24-0.14,0.47-0.21,0.7c-0.02,0.06-0.04,0.12-0.06,0.18c-0.16,0.52-0.33,1.03-0.49,1.54
			c-0.04,0.13-0.09,0.27-0.13,0.4c0,0,0,0,0,0c-0.62,1.35-1.02,2.79-1.53,4.19c-0.58,1.58-1.1,3.17-1.5,4.81
			c-0.26,1.06-0.4,2.13-0.53,3.21c0,0,0,0,0,0c0,0,0,0,0,0c0,0.06,0,0.12,0,0.19c0.01,0.23-0.19,2.11,0.23,3.27
			c0.59,1.09,1.24,1.2,2.17,0.38c0.03-0.03,0.04-0.07,0.07-0.11l0,0c0.24-0.11,0.39-0.32,0.56-0.51c1.24-1.39,2.28-2.93,3.27-4.5
			c0.61-0.96,1.14-1.96,1.56-3.01c1.28-3.13,1.44-6.38,1.08-9.7C171.23,323.41,171.07,322.4,170.85,321.4z M164.11,327.5
			C164.11,327.5,164.11,327.5,164.11,327.5C164.12,327.5,164.12,327.5,164.11,327.5C164.11,327.5,164.11,327.5,164.11,327.5z
			 M166.71,324.67c-0.01,0-0.01,0-0.02,0.01c0,0,0-0.01,0-0.01C166.7,324.66,166.7,324.67,166.71,324.67z M166.95,339.17
			c0-0.01,0.01-0.01,0.01-0.01C166.96,339.16,166.96,339.17,166.95,339.17z M168.63,330.18c-0.25,1.09-0.7,2.1-1.12,3.13
			c-0.75,1.86-1.55,3.7-2.47,5.48c-0.3,0.57-0.63,1.11-1.01,1.63c-0.14,0.18-0.26,0.41-0.56,0.31c-0.04-0.17-0.07-0.34-0.08-0.51
			c-0.03-0.36,0-0.72,0.04-1.08c0.26-2.02,0.91-3.94,1.49-5.88c1.07-3.6,2.47-7.08,3.68-10.63c0-0.18,0-0.37,0.14-0.51c0,0,0,0,0,0
			c0,0,0,0,0,0c0,0,0,0,0,0c0-0.01,0-0.03,0-0.04c-0.01-0.15,0.04-0.29,0.15-0.4c0.15,0.22,0.16,0.46,0.13,0.71
			c0.04,0.29,0.11,0.59,0.13,0.88C169.27,325.58,169.16,327.89,168.63,330.18z"/>
		<path class="st0" d="M270.25,333.71c-0.29,0.11-0.6,0.21-0.83,0.44c0,0,0,0,0,0c-0.33,0.17-0.67,0.34-1,0.5
			c-0.55,0.11-1.09,0.34-1.68,0.22c-0.83-0.16-1.58-0.45-2.15-1.09c-0.04-0.05-0.08-0.09-0.12-0.15c-0.01-0.06-0.02-0.11-0.04-0.17
			c-0.05-0.23-0.08-0.47,0.07-0.69c0.27-0.4,0.12-0.71-0.18-1.02c-0.27-0.28-0.53-0.56-0.94-0.62c-0.27-0.04-0.47-0.19-0.65-0.38
			c-0.41-0.44-0.92-0.57-1.47-0.43c-0.02,0-0.03,0.01-0.05,0.01c-0.12,0.03-0.24,0.07-0.36,0.1c-0.68,0.2-1.35,0.41-2.03,0.63
			c-0.02,0.01-0.05,0.02-0.07,0.03c-0.13,0.06-0.25,0.15-0.37,0.22v0c-0.87,0.4-1.61,1.02-2.19,1.73c-1.14,1.42-2.71,2.09-4.29,2.77
			c-0.16,0.07-0.33,0.1-0.45,0.23c-0.41,0.06-0.73,0.34-1.12,0.47c-0.07,0.03-0.14,0.05-0.22,0.07c-0.71,0.22-1.42,0.28-2.13-0.1
			c0,0,0,0,0,0c-0.04-0.01-0.07-0.02-0.1-0.03c-0.05-0.02-0.1-0.05-0.15-0.08c-0.21-0.14-0.3-0.39-0.4-0.63
			c-0.02-0.05-0.04-0.09-0.06-0.14c-0.01-0.02-0.01-0.03-0.02-0.05c-0.09-0.26-0.17-0.52-0.23-0.78c-0.01-0.04-0.02-0.08-0.03-0.11
			c0-0.01,0-0.01,0-0.02c-0.06-0.28-0.07-0.53-0.04-0.74c0.07-0.47,0.37-0.82,0.94-1.15c0,0,0.01,0,0.01-0.01
			c0.08-0.05,0.16-0.09,0.24-0.14c0.01-0.01,0.02-0.01,0.03-0.02c0.37-0.25,0.55-0.51,0.55-0.83c0-0.08-0.01-0.16-0.03-0.25
			c-0.02-0.11-0.07-0.23-0.12-0.35c-0.14-0.32-0.31-0.57-0.5-0.75c-0.2-0.19-0.42-0.3-0.66-0.33c-0.15-0.02-0.3,0-0.45,0.04
			c-0.2,0.06-0.4,0.16-0.59,0.24c-0.01,0-0.02,0.01-0.03,0.01c-0.09,0.04-0.18,0.07-0.27,0.11c-0.5,0.43-1.04,0.82-1.45,1.34
			c-0.46,0.58-1.02,1.05-1.6,1.49c-0.03,0.02-0.06,0.04-0.09,0.07c-0.22,0.17-0.43,0.34-0.65,0.51c0,0,0,0,0,0
			c-0.56,0.34-1.11,0.69-1.67,1.03c-0.25,0.15-0.5,0.33-0.83,0.26c-0.04-0.13-0.05-0.25-0.05-0.37c0.01-0.25,0.09-0.48,0.25-0.71
			c0.14-0.21,0.25-0.44,0.38-0.66c0.24-0.42,0.18-0.81-0.13-1.17c-0.09-0.1-0.16-0.21-0.26-0.29c-0.06-0.05-0.12-0.09-0.2-0.12
			c-0.22-0.24-0.49-0.41-0.78-0.53c-0.47-0.2-0.92-0.14-1.34,0.13c-0.97,0.62-1.93,1.24-2.9,1.85c-0.07-0.01-0.11,0.02-0.13,0.08
			c-0.05-0.01-0.08,0-0.11,0.04c-0.01,0.01-0.03,0.01-0.04,0.02c-1.09,0.43-2.14,0.96-3.17,1.52c-0.17,0.09-0.33,0.2-0.46,0.34
			c-0.32,0.35-0.72,0.49-1.18,0.57c-0.57,0.09-1.11,0.27-1.6,0.58c0,0,0,0,0,0c0,0,0,0,0,0c-0.2,0.01-0.35,0.12-0.52,0.21
			c-0.06-0.02-0.09,0-0.11,0.05c-0.1-0.01-0.2,0.01-0.28,0.08c-0.05-0.03-0.09,0-0.11,0.04c-0.15,0-0.29,0.02-0.42,0.1
			c-0.04-0.04-0.08-0.02-0.1,0.02c-0.23,0-0.47,0.03-0.7,0.01c-0.93-0.11-1.71-0.46-2.13-1.37c0,0,0,0,0,0
			c-0.07-0.17-0.11-0.3-0.14-0.4c-0.06-0.27,0.04-0.38,0.39-0.6c0.38-0.24,0.79-0.42,1.18-0.63c0,0,0,0,0,0c0,0,0,0,0,0
			c0.06,0.01,0.1-0.01,0.13-0.07c0.04-0.02,0.08-0.03,0.12-0.05c0.07,0.01,0.11-0.02,0.15-0.08c0.04,0.01,0.07,0,0.1-0.04
			c0.01,0,0.02-0.01,0.03-0.01c0.41-0.15,0.68-0.51,1.06-0.69c0.06-0.03,0.11-0.05,0.17-0.07c0,0,0.01-0.01,0.01-0.01
			c0.02-0.03,0.05-0.05,0.08-0.08c0.09-0.08,0.19-0.13,0.32-0.15c0,0,0,0,0,0c0.09-0.08,0.18-0.16,0.26-0.24l0,0
			c0.12,0,0.2-0.07,0.26-0.16c0,0,0,0,0,0c0.07,0,0.11-0.03,0.12-0.1h0c0.82-0.55,0.98-1.39,0.97-2.28c0-0.02,0-0.05,0-0.07
			c-0.02-0.33-0.18-0.53-0.45-0.65c-0.09-0.04-0.18-0.07-0.29-0.09c-0.32-0.07-0.63-0.07-0.94-0.04c-0.19,0.02-0.38,0.04-0.57,0.06
			c-0.85,0.41-1.59,0.98-2.39,1.48c-0.85,0.53-1.52,1.23-2.07,2.06c-0.16,0.25-0.34,0.49-0.5,0.74c-0.37,0.56-0.85,1.01-1.43,1.34
			c-0.26,0.15-0.52,0.3-0.76,0.47c-0.34,0.23-0.72,0.39-1.12,0.45c-0.77,0.11-1.51,0.28-2.13,0.77c0,0,0,0,0,0c0,0,0,0,0,0
			c-0.53-0.05-1.06-0.07-1.59,0.04c-0.56,0.12-0.99-0.1-1.32-0.56c-0.32-0.43-0.28-0.87-0.06-1.32c0.21-0.43,0.49-0.8,0.93-1.01
			c0.16-0.07,0.3-0.16,0.39-0.32c0.27-0.48,0.58-0.94,0.91-1.38c0.38-0.51,0.06-1.05-0.59-1.1c-0.72-0.05-1.35,0.12-1.86,0.65
			c-0.01,0.03-0.02,0.06-0.03,0.09c-0.03,0.08-0.08,0.16-0.15,0.22c-0.03,0.03-0.06,0.05-0.09,0.07l0,0
			c-0.05,0.09-0.1,0.17-0.16,0.26c-0.14,0.2-0.3,0.38-0.5,0.51c-0.03,0.02-0.06,0.04-0.09,0.05c0,0,0,0,0,0
			c-0.45,0.45-0.98,0.82-1.36,1.34c0,0,0,0,0,0c-0.26,0.15-0.51,0.3-0.77,0.45c-1.48,0.8-3.08,1.32-4.59,2.05
			c-0.31,0.15-0.65,0.2-0.99,0.22c-0.51,0.04-1.02,0.04-1.53-0.01c-0.4-0.21-0.47-0.54-0.42-0.96c0.09-0.72,0.4-1.34,0.82-1.91
			c0.23-0.31,0.45-0.62,0.67-0.94c0.2-0.31,0.21-0.63,0.07-0.97c-0.45-1.14-1.82-1.58-2.79-0.84c-0.61,0.47-1.21,0.93-2,1.06
			c-0.14,0.02-0.26,0.13-0.39,0.2c0,0,0,0,0,0c-0.99,0.38-1.88,0.96-2.81,1.46c-0.18,0.06-0.36,0.13-0.55,0.17
			c-0.4,0.09-0.57-0.11-0.44-0.5c0.08-0.24,0.21-0.47,0.31-0.7c0.17-0.4,0.1-0.72-0.22-1.04c-0.85-0.85-1.97-1.05-3.03-0.51
			c-0.21,0.11-0.41,0.23-0.61,0.34c0,0,0,0,0,0c-0.27,0.04-0.55,0.11-0.82,0.12c-0.6,0.02-1.12,0.23-1.6,0.58
			c-0.36,0.27-0.71,0.55-1.08,0.81c-0.72,0.5-1.48,0.93-2.38,1.02c-0.52,0.06-0.73-0.13-0.65-0.65c0.05-0.31,0.17-0.62,0.25-0.93
			c0.13-0.55-0.03-0.91-0.54-1.15c-0.25-0.12-0.52-0.19-0.78-0.27c-0.16-0.05-0.36-0.07-0.48-0.17c-0.42-0.35-0.87-0.28-1.34-0.15
			c-0.43,0.12-0.84,0.32-1.2,0.59c-0.07-0.01-0.11,0.02-0.13,0.09l0,0c-0.08,0-0.14,0.04-0.18,0.12c0,0,0,0,0,0
			c-0.04-0.01-0.06,0-0.08,0.04c-0.04,0.03-0.09,0.07-0.13,0.1c0,0,0,0,0,0c0.04-0.03,0.09-0.06,0.13-0.1
			c-0.07-0.01-0.12,0.02-0.14,0.09c-0.1,0-0.18,0.06-0.22,0.15c0,0,0,0,0,0l-0.02,0.01c-1.4,0.94-2.66,2.06-4.12,2.92
			c-0.24,0.14-0.37,0.36-0.29,0.64c0.06,0.24,0.33,0.36,0.69,0.31c0.41-0.06,0.76-0.28,1.1-0.49c0.47-0.3,0.94-0.59,1.48-0.75
			c0.57-0.18,1.02-0.51,1.4-0.95c0.08-0.01,0.14-0.05,0.17-0.13c0,0,0,0,0,0c0,0,0,0,0,0c0.04,0.01,0.07-0.01,0.08-0.05
			c0.07,0.01,0.11-0.03,0.13-0.09c0.11,0,0.19-0.05,0.26-0.13c0.04-0.01,0.08-0.02,0.12-0.03c0.18,0.01,0.35,0,0.51-0.07
			c0.01-0.01,0.03-0.01,0.04-0.02c0.87,0.12,0.94,0.21,0.75,1.07c-0.2,0.91-0.47,1.77-1.21,2.41c-0.38,0.33-0.34,0.65,0.04,0.98
			c0.23,0.19,0.49,0.34,0.74,0.5c0.35,0.21,0.69,0.16,1.01-0.09c0.31-0.24,0.57-0.52,0.84-0.79c0.97-1.02,2.18-1.64,3.54-1.95
			c0.63-0.14,1.23-0.34,1.76-0.74c0.36-0.27,0.76-0.49,1.2-0.58c0.45-0.09,0.88,0.04,1.15,0.4c0.28,0.36,0.14,0.78-0.06,1.15
			c-0.11,0.2-0.3,0.36-0.45,0.54c-0.19,0.21-0.4,0.39-0.56,0.62c-0.29,0.39-0.25,0.73,0.1,1.09c0.26,0.26,0.57,0.45,0.89,0.63
			c0.47,0.26,0.92,0.18,1.27-0.24c0.18-0.21,0.3-0.46,0.45-0.7c0.2-0.33,0.41-0.65,0.75-0.86c1.15-0.71,2.35-1.32,3.57-1.9
			c0.73-0.35,1.59-0.42,2.36-0.73c0.63-0.25,0.88,0.09,0.65,0.73c-0.04,0.12-0.11,0.23-0.14,0.36c-0.22,0.73-0.21,1.43,0.23,2.08
			c0.04,0.05,0.08,0.09,0.1,0.15c-0.03-0.05-0.07-0.1-0.1-0.15c0,0.08,0.03,0.13,0.1,0.15c0.01,0.11,0.08,0.18,0.17,0.23
			c0,0.07,0.03,0.11,0.1,0.11l0.01,0.01c0.01,0.07,0.05,0.11,0.12,0.11l0.02,0.02c0.01,0.06,0.04,0.09,0.1,0.09c0,0,0,0,0,0
			c0,0,0,0,0,0c0,0,0,0,0,0l0,0c0.02,0.05,0.05,0.07,0.1,0.06c0.07,0.02,0.12,0.06,0.17,0.11c-0.06-0.04-0.11-0.07-0.17-0.11
			c0.03,0.07,0.09,0.11,0.17,0.11c0,0,0,0,0,0l0.01,0.01c0.01,0.05,0.05,0.08,0.1,0.07c0.07,0.07,0.15,0.09,0.24,0.08
			c0.07,0.09,0.17,0.12,0.28,0.09c0.31,0.07,0.62,0.07,0.92-0.02c0.52-0.06,1.06,0.14,1.57-0.06c0,0,0,0,0,0
			c0.07,0.03,0.14,0.02,0.21-0.02c0.16,0.02,0.31,0.01,0.43-0.1c0,0,0,0,0,0c0.08,0.02,0.15,0,0.21-0.05
			c0.06-0.03,0.11-0.08,0.18-0.08c0.07-0.02,0.13-0.03,0.2-0.05c0.28-0.03,0.52-0.18,0.76-0.31c1.28-0.63,2.56-1.27,3.83-1.91
			c0.45-0.22,0.54-0.19,0.68,0.28c0.1,0.32,0.16,0.66,0.22,1c0.05,0.29,0.17,0.53,0.4,0.7c1.04,0.77,2.16,1.2,3.47,0.73
			c0.6-0.22,1.21-0.42,1.84-0.55c0.31-0.07,0.63-0.11,0.91-0.28c0,0,0,0,0,0c0.08,0.02,0.16,0,0.22-0.06
			c0.08,0.02,0.12-0.02,0.14-0.09c0.04-0.02,0.08-0.04,0.12-0.06c0.06,0.01,0.1-0.02,0.12-0.08c0.12-0.01,0.2-0.09,0.27-0.18
			c0.06,0.01,0.09-0.03,0.1-0.08l0,0c0,0,0,0,0,0l0.01-0.01c0.07,0,0.12-0.04,0.14-0.11c0.24-0.1,0.43-0.26,0.63-0.41
			c0.05-0.04,0.09-0.08,0.15-0.1c-0.05,0.03-0.1,0.07-0.15,0.1c0.07,0,0.12-0.03,0.15-0.1c0.05,0.01,0.08,0,0.11-0.04
			c0.05-0.03,0.1-0.06,0.15-0.08c-0.05,0.03-0.1,0.05-0.15,0.08c0.07,0.01,0.12-0.02,0.15-0.08c0,0,0,0,0,0
			c0.37-0.17,0.54,0.09,0.71,0.34c0.47,0.71,1.11,1.15,1.94,1.36c0.39,0.1,0.77,0.24,1.16,0.36c0.05,0.03,0.1,0.06,0.14,0.09
			c0,0,0,0,0,0c-0.05-0.03-0.1-0.06-0.14-0.09c0.03,0.07,0.07,0.1,0.14,0.09c0.02,0.04,0.06,0.06,0.1,0.04
			c0.05,0.02,0.1,0.05,0.15,0.08c-0.05-0.03-0.1-0.06-0.15-0.08c0.03,0.06,0.08,0.1,0.15,0.08c0,0,0,0,0,0
			c0.04,0.01,0.08,0.03,0.12,0.04c0.07,0.09,0.15,0.12,0.26,0.1c0.08,0.01,0.15,0.02,0.23,0.03c0,0,0,0,0,0
			c0.27,0.14,0.55,0.13,0.82,0c0,0,0,0,0,0c0.09,0.02,0.17,0.01,0.25-0.04c0.11,0.03,0.22,0.01,0.3-0.08c0,0,0,0,0,0l0.04,0.02
			l0.03-0.03c0.04-0.01,0.09-0.01,0.13-0.02c0,0,0,0,0,0s0,0,0,0c0.05-0.01,0.09-0.02,0.14-0.03c0.11,0.02,0.19-0.01,0.27-0.09
			c0,0,0,0,0,0c0.09,0.01,0.18,0,0.25-0.06c0.07,0.02,0.13,0,0.17-0.06c-0.03,0.01-0.07,0.02-0.1,0.04c0.03-0.02,0.06-0.04,0.1-0.04
			c0.08,0.02,0.15,0.01,0.21-0.05c0.1,0.01,0.19-0.02,0.26-0.09c0,0,0,0,0,0c0.04-0.01,0.08-0.02,0.12-0.03
			c0.11,0.02,0.19-0.02,0.26-0.1c0.1,0.01,0.18-0.01,0.26-0.07c0,0,0,0,0,0c0.06,0.02,0.1-0.01,0.13-0.06
			c0.04-0.01,0.08-0.02,0.12-0.04c0.1,0.02,0.19-0.01,0.26-0.09c0,0,0,0,0,0c0.04-0.01,0.09-0.03,0.13-0.04
			c0.05-0.03,0.1-0.05,0.16-0.08c-0.05,0.03-0.1,0.05-0.16,0.08c0.07,0.01,0.12-0.02,0.16-0.08c0,0,0,0,0,0l0.06,0l0.04-0.04
			c0.11,0.01,0.2-0.01,0.27-0.1c0,0,0,0,0,0l0.06,0l0.05-0.04c0.06-0.03,0.11-0.08,0.18-0.09c0,0,0,0,0,0l0.05,0.01l0.03-0.03
			c0.11,0.01,0.19-0.03,0.26-0.12l0,0c0.05-0.02,0.09-0.03,0.14-0.05c0.07,0.01,0.11-0.01,0.14-0.07c0,0,0,0,0,0
			c0.04-0.02,0.08-0.03,0.12-0.05c0.07,0.01,0.11-0.02,0.13-0.08c0,0,0,0,0,0l0,0c0.04-0.02,0.09-0.04,0.13-0.06c0,0,0,0,0,0
			s0,0,0,0c0.06,0.01,0.1-0.02,0.12-0.07c0.12,0,0.19-0.07,0.26-0.16c0.07,0,0.12-0.03,0.14-0.1c0.04-0.02,0.08-0.05,0.13-0.07
			c0.06,0.01,0.08-0.02,0.09-0.07l0.02-0.01c0.07,0,0.12-0.04,0.14-0.1c0.11-0.01,0.19-0.07,0.26-0.16
			c0.07,0.01,0.11-0.03,0.14-0.09c0,0,0,0,0,0c0.04-0.02,0.08-0.05,0.12-0.07c0,0,0,0,0,0c0,0,0,0,0,0c0.05,0.01,0.08-0.02,0.1-0.07
			c0.12,0,0.2-0.06,0.28-0.14c0.06-0.04,0.11-0.09,0.18-0.1l0.04,0.01l0.03-0.03c0.11,0.01,0.2-0.03,0.27-0.12
			c0.04-0.01,0.08-0.02,0.12-0.03h0c0.11,0.02,0.2-0.01,0.28-0.09c0,0,0,0,0,0l0.06,0l0.04-0.04c0.05-0.03,0.1-0.08,0.16-0.09
			c-0.05,0.03-0.11,0.06-0.16,0.09c0.07,0.01,0.13-0.03,0.16-0.09c0,0,0,0,0,0c0.05,0.01,0.08,0,0.1-0.05
			c0.07,0.01,0.11-0.03,0.13-0.09c0.4-0.27,0.92-0.24,1.33-0.5c0,0,0,0,0,0c0.07-0.02,0.14-0.04,0.21-0.06c0,0,0,0,0,0c0,0,0,0,0,0
			c0.07,0.02,0.12-0.01,0.15-0.08c0,0,0,0,0,0c0.05,0.01,0.09,0,0.11-0.04c0.07,0.01,0.13-0.02,0.17-0.08c0,0,0,0,0,0
			c0.63-0.04,0.89,0.43,1.13,0.88c0.21,0.4-0.19,0.61-0.37,0.87c-0.13,0.19-0.32,0.34-0.46,0.53c-0.44,0.6-0.25,1.2,0.46,1.47
			c0.29,0.11,0.58,0.13,0.88,0.12c1.02-0.04,1.91-0.4,2.67-1.08c0.47-0.43,0.94-0.87,1.52-1.16c0.56-0.27,1.08-0.6,1.61-0.92
			c0.33-0.2,0.65-0.4,1-0.58c0.42-0.21,0.5-0.16,0.61,0.29c0.03,0.1,0.02,0.21,0.03,0.32c0.08,0.11,0.1,0.24,0.09,0.36
			c-0.05,0.76,0.3,1.36,0.78,1.9c0.88,0.98,1.91,1.47,3.25,1.05c0.56-0.17,1.09-0.37,1.56-0.71c0.23-0.17,0.47-0.32,0.75-0.33
			c0.63-0.02,1.13-0.34,1.63-0.67c0.23-0.15,0.47-0.3,0.7-0.44c0.1-0.06,0.24-0.17,0.33-0.03c0.06,0.1,0,0.25-0.12,0.34c0,0,0,0,0,0
			c-0.04,0.56,0.21,0.97,0.65,1.3c0.7,0.55,1.45,0.87,2.36,0.58c0.22-0.07,0.46-0.09,0.69-0.1c0.59-0.04,1.11-0.24,1.56-0.63
			c0.11-0.05,0.21-0.11,0.31-0.18c0.27-0.18,0.53-0.38,0.82-0.54c0.08-0.04,0.16-0.08,0.25-0.12c0.02-0.01,0.03-0.01,0.05-0.02
			c0.62-0.22,1.12-0.56,1.5-1.13c0.04-0.06,0.08-0.12,0.12-0.17c0.15-0.19,0.3-0.3,0.48-0.32c0.19-0.03,0.42,0.03,0.72,0.15
			c0.79,0.33,1.6,0.58,2.45,0.73c0.89,0.15,1.74,0.05,2.55-0.34c-0.01-0.01-0.01-0.01-0.02-0.02c0,0,0,0,0.01,0c0,0,0,0,0,0
			c0,0,0,0,0,0l0.01,0.02c0.48-0.1,0.92-0.3,1.29-0.62c0.32-0.15,0.58-0.36,0.75-0.68l0,0c0.09-0.07,0.14-0.16,0.16-0.27
			C270.85,333.7,270.68,333.54,270.25,333.71z M227.58,331.73C227.58,331.73,227.58,331.73,227.58,331.73
			C227.58,331.73,227.58,331.73,227.58,331.73C227.58,331.73,227.58,331.73,227.58,331.73
			C227.58,331.73,227.58,331.73,227.58,331.73z M224.54,332.48c0.37-0.45,0.83-0.79,1.26-1.18c0,0,0,0,0,0c0,0,0,0,0,0
			c0.06,0.01,0.1-0.03,0.12-0.08c0.13-0.06,0.26-0.12,0.4-0.19c0,0,0,0,0,0c0,0,0,0,0,0c0.06,0.02,0.11-0.01,0.13-0.07
			c0.2,0,0.41,0,0.61,0c0,0,0,0,0,0c0.01,0.02,0.02,0.03,0.04,0.05c0,0,0,0,0,0.01c0.01,0.02,0.03,0.04,0.04,0.05
			c-0.71,0.86-1.63,1.41-2.65,1.81C224.31,332.7,224.45,332.59,224.54,332.48z M218.46,336.92c0.05-0.04,0.1-0.08,0.15-0.12
			C218.57,336.85,218.52,336.89,218.46,336.92z M218.93,336.79c0.02-0.01,0.04-0.03,0.06-0.04
			C218.97,336.76,218.95,336.77,218.93,336.79z M231.7,336.23C231.7,336.23,231.7,336.23,231.7,336.23L231.7,336.23
			C231.7,336.23,231.7,336.23,231.7,336.23z M235.83,334.38c0.05-0.02,0.09-0.06,0.14-0.07
			C235.93,334.34,235.88,334.36,235.83,334.38z M260.98,334.67c-0.71,0.32-1.19,0.88-1.7,1.42c-0.39,0.42-0.85,0.71-1.46,0.67
			c-0.11-0.01-0.21-0.01-0.32-0.02c-0.82-0.13-1.01-0.5-0.61-1.23c0.02-0.04,0.05-0.07,0.06-0.11c0.27-1.12,1.04-1.86,1.9-2.54
			c0.34-0.27,0.66-0.54,1.12-0.57c0.2-0.01,0.34,0.04,0.31,0.28c-0.07,0.68,0.17,1.19,0.75,1.57
			C261.32,334.34,261.31,334.52,260.98,334.67z M262.43,332.87c-0.2-0.02-0.4-0.1-0.4-0.33c0-0.21,0.16-0.29,0.36-0.26
			c0.2,0.03,0.37,0.11,0.37,0.36C262.72,332.82,262.6,332.89,262.43,332.87z M264.18,335.33c0-0.01,0-0.01,0.01-0.02
			c0,0.01,0.01,0.01,0.01,0.02C264.19,335.33,264.18,335.33,264.18,335.33z M264.42,332.44c0-0.1-0.01-0.19-0.03-0.28
			C264.45,332.26,264.46,332.33,264.42,332.44z"/>
		<path class="st0" d="M217.96,325.96c0.71-0.14,1.03-0.73,0.71-1.37c-0.12-0.25-0.24-0.5-0.27-0.78c-0.03-0.3-0.06-0.6-0.08-0.89
			c-0.04-0.65-0.37-1.12-0.86-1.51c-0.19-0.15-0.4-0.22-0.58-0.06c-0.7,0.6-1.22,1.31-1.29,2.27c-0.01,0.54,0.18,1.02,0.46,1.46
			C216.46,325.74,217.26,326.1,217.96,325.96z"/>
	</g>
</g>
<g>
	<rect x="298.85" y="306.12" class="st1" width="50" height="50"/>
	<g>
		<path class="st0" d="M323.85,313.06c-0.68,0-1.36,0.04-2.04,0.13v18.04h4.07v-1.74h11.92c0.07,0.54,0.11,1.08,0.11,1.62
			c0,6.42-4.35,12.02-10.56,13.62v4.1c8.45-1.68,14.54-9.09,14.55-17.71C341.91,321.14,333.83,313.06,323.85,313.06z M325.89,325.29
			v-8.08c4.72,0.7,8.77,3.73,10.75,8.08H325.89z"/>
		<path class="st0" d="M317.63,332.75h8.26v16.31c-0.68,0.08-1.36,0.12-2.04,0.13c-9.98,0-18.06-8.08-18.06-18.06
			c0-8.6,6.05-16,14.48-17.7h0v4.1c-6.18,1.62-10.49,7.21-10.49,13.6c0.01,6.98,5.13,12.89,12.03,13.91v-8.07h-4.18V332.75z"/>
	</g>
</g>
<g>
	<rect x="364.22" y="306.12" class="st1" width="160.94" height="50"/>
	<g>
		<path class="st2" d="M375.52,320.87h14.74c0.01,0.75,0.01,1.49,0,2.24c-0.25-0.52-0.99-0.95-1.54-0.94
			c-3.15,0.03-6.28-0.09-9.47,0.08c-0.14,2.48-0.14,4.98,0,7.52c2.11,0.12,4.23,0.2,6.42-0.05c0.33-0.14,0.65-0.31,0.96-0.82
			c0,1.07,0,2.14,0,3.21c-0.25-0.54-1.04-1-1.62-0.95c-1.92,0.03-3.81-0.09-5.76,0.08c-0.14,2.9-0.14,5.82,0,8.78
			c3.62,0.13,7.24,0.18,10.93-0.06c0.32-0.13,0.63-0.31,0.94-0.79c-0.01,0.75,0,1.49,0.01,2.23h-15.59
			c0.71-0.44,0.91-1.01,0.93-1.58v-17.41C376.41,321.91,376.4,321.48,375.52,320.87"/>
		<path class="st2" d="M471.15,320.87h14.73c0.01,0.75,0.01,1.49,0,2.24c-0.25-0.52-0.99-0.95-1.54-0.94
			c-3.15,0.03-6.27-0.09-9.47,0.08c-0.14,2.48-0.14,4.98,0,7.52c2.12,0.12,4.23,0.2,6.42-0.05c0.32-0.14,0.65-0.31,0.97-0.82
			c-0.01,1.07-0.01,2.14,0,3.21c-0.25-0.54-1.04-1-1.62-0.95c-1.92,0.03-3.81-0.09-5.77,0.08c-0.14,2.9-0.14,5.82,0,8.78
			c3.62,0.13,7.24,0.18,10.93-0.06c0.32-0.13,0.63-0.31,0.94-0.79c0,0.75,0,1.49,0.01,2.23h-15.59c0.7-0.44,0.9-1.01,0.93-1.58
			v-17.41C472.03,321.91,472.02,321.48,471.15,320.87"/>
		<path class="st2" d="M406.48,341.38c0.51-0.24,0.94-0.99,0.91-1.54c-0.03-5.86,0.1-11.69-0.08-17.58
			c-1.99-0.13-3.99-0.2-6.06,0.05c-0.32,0.14-0.63,0.31-0.94,0.82c0.01-0.75,0.01-1.5,0-2.25h16.87c-0.01,0.74,0,1.49,0,2.23
			c-0.24-0.52-0.96-0.95-1.5-0.93c-1.83,0.03-3.63-0.09-5.5,0.08c-0.18,5.87-0.06,11.78-0.08,17.68c0.02,0.54,0.31,1.02,0.95,1.45
			C409.52,341.38,408,341.38,406.48,341.38"/>
		<path class="st2" d="M427.34,320.85c3.28,0.02,6.44-0.08,9.84,0.07c1.34,0.21,2.99,0.46,4.04,2.5c0.72,1.86,0.92,4.7-2.18,6.61
			c-0.96,0.56-1.64,0.72-3.39,1.07c-0.07,0.1-0.09,0.21-0.01,0.34l6.13,7.92c0.7,0.91,1.4,1.61,2.03,2.01
			c-1.17,0-2.33,0.01-3.5,0.01c-0.48-0.63-0.96-1.26-1.46-1.94c-0.49-0.67-1.01-1.4-1.26-1.77c-0.25-0.36-0.26-0.37-0.26-0.37
			c-1.63-2.18-3.29-4.41-4.88-6.53c1.25-0.27,3.52,0.36,5.78-2.25c0.86-1.44,1.3-3.23-0.27-5.07c-1.62-1.32-2.96-1.21-4.92-1.3
			c-0.67,0.03-1.3-0.09-2,0.08c-0.17,5.83-0.05,11.71-0.08,17.57c-0.02,0.54,0.64,1.44,1.25,1.58c-1.63,0-3.27,0.01-4.9,0.01
			c0.41-0.18,0.92-0.89,0.95-1.4c-0.04-6.06,0.12-12.07-0.11-18.18C428.03,321.48,427.88,321.17,427.34,320.85"/>
		<path class="st2" d="M497.39,320.85c3.28,0.02,6.43-0.08,9.84,0.07c1.34,0.21,2.99,0.46,4.04,2.5c0.72,1.86,0.93,4.7-2.17,6.61
			c-0.97,0.56-1.64,0.72-3.39,1.07c-0.07,0.1-0.1,0.21-0.01,0.34l6.13,7.92c0.7,0.91,1.4,1.61,2.03,2.01
			c-1.16,0-2.33,0.01-3.49,0.01c-0.48-0.63-0.96-1.26-1.45-1.94c-0.5-0.67-1.01-1.4-1.27-1.77c-0.26-0.36-0.26-0.37-0.26-0.37
			c-1.63-2.18-3.29-4.41-4.88-6.53c1.26-0.27,3.52,0.36,5.78-2.25c0.86-1.44,1.29-3.23-0.27-5.07c-1.62-1.32-2.96-1.21-4.92-1.3
			c-0.67,0.03-1.3-0.09-1.99,0.08c-0.18,5.83-0.06,11.71-0.09,17.57c-0.02,0.54,0.64,1.44,1.25,1.58c-1.63,0-3.27,0.01-4.9,0.01
			c0.4-0.18,0.92-0.89,0.94-1.4c-0.04-6.06,0.12-12.07-0.11-18.18C498.08,321.48,497.92,321.17,497.39,320.85"/>
		<path class="st2" d="M455.12,341.39c0.41-0.18,0.92-0.88,0.95-1.37v-17.76c-0.03-0.51-0.34-0.98-0.96-1.38
			c1.53,0.01,3.06,0.01,4.58,0c-0.4,0.18-0.9,0.87-0.93,1.38v17.73c0.08,0.46,0.07,0.86,0.95,1.41
			C458.18,341.4,456.65,341.39,455.12,341.39"/>
	</g>
</g>
<g>
	<g>
		<path class="st0" d="M94.35,331.97c0,0,2.41-0.57,2.81-0.27c0,0,5.1,2.99,5.97,4.1c0,0,0.86,0.83,1.14,1.55
			c0,0,0.13,0.57-1.11-0.44c0,0-1.18-0.32-1.91-0.36c0,0-0.74-0.24,0.01-0.91c0,0,0.28-0.24-0.53-0.71
			C100.75,334.94,95.12,331.97,94.35,331.97"/>
		<path class="st0" d="M48.14,335.04c0,0-3.43,0.21-6.25-1.02c0,0-0.72-0.45,1.02-0.42c0,0,0.84-0.01,1.69-0.59
			c0,0,0.67-0.5,1.03,0.63c0,0,3.33,0.61,6.02-0.11c0,0,0.72,0.1-0.55,0.62c0,0-0.42,0.4-1.29,0.46
			C49.81,334.61,49.44,335.14,48.14,335.04"/>
		<path class="st0" d="M42.33,326.46c9.65-2.79,14.14-0.41,14.14-0.41s-1.83,1.19-4.54,2.12C51.93,328.17,47.41,329.59,42.33,326.46
			"/>
		<path class="st0" d="M69.57,320.84c0,0,1.19,1.25,5.15,1.51c0,0,1.31,0.09-0.42,0.75c0,0-5.07,1.32-7.58-0.46
			c0,0-1.62-1.22-0.42-2.24L69.57,320.84z"/>
		<path class="st0" d="M70.38,319.91l-3.78-0.28c0,0,2.04-2.83,6.75-3.55c0,0,4.26-0.52,4.81,2.28
			C78.17,318.37,75.27,315.6,70.38,319.91"/>
		<path class="st0" d="M74.24,319.96c0,0-0.2-1.61,1.17-1.62c0,0,0.96-0.07,1.23,0.9c0,0-0.4,1.51,0.77,1.42
			c0,0,1.47,0.02,3.51-0.57c0,0-0.82,1.62-4.54,1.83C76.38,321.92,74.56,321.79,74.24,319.96"/>
		<path class="st0" d="M77.11,315.3c0,0,0.84-1.71,3.42-1.17c0,0,1.4,0.41,1.47,1.86c0,0-2.16-0.06-2.44,0.33
			c0,0-0.44-0.22-0.76-0.1c0,0-0.94-0.04-1.2-0.77C77.51,315.19,77.21,315.43,77.11,315.3"/>
		<path class="st0" d="M81.45,317.41c0,0-0.69,0.79-1.05,0.89c0,0-0.63-0.34-0.96-0.32c0,0-0.11-0.5-0.11-1.13
			c0,0,0.74-0.07,1.29,0.41C80.61,317.27,81.17,317.23,81.45,317.41"/>
		<path class="st0" d="M76.19,324.42c0,0-2.03,1.17-9.35,0.07c0,0-8.99-1.79-11.18,6.02c0,0-1.1,3.28-5.22,4.7
			c0,0-2.35,1.53-7.61,1.6c0,0-0.48-1.15-1.07-0.55c0,0-1.18,1.35-2.85,1.09c0,0,0.14,0.95,2.86,0.48c0,0,0.7-0.2,1.03,0.11
			c0,0,14.79-0.87,22.4-5.72c0,0,0.64-0.35,1.62-0.11c0,0,3.22,0.87,5.36,0.02c0,0,2.6,0.89,9.04-0.41c0,0,4.65-0.83,4.65-0.46
			c0,0,2.58,0.64,6.04,0c0,0,3.74-0.7,6.59-0.75c0,0,2.63,0.04,4.02,1.05c0,0,0.1,0.96,0.56,1.11c0,0,2.58,0.63,3.01,1.06
			c0,0,0.79-0.16-0.62-1.63c0,0-3.85-3.38-15-3.93c0,0-7.23-0.43-11.52-1.76C78.94,326.42,76.16,325.66,76.19,324.42"/>
		<path class="st0" d="M90.99,321.59c0,0-4.74,2.01,0.49,5.42c0,0,0.57,0.37-1.33,0.17c0,0-8.69-0.41-12.55-2.67
			c0,0-0.63-0.39-0.01-1.07c0,0,8.93-5.32,12.11-6.49c0,0,0.45,0.58,1.51-0.41c0,0,0.67,0.18,0.92-0.32c0,0-0.11-0.93-0.13-1.32
			c0,0,0.02-0.39,1.05,0.82c0,0,0.78-0.01,0.65-0.66c0,0,1.01,0.37,1.1,0.91c0,0,3.02,0.92,3.31,2.03c0,0,4.04,2.31,4.41,2.84
			c0,0,0.11,1.19-0.54,1.47c0,0-0.55,0.17-0.92,0.4c0,0-0.73-0.02-1.68-0.85c0,0-0.57-0.21-1.43-0.1c0,0-2.35,1.12-3.84-1.25
			l-8.44-0.07c0,0-1.9,0.62-0.4,0.65L90.99,321.59z"/>
		<g>
			<path class="st0" d="M34.48,348.16l-5.16-6.15l0.04,4.91c0,0.45,0.09,0.73,0.27,0.84c0.24,0.15,0.62,0.22,1.14,0.22l0.47,0l0,0.2
				l-4.61,0.03l0-0.2l0.47,0c0.56,0,0.96-0.1,1.19-0.29c0.14-0.12,0.21-0.38,0.21-0.79l-0.03-4.8c0-0.32-0.07-0.56-0.2-0.7
				c-0.09-0.1-0.26-0.19-0.5-0.26c-0.25-0.07-0.64-0.1-1.18-0.1l0-0.2l3.75-0.03l4.85,5.72l4.68-5.79l3.75-0.03l0,0.2l-0.46,0
				c-0.57,0-0.97,0.1-1.2,0.29c-0.14,0.12-0.21,0.38-0.21,0.79l0.03,4.8c0,0.45,0.1,0.73,0.28,0.84c0.24,0.15,0.62,0.22,1.14,0.22
				l0.46,0l0,0.2l-5.62,0.04l0-0.2l0.47,0c0.57,0,0.96-0.1,1.19-0.29c0.14-0.12,0.21-0.38,0.21-0.79l-0.04-4.91l-5.06,6.23
				L34.48,348.16z"/>
		</g>
		<g>
			<path class="st0" d="M54.01,345.55l-5.13,0.04l-0.89,1.17c-0.22,0.29-0.33,0.5-0.33,0.64c0,0.11,0.1,0.21,0.29,0.29
				c0.19,0.08,0.61,0.14,1.25,0.16l0,0.2l-4.17,0.03l0-0.2c0.55-0.06,0.91-0.13,1.07-0.22c0.33-0.18,0.7-0.53,1.1-1.07l4.61-6.09
				l0.34,0l4.65,6.08c0.37,0.49,0.71,0.81,1.02,0.95c0.3,0.14,0.73,0.22,1.27,0.24l0,0.2l-5.22,0.04l0-0.2
				c0.53-0.02,0.88-0.07,1.07-0.15c0.18-0.09,0.28-0.19,0.28-0.31c0-0.16-0.13-0.41-0.4-0.75L54.01,345.55z M53.73,345.15
				l-2.27-2.95l-2.28,2.99L53.73,345.15z"/>
		</g>
		<g>
			<path class="st0" d="M60.19,340.61l3.59-0.03l8.14,5.45l-0.03-4.24c0-0.45-0.1-0.73-0.28-0.84c-0.24-0.15-0.62-0.22-1.14-0.22
				l-0.46,0l0-0.2l4.61-0.03l0,0.2l-0.47,0c-0.56,0-0.96,0.1-1.19,0.29c-0.14,0.12-0.21,0.38-0.21,0.79l0.05,6.2l-0.35,0l-8.77-5.86
				l0.03,4.53c0,0.45,0.09,0.73,0.27,0.84c0.25,0.15,0.63,0.22,1.14,0.22l0.47,0l0,0.2l-4.61,0.03l0-0.2l0.46,0
				c0.57,0,0.97-0.1,1.2-0.29c0.14-0.12,0.21-0.38,0.21-0.79l-0.04-5.11c-0.39-0.25-0.68-0.41-0.88-0.49
				c-0.2-0.08-0.49-0.15-0.88-0.22c-0.19-0.03-0.48-0.04-0.86-0.04L60.19,340.61z"/>
		</g>
		<g>
			<path class="st0" d="M88.14,340.23l0.32,2.5l-0.3,0c-0.41-0.75-0.99-1.28-1.74-1.6c-0.75-0.32-1.65-0.48-2.7-0.47
				c-0.88,0.01-1.67,0.14-2.38,0.39c-0.71,0.25-1.26,0.65-1.67,1.2c-0.4,0.55-0.6,1.22-0.6,2.03c0,0.67,0.2,1.24,0.59,1.73
				c0.39,0.49,0.97,0.86,1.74,1.11c0.77,0.25,1.65,0.38,2.64,0.37c0.86-0.01,1.62-0.11,2.27-0.32c0.66-0.21,1.38-0.62,2.16-1.23
				l0.3,0.11c-0.66,0.66-1.43,1.15-2.31,1.46c-0.88,0.31-1.93,0.47-3.15,0.48c-2.19,0.02-3.9-0.42-5.11-1.32
				c-0.9-0.67-1.36-1.45-1.37-2.37c-0.01-0.73,0.29-1.41,0.87-2.03c0.59-0.62,1.4-1.1,2.43-1.45c1.04-0.35,2.17-0.52,3.4-0.53
				c0.96-0.01,1.9,0.12,2.83,0.37c0.27,0.08,0.47,0.12,0.59,0.12c0.18,0,0.33-0.04,0.46-0.11c0.17-0.1,0.29-0.24,0.36-0.41
				L88.14,340.23z"/>
		</g>
		<g>
			<path class="st0" d="M98.06,347.48l0,0.2l-5.67,0.04l0-0.2l0.47,0c0.55,0,0.94-0.1,1.19-0.27c0.16-0.12,0.23-0.4,0.23-0.84
				l-0.03-4.75c0-0.37-0.05-0.62-0.13-0.74c-0.07-0.09-0.2-0.17-0.4-0.23c-0.29-0.08-0.59-0.13-0.9-0.12l-0.47,0l0-0.2l5.67-0.04
				l0,0.2l-0.48,0c-0.54,0-0.93,0.1-1.18,0.28c-0.16,0.12-0.24,0.4-0.24,0.84l0.03,4.75c0,0.37,0.05,0.62,0.13,0.74
				c0.07,0.09,0.2,0.17,0.41,0.23c0.28,0.09,0.58,0.13,0.89,0.12L98.06,347.48z"/>
		</g>
		<g>
			<path class="st0" d="M99.43,340.31l3.59-0.03l8.14,5.45l-0.03-4.24c0-0.45-0.1-0.73-0.28-0.84c-0.24-0.15-0.62-0.22-1.14-0.22
				l-0.46,0l0-0.2l4.61-0.03l0,0.2l-0.47,0c-0.56,0-0.96,0.1-1.19,0.29c-0.14,0.12-0.21,0.38-0.21,0.79l0.05,6.2l-0.35,0l-8.77-5.86
				l0.03,4.53c0,0.45,0.09,0.73,0.27,0.84c0.25,0.15,0.63,0.22,1.14,0.22l0.47,0l0,0.2l-4.61,0.03l0-0.2l0.46,0
				c0.57,0,0.97-0.1,1.2-0.29c0.14-0.12,0.21-0.38,0.21-0.79l-0.04-5.11c-0.39-0.25-0.68-0.41-0.88-0.49
				c-0.2-0.08-0.49-0.15-0.88-0.22c-0.19-0.03-0.48-0.04-0.86-0.04L99.43,340.31z"/>
		</g>
		<g>
			<path class="st0" d="M121.56,347.3l0,0.2l-5.67,0.04l0-0.2l0.47,0c0.55,0,0.94-0.09,1.19-0.27c0.16-0.12,0.23-0.4,0.23-0.84
				l-0.03-4.75c0-0.37-0.05-0.62-0.13-0.74c-0.07-0.09-0.2-0.17-0.4-0.23c-0.29-0.09-0.59-0.13-0.9-0.12l-0.47,0l0-0.2l5.67-0.04
				l0,0.2l-0.48,0c-0.54,0-0.93,0.1-1.18,0.28c-0.16,0.12-0.24,0.4-0.24,0.84l0.03,4.75c0,0.37,0.05,0.62,0.13,0.74
				c0.07,0.09,0.2,0.17,0.41,0.23c0.28,0.08,0.58,0.13,0.89,0.12L121.56,347.3z"/>
		</g>
	</g>
	<rect x="16.66" y="306.12" class="st1" width="114.82" height="50"/>
</g>
<g>
	<rect x="664.29" y="306.12" class="st1" width="160.94" height="50"/>
	<g>
		<path class="st0" d="M681.64,323.72h4.57v5.18h5v-5.18h4.59v14.8h-4.59v-5.99h-5v5.99h-4.57V323.72z"/>
		<path class="st0" d="M722.21,336.08h-5.19l-0.72,2.44h-4.67l5.56-14.8h4.99l5.56,14.8h-4.79L722.21,336.08z M721.26,332.88
			l-1.63-5.32l-1.62,5.32H721.26z"/>
		<path class="st0" d="M739.92,323.72H745l2.98,4.99l2.99-4.99h5.05l-5.76,8.6v6.2h-4.58v-6.2L739.92,323.72z"/>
		<path class="st0" d="M771.82,323.72h4.27l5.57,8.19v-8.19h4.31v14.8h-4.31l-5.54-8.13v8.13h-4.3V323.72z"/>
		<path class="st0" d="M803.3,323.72h4.58v14.8h-4.58V323.72z"/>
	</g>
</g>
<g>
	<g>
		<path class="st0" d="M393.42,272.96c-0.56-0.12-1.13,0.11-1.69,0.03c-1.3,0.16-1.16-3.45-2.33-1.72c-1.96,2.92-4.8,3.11-8,2.67
			c-1.94-0.17-1.9,3.77-0.66,2.81c1.27-0.84,3.51-3.3,4.92-1.63c0.37,0.44,0.35,0.53-0.18,0.72c-8.84,2.74-18.68,3.02-27.47-0.05
			c-0.12-0.04-0.3-0.09-0.19-0.28c1.24-2.19,3.8,0.45,5.15,1.3c0.92,0.66,0.93-1.64,0.58-2.1c-1.12-1.69-3.52-0.04-5.17-0.67
			c-4.11-0.56-4.42-5.3-5.4-2.07c-0.58,1.99-2.32,0.26-3.15,1.26c-0.22,0.29-0.08,0.55,0.07,0.81c1.57,2.57,4.51,4.21,7.53,4.3
			c0.72,0.05-0.17,1.7,0.49,1.89c5.79,1.94,11.25,2.55,17.6,2.03c3.47-0.31,6.92-0.96,10.23-2.06c0.44-0.21,0.08-1.2,0.18-1.64
			c-0.01-0.16,0.05-0.21,0.2-0.21c2.76-0.03,5.28-1.4,7.05-3.46C393.6,274.41,394.42,273.25,393.42,272.96z M361.14,280.33
			c-0.27,0.01-0.54-0.09-0.81-0.16c-0.12-0.03-0.3,0.04-0.36-0.08c0.23-0.57,0.71-1.55,0.39-2.15c-0.17-0.34,1.04,0.06,1.21,0.11
			C362.76,278.54,362.38,280.24,361.14,280.33z M364.25,279c-0.25,0.4-0.37-0.58-0.75-0.41c-0.37,0.24-0.32,1.24-0.35,1.68
			c0.08,0.52,0.73,0.24,0.73-0.17c-0.13-0.18-0.51-0.27-0.49-0.5c0.06-0.15,0.09-0.33,0.28-0.4c0.13-0.05,0.22-0.05,0.21,0.13
			c-0.14,1.1,0.28,0.58,0.28,1.17c-0.23,0.66-1.38,0.02-1.93,0.08c0.47-0.73,0.62-1.56,0.33-2.38c0,0,0.01,0,0.01-0.01
			C363.04,278.48,364.53,278.1,364.25,279z M366.31,279.27c-0.01,0.84-0.38-0.17-0.58-0.36c-0.99-0.53-1.09,2.88,0.19,1.61
			c0.17-0.19,0.31-0.01,0.19,0.18c-0.08,0.17-0.56,0.4-0.78,0.38c-1.68-0.19-0.93-3.14,0.64-2.36
			C366.32,278.85,366.33,278.87,366.31,279.27z M367.88,281.16c-1.2,0.64-2.04-1.16-1.2-1.99
			C367.95,277.81,369.35,280.4,367.88,281.16z M370.06,281.19c-0.45,0.48-1.81,0.22-1.44-0.62c0.01-0.13,0.13-0.16,0.19-0.05
			c0.16,0.29,0.64,1.07,0.9,0.45c0-0.17,0.03-0.34-0.18-0.43c-0.68-0.13-1.18-1.2-0.41-1.54c0.47-0.08,1.24-0.14,1.13,0.55
			c0.03,0.55-0.3,0.23-0.38-0.09c-0.06-0.22-0.45-0.32-0.58-0.13C369.06,279.99,370.99,280.08,370.06,281.19z M373.55,281.17
			c0.29,0.48-1.95,0.14-2.33,0.24c0.28-0.33,0.35-1.91,0.04-2.19c-0.12-0.05-0.07-0.19,0.06-0.15
			C375.17,278.92,372.6,278.8,373.55,281.17z M375.51,281.15c-1.33,0.95-2.6-1.37-1.13-2.16
			C375.62,278.47,376.41,280.33,375.51,281.15z M383.6,280.08c-0.95,0.21-1.89,0.44-2.86,0.54c0.29-0.5,0.04-0.94-0.07-1.4
			c-0.28,0.41-0.12,0.92-0.21,1.35c-0.77,0.35-1.77,0.36-2.67,0.53c0.25-0.59,0.19-1.15,0.07-1.71c-0.31,0.47-0.03,1.44-0.64,1.68
			c-0.16,0-0.11-0.15-0.14-0.24c-0.14-0.46-0.34-0.89-0.64-1.28c0.17,0.55,0.07,1.22,0.55,1.59c-0.18,0.06-0.92,0.22-0.82-0.06
			c0.21-0.63,0.24-1.45-0.13-2.01c-0.2-0.35,0.53-0.18,0.71-0.24c0.32,0.23,0.35,0.8,0.6,1.13c0.41,0.45-0.01-1.43,0.74-1.32
			c2.17-0.15,1.16-0.41,2.16,0.88c0.53-0.25-0.13-1.26,0.61-1.27c0.49-0.01,2.99-0.99,2.37,0.17c-0.08,0.04-0.11-0.05-0.15-0.1
			c-0.16-0.24-0.9-0.32-0.7,0.08c0.25,0.47,0.15,2.3,1.01,1.29c0.28-0.77,0.33-0.31,0.39,0.19
			C383.83,280.04,383.7,280.06,383.6,280.08z M383.13,279.39c-0.22,0.05-0.5-0.46-0.36-0.63c0.22-0.24,0.43-0.28,0.43,0.12
			C383.2,279.03,383.3,279.31,383.13,279.39z"/>
		<path class="st0" d="M365.26,267.16c-0.21,5.83,0.08,8.07,6.07,10.17c1.61,0.26,3.75-1.19,5.03-2.12c1.47-1.02,2-2.75,1.99-4.48
			c-0.06-0.54,0.35-4.02-0.29-3.83c-4.18,0.01-8.36,0.01-12.54,0C365.31,266.9,365.26,266.96,365.26,267.16z M366.56,269.09
			c0.31-0.41,0.87-1.72,1.48-1.48c0.36,0.2,0.41,0.44,0.27,0.74c-0.17,0.36-0.17,0.37,0.16,0.58c1.02,0.64,1.93,1.41,2.88,2.13
			c0.61,0.46,0.37,0.45,0.98-0.02c0.98-0.76,1.91-1.59,3.01-2.19c0.27-0.13,0-0.37-0.04-0.56c-0.1-0.24-0.03-0.46,0.19-0.61
			c0.78-0.41,1.22,0.95,1.61,1.43c0.28,0.52-0.36,1.1-0.79,0.59c-0.34-0.26-0.34-0.27-0.7-0.01c-1.05,0.78-2.15,1.4-3.25,2.1
			c0.43,0.39,4.25,2.28,3.58,2.7c-0.32,0.46-0.32,0.46-0.8,0.14c-1.05-0.69-2.03-1.46-3-2.25c-0.37-0.3-0.27-0.3-0.62-0.01
			c-1.05,0.85-2.12,1.67-3.23,2.44c-0.12,0.09-0.18,0.08-0.28-0.01c-0.5-0.44-0.5-0.51,0.01-0.9c4.39-3.12,3.89-1.21-0.14-4.34
			c-0.45-0.39-0.7,0.73-1.13,0.2C366.47,269.57,366.41,269.37,366.56,269.09z"/>
		<path class="st0" d="M352.52,267.93c0.3-0.13,0.53-0.33,0.68-0.64c0.48-1.08,1.06,1.23,2.52,0.22c0.29-0.18,0.37-0.14,0.49,0.16
			c0.79,1.24-0.51,0.53-0.14,1.16c0.08,0.11,0.35,0.18,0.19,0.34c-0.32,0.43-0.77,0.55-1.3,0.51c-0.35,0.04-0.12,0.59-0.16,0.83
			c-0.04,0.42,0.19,0.54,0.45,0.17c0.42-0.42,0.65,0.44,0.84,0.7c0.12,0.2,0.18,0.38-0.03,0.58c-0.37,0.36,0.36,0.27,0.51,0.46
			c0.07,0.08,0.14,0.09,0.22,0.01c0.11-0.11,0.2-0.05,0.25,0.07c0.11,0.17,0.07,0.54,0.31,0.56c0.18-0.04,0.13-0.29,0.19-0.42
			c0.07-0.21,0.13-0.22,0.3-0.07c0.24,0.17,0.1,0.68,0.46,0.68c0.39-0.15,0.11-0.76-0.08-0.99c-0.5-0.64,1.54,0.04,0.76-0.68
			c-0.38-0.24-0.85-0.21-1.25-0.06c-0.87,0.27-1.24-1.99-0.07-1.38c0.44,0.18,0.36-0.29,0.22-0.54c-0.04-0.42,0.35-0.84,0.5-1.23
			c0.72-1.28,2.14,0.3,1.84,1.29c-0.09,0.29-0.19,0.58-0.12,0.88c0.21,0.74-0.1,0.44-0.59,0.66c0.16,0.42,0.89,0.25,1.22,0.55
			c0.05,0.03,0.12,0.05,0.16,0.01c0.3-0.34,0.49,0.62,0.8,0.21c0.48-0.93,0.39,0.36,0.77,0.41c0.52-0.18-0.64-1.77,0.34-0.97
			c0.08,0.05,0.18,0.19,0.28,0.02c0.36-0.33-0.2-0.54-0.41-0.78c-0.38-0.28,0.15-0.34,0.35-0.49c0.31-0.2-0.22-0.33-0.39-0.24
			c-0.85,0.4-1.23,1.15-1.49-0.32c-0.1-0.41,0.25-0.48,0.55-0.62c0.28-0.2-0.22-0.24-0.36-0.22c-0.52,0.03-0.21-0.62-0.29-0.93
			c0-1.39-1.68-0.84-2.17-1.54c-0.21-0.75,1.48-1.05,1.92-0.77c0.05,0.21-0.62,0.59-0.11,0.68c0.53,0.11,0.47-0.39,0.79-0.44
			c0.48,0.22-0.26,1.62,0.41,1.76c0.37-0.18-0.11-0.7,0.71-0.83c0.36-0.02-0.1,0.86,0.4,0.84c0.71-0.01-0.02-1.41,1.09-0.77
			c0.12,0.07,0.27,0.22,0.39,0.12c0.1-0.11-0.02-0.37-0.08-0.5c-0.19-0.31-0.19-0.32,0.15-0.46c0.1-0.04,0.18-0.1,0.16-0.21
			c-0.05-0.33-0.49-0.25-0.73-0.18c-1.47,0.82-1.64-0.72-2.73-1.27c-0.46-0.09,0.94-0.9,1.05-0.81c0.25,0.13,0.35,0,0.46-0.21
			c0.44-0.71,0.68-1.71,1.33-2.23c0.35,0.03,0.5-0.42,0.85-0.33c0.48,0.26,0.42-0.16,0.51-0.5c0.36-0.67-0.88-1.33-1.38-1.41
			c-0.3,0.18-0.61,0.33-0.65,0.73c-0.21,0.91-1.1,1.51-1.68,2.21c-0.24,0.24-0.51,0.33-0.86,0.15c-0.61-0.34-1.26-0.47-1.92-0.74
			c0.57-0.73,1.66,0.34,1.71-0.08c0.11-0.91-1.32-0.19-1.6-0.67c0.18-0.29,0.8-0.02,1.12-0.08c0.51,0.04,2.18,0.31,1.77-0.62
			c-0.13-0.1-0.21,0.02-0.29,0.1c-0.62,0.59-1.63,0.18-2.44,0.15c0.33-0.66,1.26,0.27,1.52-0.33c-0.13-0.3,0.61-0.6,0.09-0.7
			c-0.62,0.02-0.97-0.6-1.53-0.56c-0.86,0.11-0.59-0.43-1.03-0.46c-0.14,0.03-0.13,0.19-0.16,0.3c-0.02,0.41-0.7-0.53-0.99-0.17
			c-0.26,0.27,0.28,0.5,0.09,0.75c-0.12,0.11-0.22-0.04-0.32-0.09c-0.25-0.21-0.56,0.05-0.4,0.34c0.07,0.15,0.14,0.31,0.12,0.49
			c-0.02,0.42-0.41,0.18-0.67,0.15c-0.44,0,0.07,0.63,0.3,0.66c0.18,0.08,0.19,0.19,0.16,0.35c-0.02,0.38-1.09-0.14-0.7,0.42
			c0.14,0.14,0.32,0.23,0.5,0.31c0.25,0.05,0.5,0.62,0.06,0.52c-0.17-0.01-0.77-0.24-0.61,0.12c0.16,0.17,0.3,0.37,0.55,0.43
			c0.64,0.07-0.3,0.64,0.4,0.83c0.37,0.05-0.12,0.74,0.34,0.81c0.54,0.17-1.27,3-1.8,3.11c-1.7,0.62,0.42-3.4,0.44-4.04
			c0.24-0.85-0.63-1.33-1.34-1.09c-1.48,0.46-0.36,2.47-1.09,3.53c-0.08,0.13,0.04,0.25,0.18,0.16c0.49-0.28,0.45-0.94,0.52-1.43
			c0.03-0.55,0.45-0.27,0.66-0.53c0.03-0.11-0.08-0.17-0.14-0.24c-1.01-0.64,0.35-1.67,0.68-0.56c0.06,1.07-0.71,1.97-1,2.97
			c-0.15,0.4-0.17,0.39-0.59,0.39c-0.79-0.06-0.63,0.64-0.85,1.14C352.55,267.58,352.18,268.07,352.52,267.93z M359.01,258.71
			c0.21-0.08,0.61-0.1,0.7,0.15c0.01,0.29-0.84,0.32-0.93,0.17C358.77,258.89,358.87,258.76,359.01,258.71z"/>
		<path class="st0" d="M378.23,260.21c0.02,0.33,0.04,0.52,0.43,0.41c0.37-0.13,0.52,0.37,0.9,0.32c0.67,0.51,0.89,1.6,1.38,2.32
			c0.1,0.19,0.24,0.3,0.45,0.13c0.03-0.02,0.06-0.06,0.1-0.02c1.94,1.14,0.75,0.35-0.19,1.9c-0.45,0.64-1.06,0.46-1.66,0.19
			c-0.39-0.2-1.06,0.17-0.41,0.45c0.31,0.1,0.11,0.32,0.01,0.5c-0.26,0.34,0,0.56,0.34,0.3c0.13-0.09,0.24-0.22,0.41-0.14
			c0.67,0.1,0.02,0.83,0.65,0.91c0.61-0.07-0.1-1.19,0.8-0.73c0.34,0.11,0.03,0.68,0.39,0.75c0.17,0.01,0.18-0.13,0.2-0.25
			c0.1-0.26-0.26-1.92,0.32-1.4c0.17,0.22,0.44,0.48,0.71,0.27c0.17-0.12-0.02-0.22-0.06-0.33c-0.52-0.77,1.29-0.31,1.6-0.09
			c1.14,1.59-2.43,0.04-2.02,2.83c0,0.31-0.4,0.18-0.6,0.25c-0.31,0.1,0.2,0.32,0.34,0.31c0.42,0.12,0.17,0.8,0.07,1.1
			c-0.46,0.81-0.98-0.51-1.58-0.3c-0.28,0.04-0.36,0.34-0.02,0.37c0.98,0.25-0.63,0.68-0.21,1.15c0.29,0.22,0.46-0.38,0.8-0.18
			c-0.18,0.27-0.45,0.82-0.21,1.05c0.24,0.08,0.25-0.2,0.32-0.34c0.06-0.11,0.1-0.24,0.24-0.25c0.27,0.02,0.2,0.67,0.55,0.29
			c0.28-0.43,1.78-0.33,1.88-0.75c-0.03-0.17-0.23-0.11-0.36-0.11c-0.64,0.12,0.08-1.08-0.4-1.56c-0.13-0.94,1.04-2.39,1.85-1.25
			c0.19,0.46,0.69,0.92,0.5,1.44c-0.53,0.96,1.15-0.26,1.03,0.85c-0.16,0.72-0.4,1.18-1.21,0.84c-0.33-0.02-0.68-0.06-0.95,0.21
			c-0.17,0.11-0.08,0.34,0.13,0.31c0.25,0.04,0.61-0.1,0.8,0.1c0.05,0.09-0.02,0.16-0.08,0.21c-0.22,0.23-0.39,0.71-0.16,0.96
			c0.36,0.17,0.53-1.11,0.8-0.68c0.07,0.2,0.13,0.71,0.4,0.37c0.16-0.13,0.07-0.5,0.28-0.51c0.24,0.03,0.88-0.06,0.97-0.28
			c-0.02-0.21-0.43-0.23-0.28-0.5c0.17-0.25,0.41-1.27,0.81-1c0.13,0.08,0.36,0.47,0.47,0.23c0.11-0.34,0.19-0.68,0.09-1.03
			c-0.28-0.57-0.5,0.1-0.77-0.12c-0.44-0.32-0.91-0.38-0.45-0.95c0.23-0.47-0.72-0.07-0.34-0.72c0.38-1.55,1.03,0.54,2.29-0.63
			c1.02-1.26,0.72,0.75,1.67,0.46c0.06-0.07-0.03-0.13-0.08-0.18c-0.16-0.18-0.29-0.37-0.26-0.63c0.18-1.06-1.08-0.39-1.28-0.99
			c-0.15-0.92-1.83-2.96-0.66-3.54c0.53-0.25,0.9,0.62,0.46,0.88c-0.08,0.1-0.29,0.18-0.28,0.32c0.05,0.15,0.26,0.18,0.4,0.17
			c0.47,0.04,0.19,0.8,0.32,1.12c-0.06,0.26,0.75,1.12,0.6,0.51c-0.33-0.83-0.27-1.73-0.3-2.6c0.01-1.28-2.31-1.19-2.14,0.09
			c-0.01,0.69,2.19,4.64,0.5,4.17c-0.97-0.59-1.42-1.64-1.84-2.63c-0.25-0.36,0.05-0.39,0.18-0.67c-0.04-0.45,0.59-0.73,0.41-1.15
			c-0.1-0.14-0.05-0.23,0.11-0.3c0.22-0.05,1.07-0.67,0.43-0.64c-0.21,0.03-0.55,0.18-0.68-0.06c-0.06-0.37,1.03-0.56,0.85-1
			c-0.1-0.14-0.26,0.01-0.38,0.04c-0.3,0.16-0.55-0.24-0.26-0.41c0.34-0.23,0.97-1.01,0.07-0.7c-0.93,0.22,0.33-1.29-0.42-1.13
			c-0.14,0.06-0.27,0.15-0.4,0.22c-0.6,0.21,0.82-1.48-0.82-0.63c-0.12,0.08-0.19,0.08-0.24-0.08c-0.27-0.71-0.25,0.4-1.27,0.24
			c-0.24,0-0.46,0.03-0.6,0.26c-0.04,0.06-0.1,0.1-0.18,0.11c-0.17,0.11-1.04,0.09-0.8,0.38c0.24,0.17,0.1,0.6,0.39,0.69
			c0.41,0.16,0.8-0.26,1.16-0.03c0.19,0.07,0.15,0.24-0.05,0.23c-0.78,0-1.72,0.41-2.29-0.3c-0.59-0.18-0.06,0.8,0.32,0.7
			c0.61,0.12,2.05-0.38,2.41-0.02c-0.24,0.49-1.41-0.1-1.6,0.42c-0.05,0.21,0.1,0.52,0.32,0.3c0.41-0.36,2.07-0.22,0.85,0.27
			c-0.48,0.19-1.05,0.2-1.42,0.64c-0.26,0-0.61-0.02-0.83-0.25c-0.6-0.76-1.49-1.35-1.73-2.33c-0.14-0.59-0.6-0.78-1.12-0.49
			C378.63,259.19,377.89,259.48,378.23,260.21z M384.52,259.1c-0.2,0.02-0.88-0.15-0.5-0.39
			C384.35,258.45,385.43,259.07,384.52,259.1z"/>
		<path class="st0" d="M366.34,257.29c0.95,0.85,0.17,2.89,0.65,2.88c1.83,0.08,3.68,0.16,5.49,0.14c0.5-0.08,4.99,0.18,4.45-0.48
			c-0.18-0.8-0.17-1.72,0.31-2.44c0.72-1.03,1.8-3.05,0.29-3.86c-0.88-0.73-3.67-0.62-3.72-1.21c0-0.19-0.11-0.18-0.24-0.18
			c-1.15,0-2.3,0-3.45,0.01c-0.52-0.05-0.15,0.36-0.46,0.44C366.35,252.98,363.87,253.58,366.34,257.29z M370.12,258.14
			c-1,0.22-1.78-2.04-1.86-2.85c-0.05-1.16,1.41-1.76,2.36-1.97C368.92,254.69,369.57,256.42,370.12,258.14z M373.64,258.18
			c-0.5,0.04-0.49,0.03-0.34-0.4c0.23-0.63,0.42-1.28,0.51-1.95c0.23-1.16-0.49-1.87-1.25-2.65c1.19,0.33,3.29,1.05,2.75,2.64
			C375.03,256.53,374.54,258.2,373.64,258.18z M372.56,252.83c3.89,0.3,6.58,0.83,3.4,4.9c-0.06,0.19-0.86,0.65-0.64,0.19
			c1.91-3.17,0.63-4.49-2.75-4.94C372.39,253.01,372.38,252.78,372.56,252.83z M371.8,253c0.57,0.64,1.32,1.35,1.26,2.28
			c-0.04,0.96-0.32,1.86-0.74,2.72c-0.21,0.32-0.76,0.19-1.1,0.16c-0.67-0.54-1.19-2.78-0.86-3.61
			C370.61,254.19,371.3,252.69,371.8,253z M367.22,253.55c1.17-0.38,2.58-0.9,3.75-0.72c-3.64,1.03-4.49,1.56-2.58,5.3
			c-1.03-0.26-1.62-1.8-2.02-2.72C366.07,254.55,366.33,253.83,367.22,253.55z"/>
		<path class="st0" d="M378.09,261.77c-3.5-0.55-7.08-0.49-10.61-0.23c-0.48,0.13-1.92,0.01-2.12,0.39
			c-0.03,1.35-0.05,2.7-0.05,4.05c0,0.12,0.04,0.15,0.16,0.15c2.31,0.07,4.61,0.03,6.92,0.04c1.88,0,3.76,0.01,5.64-0.03
			c0.22,0,0.25-0.08,0.25-0.27c-0.01-1.29-0.01-2.57,0-3.86C378.28,261.86,378.25,261.79,378.09,261.77z M367.96,263.82
			c-0.62,0.3-0.02,0.6-0.17,0.92c-0.31,0.07-0.59-0.58-0.91-0.18c-0.09,0.09-0.18,0.28-0.33,0.19c-0.13-0.08,0-0.24,0.03-0.35
			c0.23-0.58-0.24-0.41-0.43-0.8c0.42-0.06,0.84-0.01,0.89-0.58c0.02-0.19,0.28-0.15,0.25,0.04c0.09,0.44,0.09,0.44,0.56,0.48
			C368.26,263.54,368.51,263.67,367.96,263.82z M370.21,263.88c-0.51,0.17,0.04,0.59-0.05,0.87c-0.32,0.13-0.62-0.58-0.94-0.17
			c-0.1,0.1-0.23,0.23-0.37,0.16c-0.06-0.03-0.05-0.11-0.02-0.15c0.37-0.53-0.18-0.71-0.39-1.05c1.41,0.08,0.48-0.29,1.02-0.6
			c0.17-0.01,0.16,0.21,0.21,0.34c0.12,0.41,0.66,0.1,0.82,0.36C370.51,263.78,370.32,263.83,370.21,263.88z M372.49,263.89
			c-0.43,0.2,0.13,0.64-0.08,0.88c-0.11,0.08-0.26-0.12-0.38-0.21c-0.23-0.19-0.44-0.07-0.62,0.11c-0.2,0.21-0.41,0.07-0.22-0.16
			c0.25-0.45-0.05-0.56-0.36-0.85c0.04-0.33,0.82,0.17,0.82-0.51c0.03-0.1,0.07-0.19,0.19-0.19c0.13,0,0.11,0.12,0.13,0.2
			C371.92,263.89,373.51,263.2,372.49,263.89z M375.09,263.7c-0.21,0.2-0.54,0.32-0.36,0.67c0.24,0.36,0,0.52-0.3,0.24
			c-0.34-0.2-0.37-0.2-0.66,0.06c-0.07,0.13-0.44,0.17-0.31-0.04c0.74-0.74-1.13-1.08,0.26-1.08c0.12,0,0.19-0.04,0.18-0.17
			c-0.01-0.31,0.43-0.67,0.43-0.16C374.3,263.84,375.36,263.25,375.09,263.7z M377.35,263.76c-0.7,0.27,0.05,1.07-0.36,0.98
			c-0.27-0.16-0.48-0.46-0.77-0.16c-0.33,0.34-0.56,0.2-0.31-0.21c0.09-0.33,0.08-0.37-0.23-0.54c-0.28-0.1-0.24-0.35,0.07-0.3
			c0.25,0,0.54,0.01,0.56-0.31c0.01-0.13,0.02-0.31,0.17-0.31c0.16,0,0.17,0.18,0.18,0.3C376.59,263.82,377.87,263.29,377.35,263.76
			z"/>
		<path class="st0" d="M370.1,248.57c1.98,0.98,0.79,2.93,1.79,2.8c0.66,0.09-0.19-2.02,1.68-2.81c0.47-0.14-0.26-0.51-0.46-0.58
			c-0.26-0.1-0.4,0.36-0.64,0.13c-0.21-0.17-0.16-0.33-0.02-0.5c0.15-0.17,0.15-0.32,0.01-0.5c-0.4-0.53-0.45-1.21-0.64-1.82
			c-0.15,0.64-0.24,1.27-0.63,1.8c-0.14,0.19-0.14,0.36,0,0.55c0.11,0.14,0.15,0.29,0.02,0.44c-0.14,0.17-0.29,0.06-0.4-0.01
			c-0.32-0.21-0.54-0.01-0.77,0.19C369.84,248.45,369.84,248.46,370.1,248.57z"/>
		<path class="st0" d="M372.72,250.67c-0.12,0.47,0.22,0.55,0.32,0.08c0.3-0.87,1.83-1.06,1.83,0.08c-0.02,0.15,0.11,0.17,0.19,0.06
			C376.17,248.66,372.77,248.39,372.72,250.67z"/>
		<path class="st0" d="M368.77,250.67c0.35-1.14,1.61-0.63,1.91,0.26c0.1,0.17,0.34,0.1,0.26-0.1c0.03-2.43-3.53-2.26-2.32,0.19
			C368.7,250.9,368.73,250.78,368.77,250.67z"/>
		<path class="st0" d="M371.81,251.52c-0.26,0.06-1.3-0.14-1.32,0.11c0.02,0.48,2.01,0.15,2.46,0.22c0.1,0,0.25-0.01,0.24-0.14
			C373.01,251.29,372.21,251.62,371.81,251.52z"/>
		<path class="st0" d="M378.99,278.86c-0.14-0.15-0.54-0.14-0.56,0.09c0.06,0.44-0.04,1.79,0.45,1.89
			C379.51,280.74,379.12,279.32,378.99,278.86z"/>
		<path class="st0" d="M381.82,278.52c-0.08-0.41-0.64-0.29-0.59,0.11c0.17,0.42-0.03,2,0.75,1.61
			C382.31,279.77,381.88,279.06,381.82,278.52z"/>
		<path class="st0" d="M379.38,279.23c0.11,0.43-0.04,1.32,0.53,1.4c0.1-0.01,0.16-0.04,0.11-0.15
			C379.86,280.04,379.63,279.63,379.38,279.23z"/>
		<path class="st0" d="M372.75,279.67c0.01-0.21,0.02-0.49-0.26-0.51c-0.2-0.01-0.38-0.02-0.43,0.24c0,0.18-0.14,0.58,0.11,0.68
			C372.51,280.18,372.73,280.02,372.75,279.67z"/>
		<path class="st0" d="M372.4,280.33c-0.35,0-0.35,0-0.34,0.36c-0.02,0.28,0.02,0.62,0.37,0.61c0.35,0.04,0.29-0.39,0.33-0.62
			C372.77,280.33,372.77,280.33,372.4,280.33z"/>
		<path class="st0" d="M361.19,278.2c-0.18,0.04-0.12,0.22-0.16,0.34c-0.09,0.42-0.18,0.84-0.2,1.27
			C361.13,280.92,362.28,278.3,361.19,278.2z"/>
		<path class="st0" d="M375.23,279.68c-0.06-0.63-0.83-0.65-0.84-0.01c0,0.46-0.1,1.4,0.56,1.41
			C375.48,280.85,375.15,280.11,375.23,279.68z"/>
		<path class="st0" d="M367.41,279.03c-0.63,0.14-0.55,2.83,0.26,1.78C367.88,280.3,368.16,279.14,367.41,279.03z"/>
	</g>
	<rect x="346.8" y="238.86" class="st1" width="50" height="50"/>
</g>
<g>
	<g>
		<path class="st0" d="M205.44,270.64l0.9,1.66h-1.77L205.44,270.64z M202.1,274.03h1.55l0.41-0.78h2.81l0.43,0.78h1.54l-2.48-4.42
			h-1.8L202.1,274.03z"/>
		<path class="st0" d="M212.41,269.61h2.15l2.6,3.21h0.01v-3.21h1.39v4.42h-2.15l-2.6-3.21h-0.01v3.21h-1.39V269.61z"/>
		<path class="st0" d="M220.49,272.04c0-0.37,0.09-0.44,0.87-0.44c0.7,0,0.87,0.07,0.87,0.44H220.49z M219.29,272.6
			c0,1.33,0.84,1.48,1.63,1.48h0.9c0.87,0,1.58-0.17,1.58-0.95V273h-1.12c0,0.18-0.03,0.35-0.68,0.35h-0.37
			c-0.5,0-0.74-0.09-0.74-0.42v-0.19h2.91v-0.53c0-1.08-0.52-1.34-1.8-1.34h-0.84c-0.87,0-1.47,0.26-1.47,1.44V272.6z"/>
		<path class="st0" d="M223.7,270.92h1.31l0.72,2.27h0.01l0.84-2.27h1.1l0.84,2.27h0.01l0.72-2.27h1.31l-1.22,3.12h-1.6l-0.61-1.69
			h-0.01l-0.61,1.69h-1.6L223.7,270.92z"/>
		<path class="st0" d="M235.59,270.71h2.46c0.59,0,0.82,0.17,0.82,0.79v0.6c0,0.63-0.23,0.79-0.82,0.79h-2.46V270.71z
			 M234.21,274.03h4.18c1.39,0,1.87-0.45,1.87-1.54v-1.34c0-1.09-0.49-1.54-1.87-1.54h-4.18V274.03z"/>
		<path class="st0" d="M241.04,270.92h1.12v0.59h0.01c0.14-0.49,0.62-0.64,1.17-0.64c0.87,0,1.22,0.37,1.22,1.23
			c0,0.08-0.01,0.16-0.01,0.27h-1.04c0-0.4-0.09-0.59-0.57-0.59c-0.41,0-0.7,0.15-0.7,0.53v1.72h-1.2V270.92z"/>
		<path class="st0" d="M246.47,274.03h-1.2v-3.12h1.2V274.03z M246.47,270.53h-1.2v-0.92h1.2V270.53z"/>
		<path class="st0" d="M246.99,270.92h1.3l0.97,2.2l0.97-2.2h1.31l-1.53,3.12h-1.5L246.99,270.92z"/>
		<path class="st0" d="M253.27,274.03h-1.2v-3.12h1.2V274.03z M253.27,270.53h-1.2v-0.92h1.2V270.53z"/>
		<path class="st0" d="M254.16,270.92h1.2v0.5h0.01c0.21-0.43,0.63-0.55,1.27-0.55c0.74,0,1.78,0.03,1.78,1.37v1.79h-1.2v-1.79
			c0-0.31-0.25-0.46-0.77-0.46h-0.27c-0.51,0-0.82,0.23-0.82,0.68v1.57h-1.2V270.92z"/>
		<path class="st0" d="M261.06,272.97c-0.59,0-0.73-0.15-0.73-0.62c0-0.48,0.14-0.64,0.73-0.64h0.59c0.59,0,0.73,0.16,0.73,0.64
			c0,0.47-0.14,0.62-0.73,0.62H261.06z M259.17,272.52c0,0.84,0.36,1.3,1.52,1.3h0.63c0.64,0,0.84-0.09,1.07-0.32v0.21
			c0,0.53-0.26,0.69-0.78,0.69h-0.87c-0.19,0-0.29-0.09-0.29-0.24h-1.24c0,0.78,0.46,0.97,1.26,0.97h1.32c1.5,0,1.72-0.64,1.72-1.28
			v-2.92h-1.12v0.43h-0.01c-0.3-0.4-0.44-0.48-1.05-0.48h-0.7c-0.95,0-1.46,0.26-1.46,1.22V272.52z"/>
		<path class="st0" d="M267.39,272.59h1.39c0.01,0.47,0.2,0.51,0.6,0.51h1.7c0.29,0,0.59-0.03,0.59-0.37c0-0.38-0.16-0.41-1.95-0.41
			c-2.09,0-2.32-0.24-2.32-1.33c0-0.8,0.07-1.42,1.82-1.42h1.94c1.6,0,1.75,0.53,1.75,1.31v0.14h-1.39c0-0.32-0.04-0.46-0.67-0.46
			h-1.54c-0.31,0-0.52,0.1-0.52,0.34c0,0.38,0.17,0.4,1.65,0.39c2.15-0.01,2.65,0.12,2.65,1.41c0,1.19-0.41,1.39-2.25,1.39h-1.68
			c-1.26,0-1.77-0.23-1.77-1.19V272.59z"/>
		<path class="st0" d="M274.94,272.04c0-0.37,0.09-0.44,0.87-0.44c0.7,0,0.87,0.07,0.87,0.44H274.94z M273.74,272.6
			c0,1.33,0.84,1.48,1.63,1.48h0.9c0.87,0,1.58-0.17,1.58-0.95V273h-1.12c0,0.18-0.03,0.35-0.68,0.35h-0.37
			c-0.5,0-0.74-0.09-0.74-0.42v-0.19h2.91v-0.53c0-1.08-0.52-1.34-1.8-1.34h-0.84c-0.87,0-1.47,0.26-1.47,1.44V272.6z"/>
		<path class="st0" d="M278.53,270.92h1.2v0.5h0.01c0.21-0.43,0.63-0.55,1.27-0.55c0.74,0,1.78,0.03,1.78,1.37v1.79h-1.2v-1.79
			c0-0.31-0.25-0.46-0.77-0.46h-0.27c-0.51,0-0.82,0.23-0.82,0.68v1.57h-1.2V270.92z"/>
		<path class="st0" d="M284.73,273.06c0,0.17,0.06,0.29,0.74,0.29h0.42c0.57,0,0.71-0.04,0.71-0.23c0-0.18-0.09-0.26-0.52-0.26
			h-1.12c-1.12-0.01-1.45-0.24-1.45-1.1c0-0.78,0.64-0.89,1.46-0.89h0.84c1.57,0,1.84,0.21,1.85,0.95h-1.2
			c-0.06-0.18-0.17-0.21-0.89-0.21c-0.69,0-0.82,0.02-0.82,0.23c0,0.13,0.09,0.18,0.72,0.18h0.83c1.44,0,1.54,0.47,1.54,1.03
			c0,0.82-0.34,1.04-1.7,1.04h-1.14c-1.11,0-1.51-0.25-1.51-1.02H284.73z"/>
		<path class="st0" d="M290.14,273.35c-0.47,0-0.63-0.08-0.63-0.28c0-0.26,0.11-0.37,0.61-0.37h0.53c0.66,0,0.73,0.09,0.73,0.32
			c0,0.21-0.08,0.33-0.9,0.33H290.14z M288.35,273.2c0,0.73,0.47,0.89,1.2,0.89h0.82c0.6,0,0.72-0.07,1.06-0.4v0.35h1.14v-2.05
			c0-0.73-0.44-1.12-1.26-1.12h-1.39c-1.01,0-1.44,0.14-1.44,0.98h1.16c0.01-0.22,0.11-0.25,0.46-0.25h0.71
			c0.47,0,0.56,0.11,0.56,0.42v0.27c-0.23-0.23-0.59-0.25-1.25-0.25c-1.16,0-1.76,0.05-1.76,0.9V273.2z"/>
		<path class="st0" d="M293.61,271.76h-0.6v-0.84h0.6v-0.73h1.2v0.73h1.86v0.84h-1.86v1.2c0,0.23,0.17,0.28,0.46,0.28
			c0.39,0,0.49-0.09,0.49-0.37v-0.21h1.05v0.38c0,0.59-0.4,1.04-1.35,1.04h-0.47c-0.74,0-1.37-0.23-1.37-1.09V271.76z"/>
		<path class="st0" d="M298.76,274.03h-1.2v-3.12h1.2V274.03z M298.76,270.53h-1.2v-0.92h1.2V270.53z"/>
		<path class="st0" d="M300.77,272.33c0-0.45,0.27-0.58,0.82-0.58h0.29c0.77,0,0.92,0.1,0.92,0.51v0.43c0,0.42-0.15,0.51-0.92,0.51
			h-0.29c-0.55,0-0.82-0.13-0.82-0.58V272.33z M299.57,272.85c0,1.03,0.71,1.23,1.32,1.23h1.79c0.61,0,1.32-0.21,1.32-1.23v-0.75
			c0-1.03-0.71-1.23-1.32-1.23h-1.79c-0.61,0-1.32,0.21-1.32,1.23V272.85z"/>
		<path class="st0" d="M304.74,270.92h1.2v0.5h0.01c0.21-0.43,0.63-0.55,1.27-0.55c0.74,0,1.78,0.03,1.78,1.37v1.79h-1.2v-1.79
			c0-0.31-0.25-0.46-0.77-0.46h-0.27c-0.51,0-0.82,0.23-0.82,0.68v1.57h-1.2V270.92z"/>
		<g>
			<g>
				<rect x="273.45" y="257.44" class="st0" width="9.56" height="3.04"/>
				<path class="st0" d="M284.1,252.6v3.1h-12.51v6.56h12.34v3.29h-17.02c0,0,0-9.85,0-10.82c0-0.98,1.47-2.09,3.03-2.09
					C271,252.63,284.1,252.6,284.1,252.6z"/>
				<path class="st0" d="M285.31,265.48h5.95l3.08-2.87c0,0,1.2,1.11,1.97,1.8c0.78,0.68,1.28,1.07,2,1.07c0.72,0,6.84,0,6.84,0
					l-6.39-5.21l5.67-4.59h-5.67l-2.61,2.32c-1.97-1.88-2.36-2.32-3.37-2.32c-0.8,0-6.47,0-6.47,0l5.42,4.54L285.31,265.48z"/>
				<path class="st0" d="M322.45,263.41c-1.49,2.14-1.04,2.43-3.95,2.54c0,0-2.11,0.08-4.01,0.08c-5.38,0-9.74-1.11-9.74-5.41
					c0-4.59,4.36-5.5,9.74-5.5c5.78,0,8.81,1.55,8.81,5.01c0,0.29-0.17,1.09-0.25,1.51h-9.62v-2.02h5.15c0-0.6,0.41-1.93-3.32-1.93
					c-2.7,0-4.45,0.51-4.45,2.75c0,1.82,0.61,3.08,3.12,3.08c2.5,0,4.86,0,4.86,0L322.45,263.41z"/>
				<path class="st0" d="M188.18,266.88h8.5l8.84-10.45c0,0,1.25,6.05,1.45,6.91c0.31,1.33,0.72,2.39,1.72,2.39c1,0,5.22,0,5.22,0
					l-3.56-12.89c0,0-5.34,0-6.22,0c-1.45,0-3.45,0.82-5.34,2.94C197.91,256.76,188.18,266.88,188.18,266.88z"/>
				<path class="st0" d="M214.94,255.93v3.91c0,0,1.45,5.03,1.53,5.27c0.08,0.25,3.86,1.2,7.5,1.2c3.65,0,8.38-1.28,8.38-3.43
					c0-2.15,0-6.95,0-6.95h-5.88c0,0,0,5.42,0,5.67c0,0.24,0.04,1.52-2.69,1.52c-2.73,0-2.97-1.01-2.97-1.44c0-0.43,0-5.75,0-5.75
					H214.94z"/>
				<path class="st0" d="M234.79,253.72h5.7v2.09h3.13v2.78h-3.13c0,0,0,3.78,0,4.08c0,0.3,0.22,0.55,0.59,0.56
					c0.37,0.01,3.23-0.18,3.23-0.18s-0.89,3.02-2.09,3.02c-1.56,0-3.26,0-3.26,0c-3.48,0-4.17-1.68-4.17-2.99
					C234.79,261.76,234.79,253.72,234.79,253.72z"/>
				<path class="st0" d="M255.05,255.24c-5.31,0-9.45,1.2-9.45,5.48c0,4.26,4.15,5.48,9.45,5.48c5.32,0,9.48-1.22,9.48-5.48
					C264.53,256.23,260.37,255.24,255.05,255.24z M255.07,263.08c-1.96,0-3.4-0.58-3.4-2.36c0-1.81,1.44-2.37,3.4-2.37
					c2.14,0,3.37,0.65,3.37,2.37C258.44,262.53,257.02,263.08,255.07,263.08z"/>
			</g>
		</g>
	</g>
	<rect x="180.74" y="238.86" class="st1" width="150" height="50"/>
</g>
<g>
	<rect x="412.86" y="238.86" class="st1" width="150" height="50"/>
	<g>
		<path class="st0" d="M458.89,262.55c0,0-0.01,0-0.01,0H444.5c-0.36,0.01-0.65,0.3-0.64,0.67c0,0,0,0,0,0v1.3
			c-0.01,0.36,0.28,0.66,0.64,0.67c0,0,0,0,0,0h8.45c0.25,0.01,0.45,0.21,0.44,0.46c0,0,0,0,0,0c0.01,0.07,0.01,0.14,0,0.21
			c-0.96,2.66-3.92,4.84-7.95,4.84c-4.53,0-8.07-3.2-8.07-6.81c0-3.61,3.57-6.79,8.32-6.79c2.37,0.05,4.64,0.94,6.41,2.51
			c0.21,0.2,0.49,0.32,0.78,0.33h6.05c0.26,0,0.46-0.21,0.46-0.46c0,0,0-0.01,0-0.01c0-0.31-0.33-0.53-0.53-0.73
			c-3.28-2.61-7.35-4.03-11.54-4.03h-1.63c-8.23,0-14.88,4.1-14.88,9.15s6.45,9.15,14.67,9.15c8.21,0,14.73-4.04,14.73-9.15
			C460.2,263.14,459.62,262.55,458.89,262.55z"/>
		<path class="st0" d="M485.48,255.34h-20.93c-0.72,0-1.31,0.59-1.31,1.31v14.43c0,0.72,0.59,1.31,1.31,1.31h20.93
			c0.36,0,0.65-0.29,0.65-0.65v-1.32c0-0.36-0.29-0.65-0.65-0.65h-15.04c-0.36,0-0.65-0.29-0.65-0.65v-3.28
			c0-0.36,0.29-0.65,0.65-0.65h12.47c0.36,0,0.65-0.29,0.65-0.65v-1.31c0-0.36-0.29-0.65-0.65-0.65h-12.47
			c-0.36,0-0.65-0.29-0.65-0.65v-3.28c0-0.36,0.29-0.66,0.65-0.67h15.04c0.35,0.01,0.65-0.28,0.65-0.63c0-0.01,0-0.02,0-0.02v-1.31
			C486.14,255.63,485.85,255.34,485.48,255.34z"/>
		<path class="st0" d="M544.68,271.35l-10.46-6.79c-0.25-0.16-0.4-0.43-0.4-0.73c0-0.3,0.15-0.57,0.4-0.74l10.46-6.81
			c0.14-0.08,0.23-0.23,0.24-0.39c0.01-0.28-0.21-0.5-0.49-0.51c-0.01,0-0.02,0-0.04,0h-7.8c-0.41,0.02-0.8,0.19-1.09,0.49
			l-4.47,4.96c-0.2,0.25-0.5,0.4-0.82,0.4c-0.32-0.01-0.63-0.15-0.83-0.4l-4.48-5c-0.29-0.29-0.68-0.47-1.09-0.49h-7.79
			c-0.28-0.01-0.51,0.2-0.52,0.47c0,0.01,0,0.02,0,0.04c-0.01,0.18,0.09,0.35,0.24,0.44l10.41,6.81c0.4,0.21,0.56,0.7,0.36,1.1
			c-0.08,0.15-0.2,0.28-0.36,0.36l-10.41,6.79c-0.15,0.09-0.25,0.25-0.24,0.43c-0.01,0.28,0.21,0.5,0.49,0.51c0.01,0,0.02,0,0.04,0
			h7.79c0.41-0.02,0.8-0.19,1.09-0.49l4.48-5c0.2-0.25,0.51-0.4,0.83-0.4c0.32,0.01,0.62,0.15,0.82,0.4l4.48,5
			c0.29,0.29,0.68,0.47,1.09,0.49h7.79c0.28,0.01,0.51-0.2,0.52-0.47c0-0.01,0-0.02,0-0.04
			C544.93,271.6,544.83,271.43,544.68,271.35z"/>
		<path class="st0" d="M501.7,254.71c-8.12,0-14.69,4.1-14.69,9.15s6.57,9.15,14.69,9.15s14.69-4.04,14.69-9.15
			S509.82,254.71,501.7,254.71z M501.71,270.43h-0.01c-4.52,0-8.18-2.94-8.18-6.55c0-3.61,3.67-6.56,8.19-6.56
			c4.52,0,8.18,2.94,8.18,6.56C509.89,267.51,506.23,270.43,501.71,270.43z"/>
	</g>
</g>
<g>
	<rect x="578.92" y="238.86" class="st1" width="50" height="50"/>
	<g>
		<path class="st0" d="M623.68,263.89c0,1.93-0.28,3.86-0.83,5.68l-3.78,0.97c0.49-1.11,0.86-2.29,1.1-3.52
			c-1.13,0.29-3.71,0.95-4.82,1.23c0,0.01-0.01,0.02-0.01,0.03l-1.85,0.47c1.06-2.04,1.41-4.49,1-6.76l-1.43,1.47
			c-0.14-3.68-2.63-6.98-6.07-8.17v-7.64c-0.88-0.16-1.78-0.26-2.7-0.27v-3.22c2.03,0.04,3.98,0.37,5.87,0.99v8.23
			c1.72,1.02,3.17,2.45,4.21,4.16l1.12-1.16c1.53,2.35,2.32,5.13,2.22,7.99l2.75-0.7c-0.05-6.31-3.85-12.11-9.53-14.75v-3.49
			C618.39,248.23,623.71,255.58,623.68,263.89z"/>
		<path class="st0" d="M603.51,244.17v3.22c-0.93,0.02-1.84,0.12-2.72,0.3v7.66c-3.32,1.21-5.72,4.37-5.94,7.92
			c-0.36-0.3-1.09-0.92-1.45-1.22c-0.4,2.22-0.04,4.67,0.97,6.65c-0.91-0.23-2.74-0.7-3.65-0.93v0l-2.32-0.59
			c-0.27-1.1-0.38-2.24-0.3-3.37l2.08,0.53c-0.08-2.67,0.6-5.27,1.95-7.53l1.22,1.03c1.03-1.79,2.5-3.3,4.26-4.37v-4.82
			c-8.18,3.11-12.62,13.66-8.82,21.83l-3.77-0.96C581.14,257.3,590.99,244.11,603.51,244.17z"/>
		<path class="st0" d="M615.35,268.26c0,0.01-0.01,0.02-0.01,0.03l1.82-0.47c0-0.01,0-0.02,0.01-0.02L615.35,268.26z M594.39,268.73
			c-0.87-0.31-2.76-0.71-3.67-0.97c0,0.01,0.01,0.02,0.01,0.03l1.81,0.46v0L594.39,268.73z"/>
		<path class="st0" d="M615.35,268.26c0,0.01-0.01,0.02-0.01,0.03l1.82-0.47c0-0.01,0-0.02,0.01-0.02L615.35,268.26z M594.39,268.73
			c-0.87-0.31-2.76-0.71-3.67-0.97c0,0.01,0.01,0.02,0.01,0.03l1.81,0.46v0L594.39,268.73z"/>
		<path class="st0" d="M594.39,268.73c0.02-0.09-1.84-0.47-1.86-0.51c0,0.01,0.01,0.02,0.01,0.03L594.39,268.73z"/>
		<path class="st0" d="M607.46,267.17c-0.16,0.19-0.33,0.36-0.51,0.52C607.13,267.53,607.3,267.35,607.46,267.17z"/>
		<path class="st0" d="M618.63,271.46c-1.52,2.94-3.89,5.36-6.79,6.95l0.03-3.24c2.26-1.59,4.01-3.84,4.99-6.47l-1.91,0.49v0
			l-2,0.51c-1.65,2.56-4.38,4.35-7.42,4.79v-2.65c6.2-1.34,7.89-10.25,2.6-13.94c-2.82-2.17-7.22-1.69-9.55,0.96
			c-0.35,0.37-0.66,0.78-0.93,1.23c-1.04,1.68-1.1,3.8-0.1,5.5c0.16,0.28,0.35,0.54,0.56,0.79c2.25,2.8,6.84,2.13,8.32-1.08
			c0.96-2.5-1.24-4.17-2.48-4.05c-2.03-0.06-3.36,2.36-2.27,4.04c-0.08-0.02-0.15-0.04-0.23-0.06c-0.87-0.26-1.52-1.01-1.64-1.91
			c0-0.01,0-0.01,0-0.02c0.01-4.69,5.74-4.63,7.6-2.23c3.12,4.01-0.7,8.4-5.06,8.67v4.76c-3.04-0.45-5.77-2.24-7.42-4.82
			c-0.97-0.25-2.93-0.75-3.91-1c0.98,2.65,2.75,4.92,5.03,6.52l-0.03,3.21c-2.91-1.6-5.29-4.04-6.81-7.01l-3.92-1
			c6.18,17.54,31.01,17.58,37.26,0.08L618.63,271.46z M608.65,279.73c-2.97,0.91-6.49,0.9-9.46-0.01l0.03-2.88
			c2.92,1.1,6.54,1.1,9.46,0L608.65,279.73z"/>
		<path class="st0" d="M607.46,267.17c-0.16,0.19-0.33,0.36-0.51,0.52C607.13,267.53,607.3,267.35,607.46,267.17z"/>
	</g>
</g>
<g>
	<rect x="644.98" y="238.86" class="st1" width="160.94" height="50"/>
	<g>
		<g>
			<path class="st0" d="M707.82,258.21c2.98-0.27,6.06,0.12,8.81,1.34c1.35,0.61,2.61,1.42,3.64,2.48c0.83,0.87,1.51,1.91,1.82,3.08
				c0.35,1.27,0.26,2.66-0.26,3.88c-0.52,1.24-1.41,2.3-2.45,3.14c-2.1,1.69-4.74,2.6-7.39,2.94c-3.05,0.38-6.22,0.05-9.07-1.13
				c-1.4-0.58-2.73-1.39-3.82-2.45c-0.8-0.8-1.48-1.74-1.85-2.81c-0.47-1.29-0.47-2.76,0.01-4.05c0.46-1.28,1.33-2.37,2.36-3.24
				C701.91,259.46,704.87,258.5,707.82,258.21z M709.17,260.09c-1.55,0.07-3.09,0.54-4.38,1.42c-1.13,0.75-2.07,1.83-2.56,3.1
				c-0.43,1.09-0.51,2.31-0.21,3.43c0.29,1.13,0.93,2.16,1.78,2.96c1.21,1.16,2.8,1.87,4.45,2.12c2.59,0.4,5.41-0.36,7.29-2.23
				c0.9-0.9,1.56-2.07,1.76-3.34c0.2-1.17-0.01-2.39-0.54-3.45c-0.66-1.32-1.79-2.37-3.09-3.04
				C712.29,260.34,710.72,260.02,709.17,260.09z"/>
		</g>
		<g>
			<path class="st0" d="M744.86,259.49c3.05-1.31,6.49-1.64,9.76-1.14c2.7,0.43,5.38,1.45,7.41,3.31c1.35,1.24,2.38,2.96,2.41,4.83
				c0,2.07-0.01,4.13,0.02,6.2c-0.01,0.64,0.02,1.28-0.02,1.91c0.01,0.34-0.3,0.65-0.65,0.63c-1.05,0-2.1,0-3.14,0
				c-0.26,0.01-0.5-0.17-0.59-0.41c-0.18-0.44-0.34-0.9-0.51-1.34c-0.88,0.34-1.73,0.73-2.64,0.99c-2.99,0.9-6.21,0.98-9.26,0.29
				c-1.63-0.38-3.22-0.99-4.64-1.89c-1.11-0.71-2.13-1.61-2.86-2.71c-0.7-1.03-1.12-2.27-1.1-3.52c-0.02-1.44,0.57-2.83,1.45-3.95
				C741.63,261.26,743.2,260.22,744.86,259.49z M751.34,260.09c-1.86,0.08-3.72,0.75-5.14,1.98c-1.3,1.11-2.2,2.76-2.21,4.5
				c-0.04,1.29,0.43,2.57,1.21,3.6c0.88,1.18,2.15,2.03,3.52,2.54c2.76,1,6.05,0.57,8.37-1.28c1.1-0.87,1.95-2.09,2.28-3.47
				c0.33-1.37,0.11-2.86-0.59-4.09c-0.68-1.22-1.76-2.19-3-2.82C754.42,260.33,752.87,260.02,751.34,260.09z"/>
		</g>
		<path class="st0" d="M773.88,259.88c1.7-0.61,3.5-0.93,5.3-1.07c3.51-0.24,7.13,0.02,10.39,1.42c0.97,0.44,1.95,0.94,2.7,1.71
			c-0.46,0.12-0.93,0.03-1.39,0.05c-1.07-0.01-2.14,0.03-3.21-0.02c-1.53-0.35-2.95-1.08-4.51-1.28c-1.45-0.18-2.95-0.2-4.37,0.21
			c-0.66,0.18-1.34,0.43-1.83,0.92c-0.45,0.45-0.61,1.19-0.33,1.78c0.2,0.42,0.58,0.72,0.98,0.94c0.72,0.39,1.53,0.57,2.32,0.73
			c1.84,0.39,3.68,0.79,5.52,1.19c1.52,0.35,3.07,0.61,4.58,1.03c1.1,0.33,2.23,0.72,3.12,1.47c0.56,0.47,1.04,1.11,1.09,1.86v0.21
			c-0.05,0.35-0.19,0.68-0.39,0.97c-0.42,0.62-0.97,1.14-1.6,1.53c-0.96,0.58-2.02,0.97-3.08,1.29c-1.9,0.57-3.9,0.76-5.88,0.81
			c-1.58,0.02-3.17-0.02-4.74-0.14c-1.82-0.16-3.65-0.43-5.35-1.12c-1.01-0.42-2.02-1.02-2.62-1.97c0.6-0.19,1.23-0.13,1.85-0.14
			c0.97,0,1.93-0.01,2.9,0c0.7,0.08,1.33,0.41,1.98,0.67c1.69,0.73,3.54,1.04,5.38,1.01c1.17-0.03,2.36-0.11,3.46-0.54
			c0.58-0.23,1.14-0.61,1.45-1.17c0.32-0.59,0.36-1.35,0.02-1.94c-0.28-0.51-0.78-0.84-1.3-1.08c-0.73-0.33-1.54-0.44-2.31-0.62
			c-3.17-0.69-6.37-1.24-9.49-2.14c-1.22-0.36-2.42-0.84-3.46-1.57c-0.46-0.33-0.9-0.79-0.97-1.37c-0.08-0.66,0.27-1.27,0.7-1.74
			C771.61,260.86,772.74,260.3,773.88,259.88z"/>
		<path class="st0" d="M656.65,259.48c0.09-0.23,0.26-0.46,0.53-0.48c0.33-0.03,0.67-0.01,1.01-0.01c0.61,0.01,1.22-0.02,1.83,0.01
			c0.38,0.04,0.51,0.43,0.65,0.72c1.9,3.93,3.8,7.86,5.71,11.79c1.88-3.88,3.75-7.75,5.63-11.63c0.13-0.25,0.22-0.53,0.42-0.74
			c0.16-0.16,0.4-0.16,0.61-0.16c1.48,0.01,2.96-0.01,4.44,0.01c0.28-0.01,0.5,0.22,0.6,0.46c1.95,4.02,3.89,8.04,5.84,12.06
			c1.94-4.03,3.9-8.06,5.85-12.09c0.1-0.25,0.34-0.45,0.63-0.43c0.87-0.01,1.75-0.01,2.62,0c0.41-0.02,0.75,0.44,0.61,0.83
			c-0.13,0.35-0.32,0.66-0.47,1c-2.09,4.32-4.18,8.64-6.26,12.96c-0.09,0.18-0.21,0.36-0.4,0.43c-0.17,0.06-0.35,0.04-0.53,0.05
			c-1.45-0.01-2.91,0.01-4.36-0.01c-0.33,0.01-0.53-0.28-0.64-0.55c-1.94-4.01-3.88-8.02-5.82-12.03
			c-1.95,4.04-3.89,8.08-5.84,12.12c-0.11,0.29-0.38,0.51-0.7,0.48c-1.53,0-3.06,0.01-4.59-0.01c-0.33,0.01-0.52-0.29-0.63-0.55
			c-1.19-2.48-2.4-4.95-3.59-7.42c-1.04-2.16-2.1-4.31-3.12-6.48V259.48z"/>
		<path class="st0" d="M728.85,259.03c0.14-0.05,0.29-0.04,0.43-0.04c0.99,0.01,1.99,0,2.99,0c0.36-0.01,0.65,0.34,0.63,0.68
			c0.01,4.18,0,8.37,0,12.56c-0.02,1.07-0.1,2.22-0.7,3.15c-0.55,0.83-1.32,1.48-2.03,2.17c-0.43,0.39-0.84,0.81-1.27,1.19
			c-0.27,0.24-0.71,0.21-0.95-0.06c-0.71-0.75-1.42-1.49-2.13-2.23c-0.24-0.25-0.23-0.68,0.02-0.92c0.54-0.53,1.1-1.04,1.64-1.57
			c0.65-0.65,0.97-1.58,0.97-2.49c0-3.93,0-7.86,0-11.79C728.44,259.41,728.6,259.14,728.85,259.03z"/>
		<g>
			<path class="st0" d="M730.38,248.81h0.6c1.13,0.1,2.17,0.88,2.59,1.93c0.36,0.87,0.3,1.9-0.17,2.72
				c-0.46,0.84-1.33,1.43-2.28,1.56c-0.92,0.14-1.89-0.17-2.56-0.8c-0.63-0.57-1-1.41-1-2.27c-0.01-0.73,0.24-1.45,0.71-2.01
				C728.78,249.3,729.56,248.89,730.38,248.81z"/>
		</g>
	</g>
</g>
<g>
	<rect x="35.97" y="238.86" class="st1" width="128.81" height="50"/>
	<g>
		<path class="st0" d="M53.35,253.63c0.67,0,1.35,0,2.02,0c0,2.75,0,5.51,0,8.26c1.94-2.74,3.85-5.51,5.78-8.26
			c0.82,0.01,1.64-0.02,2.46,0.02c-1.99,2.8-3.88,5.67-5.93,8.43c2.78,3.94,5.52,7.91,8.3,11.85c-0.82-0.01-1.64-0.01-2.46,0
			c-2.35-3.37-4.72-6.72-7.05-10.1c-0.37,0.52-0.74,1.03-1.09,1.56c-0.02,2.84,0,5.69-0.01,8.54c-0.67-0.01-1.34-0.01-2.02,0
			C53.35,267.16,53.35,260.4,53.35,253.63z"/>
		<path class="st0" d="M67.44,253.63c0.67,0,1.35,0.01,2.02,0c0,4.62,0,9.23,0,13.85c0.02,1.31,0.65,2.57,1.64,3.42
			c0.99,0.92,2.4,1.31,3.73,1.15c2.25-0.23,4.15-2.31,4.17-4.57c0.01-4.62,0-9.23,0-13.85c0.67,0.01,1.34,0,2.02,0
			c0,4.49,0,8.98,0,13.47c0.19,3.14-2.18,6.19-5.25,6.84c-1.71,0.35-3.57,0.13-5.07-0.8c-1.18-0.74-2.16-1.82-2.72-3.1
			c-0.36-0.83-0.54-1.74-0.54-2.65C67.44,262.8,67.45,258.21,67.44,253.63z"/>
		<g>
			<path class="st0" d="M84.8,253.62c2.13,0.01,4.26,0,6.4,0.01c1.15,0.01,2.27,0.51,3.06,1.35c0.85,0.84,1.29,2.04,1.24,3.23
				c-0.02,1.11-0.51,2.18-1.29,2.97c0.7,0.33,1.21,0.92,1.74,1.46c2.15,2.29,2.27,6.16,0.31,8.61c-1.12,1.46-2.83,2.46-4.66,2.66
				c-2.26,0.02-4.53-0.01-6.8,0.01C84.8,267.16,84.81,260.39,84.8,253.62z M86.81,255.61c0.01,1.58-0.01,3.17,0.01,4.75
				c1.46-0.01,2.93,0,4.39-0.01c0.62-0.04,1.28-0.23,1.68-0.73c0.81-0.9,0.75-2.42-0.12-3.25c-0.45-0.49-1.1-0.77-1.76-0.76
				C89.61,255.61,88.21,255.6,86.81,255.61z M86.82,262.37c0,3.18,0.01,6.35,0,9.53c1.37,0,2.74,0,4.11,0
				c2.21,0.04,4.25-1.73,4.6-3.89c0.25-1.39-0.12-2.9-1.07-3.96c-0.83-0.97-2.05-1.63-3.34-1.66
				C89.68,262.37,88.25,262.39,86.82,262.37z"/>
		</g>
		<path class="st0" d="M100.56,253.63c3.54,0,7.08,0.01,10.62,0c0.01,0.67,0,1.34,0.01,2.01c-2.87,0-5.74,0-8.61,0
			c0,2.38,0,4.76,0,7.14c2.87,0,5.74,0,8.61,0c0,0.67,0.02,1.34-0.01,2.02c-2.87,0.01-5.74-0.02-8.6,0.01c0.02,2.37,0,4.73,0.01,7.1
			c2.87,0,5.74,0,8.61,0c0,0.67,0,1.35,0,2.02c-3.54,0-7.09,0-10.63,0C100.56,267.16,100.55,260.39,100.56,253.63z"/>
		<path class="st0" d="M114.92,253.63c0.64,0,1.29,0,1.93,0c3.78,5.68,7.52,11.39,11.31,17.06c0.02-5.68,0-11.37,0.01-17.06
			c0.62,0,1.24,0,1.86,0c0,6.77,0,13.54,0,20.31c-0.73-0.01-1.45-0.02-2.18,0.01c-2.73-4.08-5.42-8.19-8.14-12.28
			c-0.98-1.45-1.92-2.94-2.91-4.38c0.01,5.55,0,11.1,0,16.65c-0.63,0-1.25-0.01-1.88,0C114.92,267.16,114.92,260.4,114.92,253.63z"
			/>
		<path class="st0" d="M133.52,253.63c4.42,0,8.84,0,13.26,0c-3.54,6.09-7.07,12.19-10.6,18.29c3.74-0.04,7.47,0,11.21-0.02
			c0,0.68,0,1.36,0,2.03c-4.88-0.02-9.77-0.01-14.66,0c3.53-6.1,7.04-12.2,10.56-18.3c-3.26,0.01-6.51,0-9.77,0
			C133.52,254.96,133.53,254.3,133.52,253.63z"/>
	</g>
</g>
</svg>
