<?xml version="1.0" encoding="utf-8"?>
<!-- Generator: Adobe Illustrator 27.0.0, SVG Export Plug-In . SVG Version: 6.00 Build 0)  -->
<svg version="1.1" id="Layer_1" xmlns="http://www.w3.org/2000/svg" xmlns:xlink="http://www.w3.org/1999/xlink" x="0px" y="0px"
	 viewBox="0 0 1651.76 50" style="enable-background:new 0 0 1651.76 50;" xml:space="preserve">
<style type="text/css">
	.st0{fill:#424143;}
	.st1{fill:none;}
	.st2{fill-rule:evenodd;clip-rule:evenodd;fill:#424143;}
</style>
<g>
	<path class="st0" d="M430.82,17.1c-4.29,2.04-8.61,3.35-13.11,1.79c-2.51-0.66-4.95-1.71-7.49-2.16c0.22-0.96,0.79-1.71,0.79-2.67
		c0-0.44-0.26-0.79-0.57-0.79c-3.01,0-5.98,0.93-8.95-0.3c-1.82-0.58-3.65-0.88-5.51-0.55c-4.62,1.22-1.47,8.86,1.59,2.95
		c0.92-1.32,2.28,1.24,1.75,2.55c-0.4,1.18-1.05,2.01-1.98,2.16c-0.97,0.15-1.96,0.15-2.94,0.15c-4.45,0.11-5.03,3.99-5.93,3.92
		c-0.9,0.07-1.49-3.81-5.93-3.92c-0.98,0-1.97,0-2.94-0.15c-0.93-0.15-1.59-0.98-1.98-2.16c-0.54-1.31,0.83-3.88,1.75-2.55
		c3.06,5.91,6.21-1.73,1.59-2.95c-1.86-0.33-3.69-0.03-5.51,0.55c-2.97,1.23-5.94,0.3-8.95,0.3c-0.31,0-0.57,0.35-0.57,0.79
		c0,0.96,0.57,1.71,0.79,2.67c-2.54,0.44-4.98,1.5-7.49,2.16c-4.5,1.55-8.81,0.24-13.11-1.79c-0.1-0.05-0.19,0.09-0.15,0.23
		c1.56,4.98,6.48,5.69,10.74,5.39c2.31-0.17,4.6-0.68,6.84-1.48c2.07-0.73,3.94-1.27,0.41,1.19c-4.07,2.38-8.51,2.06-12.82,2.14
		c-0.21,0.01-0.42,0.02-0.64,0.04c-0.26,0.02-0.42,0.44-0.28,0.74c0.16,0.34,0.38,0.53,0.76,0.68c1.43,0.55,2.86,0.8,4.31,0.91
		c2.59,0.2,5.18-0.12,7.74-0.8c1.31-0.31,2.55-1.16,3.87-1.41c0.19,0.81,0.05,1.3-0.46,1.7c-2.37,1.88-4.92,2.51-7.6,2.37
		c-0.28,0-0.55-0.03-0.82-0.04c-0.44,0-0.63,0.82-0.27,1.17c0.07,0.06,0.15,0.12,0.25,0.16c0.14,0.06,0.27,0.11,0.41,0.15
		c1.04,0.35,2.11,0.49,3.18,0.45c3.05-0.11,5.55-1.1,8.43-3.28c2.39-1.81,1.54,0.59,0.14,1.64c-6.3,3.96-0.42,3.89,2.37,1.79
		c1.59-1.19,2.36-2.89,3.84-3.51c0.19-0.08,0.36,0.14,0.35,0.41c-0.06,1.24-0.81,2.08-1.12,3.18c-0.11,0.41,0.07,0.88,0.38,0.94
		c1.84,0.39,3.1-1.89,4.36-3.56c4.46-5.64,7.48,3.83,7.85,9.21v0.01c0.05,0.18,0.16,0.26,0.27,0.25c0.11,0.01,0.23-0.07,0.27-0.25
		v-0.01c0.37-5.38,3.38-14.85,7.85-9.21c1.26,1.66,2.52,3.94,4.36,3.56c0.31-0.06,0.49-0.53,0.38-0.94
		c-0.31-1.1-1.05-1.95-1.12-3.18c-0.01-0.27,0.16-0.49,0.35-0.41c1.49,0.62,2.26,2.32,3.84,3.51c2.79,2.1,8.67,2.17,2.37-1.79
		c-1.4-1.05-2.25-3.45,0.14-1.64c2.88,2.18,5.38,3.17,8.43,3.28c1.07,0.04,2.14-0.1,3.18-0.45c0.14-0.05,0.27-0.1,0.41-0.15
		c0.1-0.04,0.18-0.1,0.25-0.16c0.37-0.35,0.18-1.18-0.27-1.17c-0.27,0-0.54,0.04-0.82,0.04c-2.68,0.14-5.23-0.49-7.6-2.37
		c-0.51-0.4-0.64-0.89-0.46-1.7c1.32,0.25,2.56,1.1,3.87,1.41c2.55,0.68,5.14,1,7.74,0.8c1.44-0.11,2.87-0.36,4.31-0.91
		c0.38-0.15,0.6-0.34,0.76-0.68c0.15-0.31-0.01-0.72-0.28-0.74c-0.22-0.02-0.43-0.03-0.64-0.04c-4.31-0.08-8.75,0.23-12.82-2.14
		c-3.53-2.46-1.66-1.92,0.41-1.19c2.24,0.8,4.53,1.31,6.84,1.48c4.27,0.31,9.18-0.41,10.74-5.39
		C431.01,17.2,430.92,17.05,430.82,17.1z"/>
	<rect x="334.26" y="0.05" class="st1" width="108.39" height="50"/>
</g>
<g>
	<rect x="1499.23" y="0.05" class="st1" width="136.63" height="50"/>
	<g>
		<path class="st0" d="M1585.16,29.53c-0.06,0.03-0.12,0.06-0.18,0.1C1585.05,29.63,1585.11,29.6,1585.16,29.53z"/>
		<path class="st0" d="M1582.2,31.2c-0.06,0.03-0.12,0.06-0.18,0.09C1582.1,31.29,1582.16,31.26,1582.2,31.2z"/>
		<path class="st0" d="M1557.93,31.71c-0.06,0.03-0.12,0.05-0.18,0.08C1557.82,31.81,1557.88,31.78,1557.93,31.71z"/>
		<path class="st0" d="M1521.39,16.29c-0.01-0.01-0.01-0.01-0.02-0.02C1521.37,16.28,1521.38,16.29,1521.39,16.29z"/>
		<path class="st0" d="M1523.23,15.33c-0.55-2.49-1.18-4.96-2.11-7.35c-0.08-0.14-0.16-0.27-0.24-0.41
			c-0.33-0.58-0.66-1.17-1.13-1.66c-0.18-0.19-0.34-0.39-0.56-0.52c-0.31-0.19-0.57-0.07-0.59,0.26c0,0.02,0,0.05,0,0.07
			c0.02,0.29,0.08,0.58,0.15,0.87c0.03,0.13,0.07,0.25,0.1,0.38c0.1,0.39,0.29,0.75,0.33,1.16c0.01,0.06,0.01,0.13,0.01,0.2
			c0.04,0.06,0.05,0.13,0.02,0.2c0.2,0.72,0.15,1.44,0,2.16l0,0c0.03,0.03,0.03,0.06-0.01,0.09c0,0.14-0.01,0.28-0.02,0.42
			c-0.07,0.68-0.28,1.34-0.48,1.99c-0.02,0.06-0.03,0.11-0.05,0.17c-0.12,0.39-0.19,0.81-0.46,1.15l0,0
			c-0.03,0.11-0.06,0.22-0.1,0.33c-0.18,0.57-0.43,1.12-0.69,1.66c-0.08,0.15-0.15,0.3-0.23,0.45l0,0l0,0l0,0l0,0
			c-0.03,0.1-0.06,0.19-0.09,0.29c-0.16,0.43-0.39,0.83-0.57,1.26c-0.09,0.21-0.18,0.42-0.26,0.63c-0.05,0.02-0.08,0.05-0.06,0.11
			c-0.19,0.25-0.26,0.56-0.44,0.81c-0.03,0.04-0.06,0.08-0.1,0.12c-0.03,0.07-0.06,0.14-0.09,0.2c-0.11,0.26-0.23,0.52-0.34,0.79
			c-0.02,0-0.03,0.01-0.05,0.01s-0.03,0.01-0.05,0.01h-0.01c0,0,0,0-0.01,0v0.01c0,0.02,0.01,0.04,0.01,0.06
			c0,0.01,0.01,0.02,0.01,0.04l0,0l0,0c-0.55,0.89-0.97,1.84-1.43,2.77c-0.09,0.18-0.14,0.39-0.25,0.56
			c-0.03,0.06-0.86,2.28-0.92,2.41c-0.03,0.06-0.19,0.7-0.24,0.87c-0.04,0.11-0.15,0.77-0.16,0.93c0,0-0.1,0.49-0.11,0.59
			c-0.06,0.4-0.09,0.81-0.09,1.21c0,0.49,0.28,2.51,0.29,2.53c0,0,0.04,0.32,0.05,0.43c0.03,0.28,0.74,2.9,0.81,3.11
			c0.35,1.22,0.81,2.39,1.45,3.49c0.42,0.99,1.01,1.88,1.69,2.71c0.46,0.56,0.94,1.11,1.55,1.53c0.4,0.27,0.81,0.49,1.32,0.32
			c0.07,0.03,0.11-0.01,0.14-0.07l0,0c0.12-0.01,0.19-0.08,0.27-0.15c0.4-0.36,0.41-0.43-0.01-0.78c-0.33-0.27-0.67-0.52-1.02-0.77
			c-0.52-0.38-1-0.8-1.38-1.33c-1.12-1.57-2.45-5.76-2.44-5.8c-0.03-0.06-0.26-0.99-0.27-1.42c0,0-0.11-1.15-0.15-1.72
			c-0.27-3.78,0.52-7.35,2.15-10.75c0.05-0.11,0.09-0.24,0.13-0.36c0.02-0.03,0.04-0.06,0.06-0.09c0.5-0.78,0.79-1.66,1.11-2.53
			c0.37-1,0.76-1.99,1.24-2.95c0.11-0.22,0.24-0.42,0.36-0.64c0.01-0.02,0.03-0.05,0.04-0.07c0.07,0.03,0.11,0.06,0.14,0.09
			c0.08,0.1,0.03,0.21,0.02,0.31c-0.05,0.55-0.17,1.08-0.32,1.6c-0.07,0.24-0.14,0.47-0.21,0.7c-0.02,0.06-0.04,0.12-0.06,0.18
			c-0.16,0.52-0.33,1.03-0.49,1.54c-0.04,0.13-0.09,0.27-0.13,0.4l0,0c-0.62,1.35-1.02,2.79-1.53,4.19c-0.58,1.58-1.1,3.17-1.5,4.81
			c-0.26,1.06-0.4,2.13-0.53,3.21l0,0l0,0c0,0.06,0,0.12,0,0.19c0.01,0.23-0.19,2.11,0.23,3.27c0.59,1.09,1.24,1.2,2.17,0.38
			c0.03-0.03,0.04-0.07,0.07-0.11l0,0c0.24-0.11,0.39-0.32,0.56-0.51c1.24-1.39,2.28-2.93,3.27-4.5c0.61-0.96,1.14-1.96,1.56-3.01
			c1.28-3.13,1.44-6.38,1.08-9.7C1523.61,17.34,1523.45,16.33,1523.23,15.33z M1516.49,21.43L1516.49,21.43
			C1516.5,21.43,1516.5,21.43,1516.49,21.43L1516.49,21.43z M1519.09,18.6c-0.01,0-0.01,0-0.02,0.01V18.6
			C1519.08,18.59,1519.08,18.6,1519.09,18.6z M1519.33,33.1c0-0.01,0.01-0.01,0.01-0.01C1519.34,33.09,1519.34,33.1,1519.33,33.1z
			 M1521.01,24.11c-0.25,1.09-0.7,2.1-1.12,3.13c-0.75,1.86-1.55,3.7-2.47,5.48c-0.3,0.57-0.63,1.11-1.01,1.63
			c-0.14,0.18-0.26,0.41-0.56,0.31c-0.04-0.17-0.07-0.34-0.08-0.51c-0.03-0.36,0-0.72,0.04-1.08c0.26-2.02,0.91-3.94,1.49-5.88
			c1.07-3.6,2.47-7.08,3.68-10.63c0-0.18,0-0.37,0.14-0.51l0,0l0,0l0,0c0-0.01,0-0.03,0-0.04c-0.01-0.15,0.04-0.29,0.15-0.4
			c0.15,0.22,0.16,0.46,0.13,0.71c0.04,0.29,0.11,0.59,0.13,0.88C1521.65,19.51,1521.54,21.82,1521.01,24.11z"/>
		<path class="st0" d="M1622.63,27.64c-0.29,0.11-0.6,0.21-0.83,0.44l0,0c-0.33,0.17-0.67,0.34-1,0.5
			c-0.55,0.11-1.09,0.34-1.68,0.22c-0.83-0.16-1.58-0.45-2.15-1.09c-0.04-0.05-0.08-0.09-0.12-0.15c-0.01-0.06-0.02-0.11-0.04-0.17
			c-0.05-0.23-0.08-0.47,0.07-0.69c0.27-0.4,0.12-0.71-0.18-1.02c-0.27-0.28-0.53-0.56-0.94-0.62c-0.27-0.04-0.47-0.19-0.65-0.38
			c-0.41-0.44-0.92-0.57-1.47-0.43c-0.02,0-0.03,0.01-0.05,0.01c-0.12,0.03-0.24,0.07-0.36,0.1c-0.68,0.2-1.35,0.41-2.03,0.63
			c-0.02,0.01-0.05,0.02-0.07,0.03c-0.13,0.06-0.25,0.15-0.37,0.22l0,0c-0.87,0.4-1.61,1.02-2.19,1.73
			c-1.14,1.42-2.71,2.09-4.29,2.77c-0.16,0.07-0.33,0.1-0.45,0.23c-0.41,0.06-0.73,0.34-1.12,0.47c-0.07,0.03-0.14,0.05-0.22,0.07
			c-0.71,0.22-1.42,0.28-2.13-0.1l0,0c-0.04-0.01-0.07-0.02-0.1-0.03c-0.05-0.02-0.1-0.05-0.15-0.08c-0.21-0.14-0.3-0.39-0.4-0.63
			c-0.02-0.05-0.04-0.09-0.06-0.14c-0.01-0.02-0.01-0.03-0.02-0.05c-0.09-0.26-0.17-0.52-0.23-0.78c-0.01-0.04-0.02-0.08-0.03-0.11
			c0-0.01,0-0.01,0-0.02c-0.06-0.28-0.07-0.53-0.04-0.74c0.07-0.47,0.37-0.82,0.94-1.15c0,0,0.01,0,0.01-0.01
			c0.08-0.05,0.16-0.09,0.24-0.14c0.01-0.01,0.02-0.01,0.03-0.02c0.37-0.25,0.55-0.51,0.55-0.83c0-0.08-0.01-0.16-0.03-0.25
			c-0.02-0.11-0.07-0.23-0.12-0.35c-0.14-0.32-0.31-0.57-0.5-0.75c-0.2-0.19-0.42-0.3-0.66-0.33c-0.15-0.02-0.3,0-0.45,0.04
			c-0.2,0.06-0.4,0.16-0.59,0.24c-0.01,0-0.02,0.01-0.03,0.01c-0.09,0.04-0.18,0.07-0.27,0.11c-0.5,0.43-1.04,0.82-1.45,1.34
			c-0.46,0.58-1.02,1.05-1.6,1.49c-0.03,0.02-0.06,0.04-0.09,0.07c-0.22,0.17-0.43,0.34-0.65,0.51l0,0
			c-0.56,0.34-1.11,0.69-1.67,1.03c-0.25,0.15-0.5,0.33-0.83,0.26c-0.04-0.13-0.05-0.25-0.05-0.37c0.01-0.25,0.09-0.48,0.25-0.71
			c0.14-0.21,0.25-0.44,0.38-0.66c0.24-0.42,0.18-0.81-0.13-1.17c-0.09-0.1-0.16-0.21-0.26-0.29c-0.06-0.05-0.12-0.09-0.2-0.12
			c-0.22-0.24-0.49-0.41-0.78-0.53c-0.47-0.2-0.92-0.14-1.34,0.13c-0.97,0.62-1.93,1.24-2.9,1.85c-0.07-0.01-0.11,0.02-0.13,0.08
			c-0.05-0.01-0.08,0-0.11,0.04c-0.01,0.01-0.03,0.01-0.04,0.02c-1.09,0.43-2.14,0.96-3.17,1.52c-0.17,0.09-0.33,0.2-0.46,0.34
			c-0.32,0.35-0.72,0.49-1.18,0.57c-0.57,0.09-1.11,0.27-1.6,0.58l0,0l0,0c-0.2,0.01-0.35,0.12-0.52,0.21
			c-0.06-0.02-0.09,0-0.11,0.05c-0.1-0.01-0.2,0.01-0.28,0.08c-0.05-0.03-0.09,0-0.11,0.04c-0.15,0-0.29,0.02-0.42,0.1
			c-0.04-0.04-0.08-0.02-0.1,0.02c-0.23,0-0.47,0.03-0.7,0.01c-0.93-0.11-1.71-0.46-2.13-1.37l0,0c-0.07-0.17-0.11-0.3-0.14-0.4
			c-0.06-0.27,0.04-0.38,0.39-0.6c0.38-0.24,0.79-0.42,1.18-0.63l0,0l0,0c0.06,0.01,0.1-0.01,0.13-0.07
			c0.04-0.02,0.08-0.03,0.12-0.05c0.07,0.01,0.11-0.02,0.15-0.08c0.04,0.01,0.07,0,0.1-0.04c0.01,0,0.02-0.01,0.03-0.01
			c0.41-0.15,0.68-0.51,1.06-0.69c0.06-0.03,0.11-0.05,0.17-0.07l0.01-0.01c0.02-0.03,0.05-0.05,0.08-0.08
			c0.09-0.08,0.19-0.13,0.32-0.15l0,0c0.09-0.08,0.18-0.16,0.26-0.24l0,0c0.12,0,0.2-0.07,0.26-0.16l0,0c0.07,0,0.11-0.03,0.12-0.1
			l0,0c0.82-0.55,0.98-1.39,0.97-2.28c0-0.02,0-0.05,0-0.07c-0.02-0.33-0.18-0.53-0.45-0.65c-0.09-0.04-0.18-0.07-0.29-0.09
			c-0.32-0.07-0.63-0.07-0.94-0.04c-0.19,0.02-0.38,0.04-0.57,0.06c-0.85,0.41-1.59,0.98-2.39,1.48c-0.85,0.53-1.52,1.23-2.07,2.06
			c-0.16,0.25-0.34,0.49-0.5,0.74c-0.37,0.56-0.85,1.01-1.43,1.34c-0.26,0.15-0.52,0.3-0.76,0.47c-0.34,0.23-0.72,0.39-1.12,0.45
			c-0.77,0.11-1.51,0.28-2.13,0.77l0,0l0,0c-0.53-0.05-1.06-0.07-1.59,0.04c-0.56,0.12-0.99-0.1-1.32-0.56
			c-0.32-0.43-0.28-0.87-0.06-1.32c0.21-0.43,0.49-0.8,0.93-1.01c0.16-0.07,0.3-0.16,0.39-0.32c0.27-0.48,0.58-0.94,0.91-1.38
			c0.38-0.51,0.06-1.05-0.59-1.1c-0.72-0.05-1.35,0.12-1.86,0.65c-0.01,0.03-0.02,0.06-0.03,0.09c-0.03,0.08-0.08,0.16-0.15,0.22
			c-0.03,0.03-0.06,0.05-0.09,0.07l0,0c-0.05,0.09-0.1,0.17-0.16,0.26c-0.14,0.2-0.3,0.38-0.5,0.51c-0.03,0.02-0.06,0.04-0.09,0.05
			l0,0c-0.45,0.45-0.98,0.82-1.36,1.34l0,0c-0.26,0.15-0.51,0.3-0.77,0.45c-1.48,0.8-3.08,1.32-4.59,2.05
			c-0.31,0.15-0.65,0.2-0.99,0.22c-0.51,0.04-1.02,0.04-1.53-0.01c-0.4-0.21-0.47-0.54-0.42-0.96c0.09-0.72,0.4-1.34,0.82-1.91
			c0.23-0.31,0.45-0.62,0.67-0.94c0.2-0.31,0.21-0.63,0.07-0.97c-0.45-1.14-1.82-1.58-2.79-0.84c-0.61,0.47-1.21,0.93-2,1.06
			c-0.14,0.02-0.26,0.13-0.39,0.2l0,0c-0.99,0.38-1.88,0.96-2.81,1.46c-0.18,0.06-0.36,0.13-0.55,0.17c-0.4,0.09-0.57-0.11-0.44-0.5
			c0.08-0.24,0.21-0.47,0.31-0.7c0.17-0.4,0.1-0.72-0.22-1.04c-0.85-0.85-1.97-1.05-3.03-0.51c-0.21,0.11-0.41,0.23-0.61,0.34l0,0
			c-0.27,0.04-0.55,0.11-0.82,0.12c-0.6,0.02-1.12,0.23-1.6,0.58c-0.36,0.27-0.71,0.55-1.08,0.81c-0.72,0.5-1.48,0.93-2.38,1.02
			c-0.52,0.06-0.73-0.13-0.65-0.65c0.05-0.31,0.17-0.62,0.25-0.93c0.13-0.55-0.03-0.91-0.54-1.15c-0.25-0.12-0.52-0.19-0.78-0.27
			c-0.16-0.05-0.36-0.07-0.48-0.17c-0.42-0.35-0.87-0.28-1.34-0.15c-0.43,0.12-0.84,0.32-1.2,0.59c-0.07-0.01-0.11,0.02-0.13,0.09
			l0,0c-0.08,0-0.14,0.04-0.18,0.12l0,0c-0.04-0.01-0.06,0-0.08,0.04c-0.04,0.03-0.09,0.07-0.13,0.1l0,0
			c0.04-0.03,0.09-0.06,0.13-0.1c-0.07-0.01-0.12,0.02-0.14,0.09c-0.1,0-0.18,0.06-0.22,0.15l0,0l-0.02,0.01
			c-1.4,0.94-2.66,2.06-4.12,2.92c-0.24,0.14-0.37,0.36-0.29,0.64c0.06,0.24,0.33,0.36,0.69,0.31c0.41-0.06,0.76-0.28,1.1-0.49
			c0.47-0.3,0.94-0.59,1.48-0.75c0.57-0.18,1.02-0.51,1.4-0.95c0.08-0.01,0.14-0.05,0.17-0.13l0,0l0,0
			c0.04,0.01,0.07-0.01,0.08-0.05c0.07,0.01,0.11-0.03,0.13-0.09c0.11,0,0.19-0.05,0.26-0.13c0.04-0.01,0.08-0.02,0.12-0.03
			c0.18,0.01,0.35,0,0.51-0.07c0.01-0.01,0.03-0.01,0.04-0.02c0.87,0.12,0.94,0.21,0.75,1.07c-0.2,0.91-0.47,1.77-1.21,2.41
			c-0.38,0.33-0.34,0.65,0.04,0.98c0.23,0.19,0.49,0.34,0.74,0.5c0.35,0.21,0.69,0.16,1.01-0.09c0.31-0.24,0.57-0.52,0.84-0.79
			c0.97-1.02,2.18-1.64,3.54-1.95c0.63-0.14,1.23-0.34,1.76-0.74c0.36-0.27,0.76-0.49,1.2-0.58c0.45-0.09,0.88,0.04,1.15,0.4
			c0.28,0.36,0.14,0.78-0.06,1.15c-0.11,0.2-0.3,0.36-0.45,0.54c-0.19,0.21-0.4,0.39-0.56,0.62c-0.29,0.39-0.25,0.73,0.1,1.09
			c0.26,0.26,0.57,0.45,0.89,0.63c0.47,0.26,0.92,0.18,1.27-0.24c0.18-0.21,0.3-0.46,0.45-0.7c0.2-0.33,0.41-0.65,0.75-0.86
			c1.15-0.71,2.35-1.32,3.57-1.9c0.73-0.35,1.59-0.42,2.36-0.73c0.63-0.25,0.88,0.09,0.65,0.73c-0.04,0.12-0.11,0.23-0.14,0.36
			c-0.22,0.73-0.21,1.43,0.23,2.08c0.04,0.05,0.08,0.09,0.1,0.15c-0.03-0.05-0.07-0.1-0.1-0.15c0,0.08,0.03,0.13,0.1,0.15
			c0.01,0.11,0.08,0.18,0.17,0.23c0,0.07,0.03,0.11,0.1,0.11l0.01,0.01c0.01,0.07,0.05,0.11,0.12,0.11l0.02,0.02
			c0.01,0.06,0.04,0.09,0.1,0.09l0,0l0,0l0,0l0,0c0.02,0.05,0.05,0.07,0.1,0.06c0.07,0.02,0.12,0.06,0.17,0.11
			c-0.06-0.04-0.11-0.07-0.17-0.11c0.03,0.07,0.09,0.11,0.17,0.11l0,0l0.01,0.01c0.01,0.05,0.05,0.08,0.1,0.07
			c0.07,0.07,0.15,0.09,0.24,0.08c0.07,0.09,0.17,0.12,0.28,0.09c0.31,0.07,0.62,0.07,0.92-0.02c0.52-0.06,1.06,0.14,1.57-0.06l0,0
			c0.07,0.03,0.14,0.02,0.21-0.02c0.16,0.02,0.31,0.01,0.43-0.1l0,0c0.08,0.02,0.15,0,0.21-0.05c0.06-0.03,0.11-0.08,0.18-0.08
			c0.07-0.02,0.13-0.03,0.2-0.05c0.28-0.03,0.52-0.18,0.76-0.31c1.28-0.63,2.56-1.27,3.83-1.91c0.45-0.22,0.54-0.19,0.68,0.28
			c0.1,0.32,0.16,0.66,0.22,1c0.05,0.29,0.17,0.53,0.4,0.7c1.04,0.77,2.16,1.2,3.47,0.73c0.6-0.22,1.21-0.42,1.84-0.55
			c0.31-0.07,0.63-0.11,0.91-0.28l0,0c0.08,0.02,0.16,0,0.22-0.06c0.08,0.02,0.12-0.02,0.14-0.09c0.04-0.02,0.08-0.04,0.12-0.06
			c0.06,0.01,0.1-0.02,0.12-0.08c0.12-0.01,0.2-0.09,0.27-0.18c0.06,0.01,0.09-0.03,0.1-0.08l0,0l0,0l0.01-0.01
			c0.07,0,0.12-0.04,0.14-0.11c0.24-0.1,0.43-0.26,0.63-0.41c0.05-0.04,0.09-0.08,0.15-0.1c-0.05,0.03-0.1,0.07-0.15,0.1
			c0.07,0,0.12-0.03,0.15-0.1c0.05,0.01,0.08,0,0.11-0.04c0.05-0.03,0.1-0.06,0.15-0.08c-0.05,0.03-0.1,0.05-0.15,0.08
			c0.07,0.01,0.12-0.02,0.15-0.08l0,0c0.37-0.17,0.54,0.09,0.71,0.34c0.47,0.71,1.11,1.15,1.94,1.36c0.39,0.1,0.77,0.24,1.16,0.36
			c0.05,0.03,0.1,0.06,0.14,0.09l0,0c-0.05-0.03-0.1-0.06-0.14-0.09c0.03,0.07,0.07,0.1,0.14,0.09c0.02,0.04,0.06,0.06,0.1,0.04
			c0.05,0.02,0.1,0.05,0.15,0.08c-0.05-0.03-0.1-0.06-0.15-0.08c0.03,0.06,0.08,0.1,0.15,0.08l0,0c0.04,0.01,0.08,0.03,0.12,0.04
			c0.07,0.09,0.15,0.12,0.26,0.1c0.08,0.01,0.15,0.02,0.23,0.03l0,0c0.27,0.14,0.55,0.13,0.82,0l0,0c0.09,0.02,0.17,0.01,0.25-0.04
			c0.11,0.03,0.22,0.01,0.3-0.08l0,0l0.04,0.02l0.03-0.03c0.04-0.01,0.09-0.01,0.13-0.02l0,0l0,0c0.05-0.01,0.09-0.02,0.14-0.03
			c0.11,0.02,0.19-0.01,0.27-0.09l0,0c0.09,0.01,0.18,0,0.25-0.06c0.07,0.02,0.13,0,0.17-0.06c-0.03,0.01-0.07,0.02-0.1,0.04
			c0.03-0.02,0.06-0.04,0.1-0.04c0.08,0.02,0.15,0.01,0.21-0.05c0.1,0.01,0.19-0.02,0.26-0.09l0,0c0.04-0.01,0.08-0.02,0.12-0.03
			c0.11,0.02,0.19-0.02,0.26-0.1c0.1,0.01,0.18-0.01,0.26-0.07l0,0c0.06,0.02,0.1-0.01,0.13-0.06c0.04-0.01,0.08-0.02,0.12-0.04
			c0.1,0.02,0.19-0.01,0.26-0.09l0,0c0.04-0.01,0.09-0.03,0.13-0.04c0.05-0.03,0.1-0.05,0.16-0.08c-0.05,0.03-0.1,0.05-0.16,0.08
			c0.07,0.01,0.12-0.02,0.16-0.08l0,0h0.06l0.04-0.04c0.11,0.01,0.2-0.01,0.27-0.1l0,0h0.06l0.05-0.04
			c0.06-0.03,0.11-0.08,0.18-0.09l0,0l0.05,0.01l0.03-0.03c0.11,0.01,0.19-0.03,0.26-0.12l0,0c0.05-0.02,0.09-0.03,0.14-0.05
			c0.07,0.01,0.11-0.01,0.14-0.07l0,0c0.04-0.02,0.08-0.03,0.12-0.05c0.07,0.01,0.11-0.02,0.13-0.08l0,0l0,0
			c0.04-0.02,0.09-0.04,0.13-0.06l0,0l0,0c0.06,0.01,0.1-0.02,0.12-0.07c0.12,0,0.19-0.07,0.26-0.16c0.07,0,0.12-0.03,0.14-0.1
			c0.04-0.02,0.08-0.05,0.13-0.07c0.06,0.01,0.08-0.02,0.09-0.07l0.02-0.01c0.07,0,0.12-0.04,0.14-0.1
			c0.11-0.01,0.19-0.07,0.26-0.16c0.07,0.01,0.11-0.03,0.14-0.09l0,0c0.04-0.02,0.08-0.05,0.12-0.07l0,0l0,0
			c0.05,0.01,0.08-0.02,0.1-0.07c0.12,0,0.2-0.06,0.28-0.14c0.06-0.04,0.11-0.09,0.18-0.1l0.04,0.01l0.03-0.03
			c0.11,0.01,0.2-0.03,0.27-0.12c0.04-0.01,0.08-0.02,0.12-0.03l0,0c0.11,0.02,0.2-0.01,0.28-0.09l0,0h0.06l0.04-0.04
			c0.05-0.03,0.1-0.08,0.16-0.09c-0.05,0.03-0.11,0.06-0.16,0.09c0.07,0.01,0.13-0.03,0.16-0.09l0,0c0.05,0.01,0.08,0,0.1-0.05
			c0.07,0.01,0.11-0.03,0.13-0.09c0.4-0.27,0.92-0.24,1.33-0.5l0,0c0.07-0.02,0.14-0.04,0.21-0.06l0,0l0,0
			c0.07,0.02,0.12-0.01,0.15-0.08l0,0c0.05,0.01,0.09,0,0.11-0.04c0.07,0.01,0.13-0.02,0.17-0.08l0,0c0.63-0.04,0.89,0.43,1.13,0.88
			c0.21,0.4-0.19,0.61-0.37,0.87c-0.13,0.19-0.32,0.34-0.46,0.53c-0.44,0.6-0.25,1.2,0.46,1.47c0.29,0.11,0.58,0.13,0.88,0.12
			c1.02-0.04,1.91-0.4,2.67-1.08c0.47-0.43,0.94-0.87,1.52-1.16c0.56-0.27,1.08-0.6,1.61-0.92c0.33-0.2,0.65-0.4,1-0.58
			c0.42-0.21,0.5-0.16,0.61,0.29c0.03,0.1,0.02,0.21,0.03,0.32c0.08,0.11,0.1,0.24,0.09,0.36c-0.05,0.76,0.3,1.36,0.78,1.9
			c0.88,0.98,1.91,1.47,3.25,1.05c0.56-0.17,1.09-0.37,1.56-0.71c0.23-0.17,0.47-0.32,0.75-0.33c0.63-0.02,1.13-0.34,1.63-0.67
			c0.23-0.15,0.47-0.3,0.7-0.44c0.1-0.06,0.24-0.17,0.33-0.03c0.06,0.1,0,0.25-0.12,0.34l0,0c-0.04,0.56,0.21,0.97,0.65,1.3
			c0.7,0.55,1.45,0.87,2.36,0.58c0.22-0.07,0.46-0.09,0.69-0.1c0.59-0.04,1.11-0.24,1.56-0.63c0.11-0.05,0.21-0.11,0.31-0.18
			c0.27-0.18,0.53-0.38,0.82-0.54c0.08-0.04,0.16-0.08,0.25-0.12c0.02-0.01,0.03-0.01,0.05-0.02c0.62-0.22,1.12-0.56,1.5-1.13
			c0.04-0.06,0.08-0.12,0.12-0.17c0.15-0.19,0.3-0.3,0.48-0.32c0.19-0.03,0.42,0.03,0.72,0.15c0.79,0.33,1.6,0.58,2.45,0.73
			c0.89,0.15,1.74,0.05,2.55-0.34c-0.01-0.01-0.01-0.01-0.02-0.02c0,0,0,0,0.01,0l0,0l0,0l0.01,0.02c0.48-0.1,0.92-0.3,1.29-0.62
			c0.32-0.15,0.58-0.36,0.75-0.68l0,0c0.09-0.07,0.14-0.16,0.16-0.27C1623.23,27.63,1623.06,27.47,1622.63,27.64z M1579.96,25.66
			L1579.96,25.66L1579.96,25.66L1579.96,25.66L1579.96,25.66z M1576.92,26.41c0.37-0.45,0.83-0.79,1.26-1.18l0,0l0,0
			c0.06,0.01,0.1-0.03,0.12-0.08c0.13-0.06,0.26-0.12,0.4-0.19l0,0l0,0c0.06,0.02,0.11-0.01,0.13-0.07c0.2,0,0.41,0,0.61,0l0,0
			c0.01,0.02,0.02,0.03,0.04,0.05c0,0,0,0,0,0.01c0.01,0.02,0.03,0.04,0.04,0.05c-0.71,0.86-1.63,1.41-2.65,1.81
			C1576.69,26.63,1576.83,26.52,1576.92,26.41z M1570.84,30.85c0.05-0.04,0.1-0.08,0.15-0.12
			C1570.95,30.78,1570.9,30.82,1570.84,30.85z M1571.31,30.72c0.02-0.01,0.04-0.03,0.06-0.04
			C1571.35,30.69,1571.33,30.7,1571.31,30.72z M1584.08,30.16L1584.08,30.16L1584.08,30.16L1584.08,30.16z M1588.21,28.31
			c0.05-0.02,0.09-0.06,0.14-0.07C1588.31,28.27,1588.26,28.29,1588.21,28.31z M1613.36,28.6c-0.71,0.32-1.19,0.88-1.7,1.42
			c-0.39,0.42-0.85,0.71-1.46,0.67c-0.11-0.01-0.21-0.01-0.32-0.02c-0.82-0.13-1.01-0.5-0.61-1.23c0.02-0.04,0.05-0.07,0.06-0.11
			c0.27-1.12,1.04-1.86,1.9-2.54c0.34-0.27,0.66-0.54,1.12-0.57c0.2-0.01,0.34,0.04,0.31,0.28c-0.07,0.68,0.17,1.19,0.75,1.57
			C1613.7,28.27,1613.69,28.45,1613.36,28.6z M1614.81,26.8c-0.2-0.02-0.4-0.1-0.4-0.33c0-0.21,0.16-0.29,0.36-0.26
			s0.37,0.11,0.37,0.36C1615.1,26.75,1614.98,26.82,1614.81,26.8z M1616.56,29.26c0-0.01,0-0.01,0.01-0.02
			c0,0.01,0.01,0.01,0.01,0.02C1616.57,29.26,1616.56,29.26,1616.56,29.26z M1616.8,26.37c0-0.1-0.01-0.19-0.03-0.28
			C1616.83,26.19,1616.84,26.26,1616.8,26.37z"/>
		<path class="st0" d="M1570.34,19.89c0.71-0.14,1.03-0.73,0.71-1.37c-0.12-0.25-0.24-0.5-0.27-0.78c-0.03-0.3-0.06-0.6-0.08-0.89
			c-0.04-0.65-0.37-1.12-0.86-1.51c-0.19-0.15-0.4-0.22-0.58-0.06c-0.7,0.6-1.22,1.31-1.29,2.27c-0.01,0.54,0.18,1.02,0.46,1.46
			C1568.84,19.67,1569.64,20.03,1570.34,19.89z"/>
	</g>
</g>
<g>
	<rect x="1257.55" y="0.05" class="st1" width="50" height="50"/>
	<g>
		<path class="st0" d="M1282.55,6.99c-0.68,0-1.36,0.04-2.04,0.13v18.04h4.07v-1.74h11.92c0.07,0.54,0.11,1.08,0.11,1.62
			c0,6.42-4.35,12.02-10.56,13.62v4.1c8.45-1.68,14.54-9.09,14.55-17.71C1300.61,15.07,1292.53,6.99,1282.55,6.99z M1284.59,19.22
			v-8.08c4.72,0.7,8.77,3.73,10.75,8.08H1284.59z"/>
		<path class="st0" d="M1276.33,26.68h8.26v16.31c-0.68,0.08-1.36,0.12-2.04,0.13c-9.98,0-18.06-8.08-18.06-18.06
			c0-8.6,6.05-16,14.48-17.7l0,0v4.1c-6.18,1.62-10.49,7.21-10.49,13.6c0.01,6.98,5.13,12.89,12.03,13.91V30.9h-4.18L1276.33,26.68
			L1276.33,26.68z"/>
	</g>
</g>
<g>
	<rect x="1322.92" y="0.05" class="st1" width="160.94" height="50"/>
	<g>
		<path class="st2" d="M1334.22,14.8h14.74c0.01,0.75,0.01,1.49,0,2.24c-0.25-0.52-0.99-0.95-1.54-0.94
			c-3.15,0.03-6.28-0.09-9.47,0.08c-0.14,2.48-0.14,4.98,0,7.52c2.11,0.12,4.23,0.2,6.42-0.05c0.33-0.14,0.65-0.31,0.96-0.82
			c0,1.07,0,2.14,0,3.21c-0.25-0.54-1.04-1-1.62-0.95c-1.92,0.03-3.81-0.09-5.76,0.08c-0.14,2.9-0.14,5.82,0,8.78
			c3.62,0.13,7.24,0.18,10.93-0.06c0.32-0.13,0.63-0.31,0.94-0.79c-0.01,0.75,0,1.49,0.01,2.23h-15.59
			c0.71-0.44,0.91-1.01,0.93-1.58V16.34C1335.11,15.84,1335.1,15.41,1334.22,14.8"/>
		<path class="st2" d="M1429.85,14.8h14.73c0.01,0.75,0.01,1.49,0,2.24c-0.25-0.52-0.99-0.95-1.54-0.94
			c-3.15,0.03-6.27-0.09-9.47,0.08c-0.14,2.48-0.14,4.98,0,7.52c2.12,0.12,4.23,0.2,6.42-0.05c0.32-0.14,0.65-0.31,0.97-0.82
			c-0.01,1.07-0.01,2.14,0,3.21c-0.25-0.54-1.04-1-1.62-0.95c-1.92,0.03-3.81-0.09-5.77,0.08c-0.14,2.9-0.14,5.82,0,8.78
			c3.62,0.13,7.24,0.18,10.93-0.06c0.32-0.13,0.63-0.31,0.94-0.79c0,0.75,0,1.49,0.01,2.23h-15.59c0.7-0.44,0.9-1.01,0.93-1.58
			V16.34C1430.73,15.84,1430.72,15.41,1429.85,14.8"/>
		<path class="st2" d="M1365.18,35.31c0.51-0.24,0.94-0.99,0.91-1.54c-0.03-5.86,0.1-11.69-0.08-17.58
			c-1.99-0.13-3.99-0.2-6.06,0.05c-0.32,0.14-0.63,0.31-0.94,0.82c0.01-0.75,0.01-1.5,0-2.25h16.87c-0.01,0.74,0,1.49,0,2.23
			c-0.24-0.52-0.96-0.95-1.5-0.93c-1.83,0.03-3.63-0.09-5.5,0.08c-0.18,5.87-0.06,11.78-0.08,17.68c0.02,0.54,0.31,1.02,0.95,1.45
			C1368.22,35.31,1366.7,35.31,1365.18,35.31"/>
		<path class="st2" d="M1386.04,14.78c3.28,0.02,6.44-0.08,9.84,0.07c1.34,0.21,2.99,0.46,4.04,2.5c0.72,1.86,0.92,4.7-2.18,6.61
			c-0.96,0.56-1.64,0.72-3.39,1.07c-0.07,0.1-0.09,0.21-0.01,0.34l6.13,7.92c0.7,0.91,1.4,1.61,2.03,2.01
			c-1.17,0-2.33,0.01-3.5,0.01c-0.48-0.63-0.96-1.26-1.46-1.94c-0.49-0.67-1.01-1.4-1.26-1.77c-0.25-0.36-0.26-0.37-0.26-0.37
			c-1.63-2.18-3.29-4.41-4.88-6.53c1.25-0.27,3.52,0.36,5.78-2.25c0.86-1.44,1.3-3.23-0.27-5.07c-1.62-1.32-2.96-1.21-4.92-1.3
			c-0.67,0.03-1.3-0.09-2,0.08c-0.17,5.83-0.05,11.71-0.08,17.57c-0.02,0.54,0.64,1.44,1.25,1.58c-1.63,0-3.27,0.01-4.9,0.01
			c0.41-0.18,0.92-0.89,0.95-1.4c-0.04-6.06,0.12-12.07-0.11-18.18C1386.73,15.41,1386.58,15.1,1386.04,14.78"/>
		<path class="st2" d="M1456.09,14.78c3.28,0.02,6.43-0.08,9.84,0.07c1.34,0.21,2.99,0.46,4.04,2.5c0.72,1.86,0.93,4.7-2.17,6.61
			c-0.97,0.56-1.64,0.72-3.39,1.07c-0.07,0.1-0.1,0.21-0.01,0.34l6.13,7.92c0.7,0.91,1.4,1.61,2.03,2.01
			c-1.16,0-2.33,0.01-3.49,0.01c-0.48-0.63-0.96-1.26-1.45-1.94c-0.5-0.67-1.01-1.4-1.27-1.77c-0.26-0.36-0.26-0.37-0.26-0.37
			c-1.63-2.18-3.29-4.41-4.88-6.53c1.26-0.27,3.52,0.36,5.78-2.25c0.86-1.44,1.29-3.23-0.27-5.07c-1.62-1.32-2.96-1.21-4.92-1.3
			c-0.67,0.03-1.3-0.09-1.99,0.08c-0.18,5.83-0.06,11.71-0.09,17.57c-0.02,0.54,0.64,1.44,1.25,1.58c-1.63,0-3.27,0.01-4.9,0.01
			c0.4-0.18,0.92-0.89,0.94-1.4c-0.04-6.06,0.12-12.07-0.11-18.18C1456.78,15.41,1456.62,15.1,1456.09,14.78"/>
		<path class="st2" d="M1413.82,35.32c0.41-0.18,0.92-0.88,0.95-1.37V16.19c-0.03-0.51-0.34-0.98-0.96-1.38
			c1.53,0.01,3.06,0.01,4.58,0c-0.4,0.18-0.9,0.87-0.93,1.38v17.73c0.08,0.46,0.07,0.86,0.95,1.41
			C1416.88,35.33,1415.35,35.32,1413.82,35.32"/>
	</g>
</g>
<g>
	<g>
		<path class="st0" d="M1202.1,25.9c0,0,2.41-0.57,2.81-0.27c0,0,5.1,2.99,5.97,4.1c0,0,0.86,0.83,1.14,1.55
			c0,0,0.13,0.57-1.11-0.44c0,0-1.18-0.32-1.91-0.36c0,0-0.74-0.24,0.01-0.91c0,0,0.28-0.24-0.53-0.71
			C1208.5,28.87,1202.87,25.9,1202.1,25.9"/>
		<path class="st0" d="M1155.89,28.97c0,0-3.43,0.21-6.25-1.02c0,0-0.72-0.45,1.02-0.42c0,0,0.84-0.01,1.69-0.59
			c0,0,0.67-0.5,1.03,0.63c0,0,3.33,0.61,6.02-0.11c0,0,0.72,0.1-0.55,0.62c0,0-0.42,0.4-1.29,0.46
			C1157.56,28.54,1157.19,29.07,1155.89,28.97"/>
		<path class="st0" d="M1150.08,20.39c9.65-2.79,14.14-0.41,14.14-0.41s-1.83,1.19-4.54,2.12
			C1159.68,22.1,1155.16,23.52,1150.08,20.39"/>
		<path class="st0" d="M1177.32,14.77c0,0,1.19,1.25,5.15,1.51c0,0,1.31,0.09-0.42,0.75c0,0-5.07,1.32-7.58-0.46
			c0,0-1.62-1.22-0.42-2.24L1177.32,14.77z"/>
		<path class="st0" d="M1178.13,13.84l-3.78-0.28c0,0,2.04-2.83,6.75-3.55c0,0,4.26-0.52,4.81,2.28
			C1185.92,12.3,1183.02,9.53,1178.13,13.84"/>
		<path class="st0" d="M1181.99,13.89c0,0-0.2-1.61,1.17-1.62c0,0,0.96-0.07,1.23,0.9c0,0-0.4,1.51,0.77,1.42
			c0,0,1.47,0.02,3.51-0.57c0,0-0.82,1.62-4.54,1.83C1184.13,15.85,1182.31,15.72,1181.99,13.89"/>
		<path class="st0" d="M1184.86,9.23c0,0,0.84-1.71,3.42-1.17c0,0,1.4,0.41,1.47,1.86c0,0-2.16-0.06-2.44,0.33
			c0,0-0.44-0.22-0.76-0.1c0,0-0.94-0.04-1.2-0.77C1185.26,9.12,1184.96,9.36,1184.86,9.23"/>
		<path class="st0" d="M1189.2,11.34c0,0-0.69,0.79-1.05,0.89c0,0-0.63-0.34-0.96-0.32c0,0-0.11-0.5-0.11-1.13
			c0,0,0.74-0.07,1.29,0.41C1188.36,11.2,1188.92,11.16,1189.2,11.34"/>
		<path class="st0" d="M1183.94,18.35c0,0-2.03,1.17-9.35,0.07c0,0-8.99-1.79-11.18,6.02c0,0-1.1,3.28-5.22,4.7
			c0,0-2.35,1.53-7.61,1.6c0,0-0.48-1.15-1.07-0.55c0,0-1.18,1.35-2.85,1.09c0,0,0.14,0.95,2.86,0.48c0,0,0.7-0.2,1.03,0.11
			c0,0,14.79-0.87,22.4-5.72c0,0,0.64-0.35,1.62-0.11c0,0,3.22,0.87,5.36,0.02c0,0,2.6,0.89,9.04-0.41c0,0,4.65-0.83,4.65-0.46
			c0,0,2.58,0.64,6.04,0c0,0,3.74-0.7,6.59-0.75c0,0,2.63,0.04,4.02,1.05c0,0,0.1,0.96,0.56,1.11c0,0,2.58,0.63,3.01,1.06
			c0,0,0.79-0.16-0.62-1.63c0,0-3.85-3.38-15-3.93c0,0-7.23-0.43-11.52-1.76C1186.69,20.35,1183.91,19.59,1183.94,18.35"/>
		<path class="st0" d="M1198.74,15.52c0,0-4.74,2.01,0.49,5.42c0,0,0.57,0.37-1.33,0.17c0,0-8.69-0.41-12.55-2.67
			c0,0-0.63-0.39-0.01-1.07c0,0,8.93-5.32,12.11-6.49c0,0,0.45,0.58,1.51-0.41c0,0,0.67,0.18,0.92-0.32c0,0-0.11-0.93-0.13-1.32
			c0,0,0.02-0.39,1.05,0.82c0,0,0.78-0.01,0.65-0.66c0,0,1.01,0.37,1.1,0.91c0,0,3.02,0.92,3.31,2.03c0,0,4.04,2.31,4.41,2.84
			c0,0,0.11,1.19-0.54,1.47c0,0-0.55,0.17-0.92,0.4c0,0-0.73-0.02-1.68-0.85c0,0-0.57-0.21-1.43-0.1c0,0-2.35,1.12-3.84-1.25
			l-8.44-0.07c0,0-1.9,0.62-0.4,0.65L1198.74,15.52z"/>
		<g>
			<path class="st0" d="M1142.23,42.09l-5.16-6.15l0.04,4.91c0,0.45,0.09,0.73,0.27,0.84c0.24,0.15,0.62,0.22,1.14,0.22h0.47v0.2
				l-4.61,0.03v-0.2h0.47c0.56,0,0.96-0.1,1.19-0.29c0.14-0.12,0.21-0.38,0.21-0.79l-0.03-4.8c0-0.32-0.07-0.56-0.2-0.7
				c-0.09-0.1-0.26-0.19-0.5-0.26c-0.25-0.07-0.64-0.1-1.18-0.1v-0.2l3.75-0.03l4.85,5.72l4.68-5.79l3.75-0.03v0.2h-0.46
				c-0.57,0-0.97,0.1-1.2,0.29c-0.14,0.12-0.21,0.38-0.21,0.79l0.03,4.8c0,0.45,0.1,0.73,0.28,0.84c0.24,0.15,0.62,0.22,1.14,0.22
				h0.46v0.2l-5.62,0.04v-0.2h0.47c0.57,0,0.96-0.1,1.19-0.29c0.14-0.12,0.21-0.38,0.21-0.79l-0.04-4.91l-5.06,6.23L1142.23,42.09z"
				/>
		</g>
		<g>
			<path class="st0" d="M1161.76,39.48l-5.13,0.04l-0.89,1.17c-0.22,0.29-0.33,0.5-0.33,0.64c0,0.11,0.1,0.21,0.29,0.29
				c0.19,0.08,0.61,0.14,1.25,0.16v0.2l-4.17,0.03v-0.2c0.55-0.06,0.91-0.13,1.07-0.22c0.33-0.18,0.7-0.53,1.1-1.07l4.61-6.09h0.34
				l4.65,6.08c0.37,0.49,0.71,0.81,1.02,0.95c0.3,0.14,0.73,0.22,1.27,0.24v0.2l-5.22,0.04v-0.2c0.53-0.02,0.88-0.07,1.07-0.15
				c0.18-0.09,0.28-0.19,0.28-0.31c0-0.16-0.13-0.41-0.4-0.75L1161.76,39.48z M1161.48,39.08l-2.27-2.95l-2.28,2.99L1161.48,39.08z"
				/>
		</g>
		<g>
			<path class="st0" d="M1167.94,34.54l3.59-0.03l8.14,5.45l-0.03-4.24c0-0.45-0.1-0.73-0.28-0.84c-0.24-0.15-0.62-0.22-1.14-0.22
				h-0.46v-0.2l4.61-0.03v0.2h-0.47c-0.56,0-0.96,0.1-1.19,0.29c-0.14,0.12-0.21,0.38-0.21,0.79l0.05,6.2h-0.35l-8.77-5.86
				l0.03,4.53c0,0.45,0.09,0.73,0.27,0.84c0.25,0.15,0.63,0.22,1.14,0.22h0.47v0.2l-4.61,0.03v-0.2h0.46c0.57,0,0.97-0.1,1.2-0.29
				c0.14-0.12,0.21-0.38,0.21-0.79l-0.04-5.11c-0.39-0.25-0.68-0.41-0.88-0.49s-0.49-0.15-0.88-0.22c-0.19-0.03-0.48-0.04-0.86-0.04
				V34.54z"/>
		</g>
		<g>
			<path class="st0" d="M1195.89,34.16l0.32,2.5h-0.3c-0.41-0.75-0.99-1.28-1.74-1.6s-1.65-0.48-2.7-0.47
				c-0.88,0.01-1.67,0.14-2.38,0.39c-0.71,0.25-1.26,0.65-1.67,1.2c-0.4,0.55-0.6,1.22-0.6,2.03c0,0.67,0.2,1.24,0.59,1.73
				c0.39,0.49,0.97,0.86,1.74,1.11s1.65,0.38,2.64,0.37c0.86-0.01,1.62-0.11,2.27-0.32c0.66-0.21,1.38-0.62,2.16-1.23l0.3,0.11
				c-0.66,0.66-1.43,1.15-2.31,1.46s-1.93,0.47-3.15,0.48c-2.19,0.02-3.9-0.42-5.11-1.32c-0.9-0.67-1.36-1.45-1.37-2.37
				c-0.01-0.73,0.29-1.41,0.87-2.03c0.59-0.62,1.4-1.1,2.43-1.45c1.04-0.35,2.17-0.52,3.4-0.53c0.96-0.01,1.9,0.12,2.83,0.37
				c0.27,0.08,0.47,0.12,0.59,0.12c0.18,0,0.33-0.04,0.46-0.11c0.17-0.1,0.29-0.24,0.36-0.41L1195.89,34.16z"/>
		</g>
		<g>
			<path class="st0" d="M1205.81,41.41v0.2l-5.67,0.04v-0.2h0.47c0.55,0,0.94-0.1,1.19-0.27c0.16-0.12,0.23-0.4,0.23-0.84
				l-0.03-4.75c0-0.37-0.05-0.62-0.13-0.74c-0.07-0.09-0.2-0.17-0.4-0.23c-0.29-0.08-0.59-0.13-0.9-0.12h-0.47v-0.2l5.67-0.04v0.2
				h-0.48c-0.54,0-0.93,0.1-1.18,0.28c-0.16,0.12-0.24,0.4-0.24,0.84l0.03,4.75c0,0.37,0.05,0.62,0.13,0.74
				c0.07,0.09,0.2,0.17,0.41,0.23c0.28,0.09,0.58,0.13,0.89,0.12L1205.81,41.41z"/>
		</g>
		<g>
			<path class="st0" d="M1207.18,34.24l3.59-0.03l8.14,5.45l-0.03-4.24c0-0.45-0.1-0.73-0.28-0.84c-0.24-0.15-0.62-0.22-1.14-0.22
				H1217v-0.2l4.61-0.03v0.2h-0.47c-0.56,0-0.96,0.1-1.19,0.29c-0.14,0.12-0.21,0.38-0.21,0.79l0.05,6.2h-0.35l-8.77-5.86l0.03,4.53
				c0,0.45,0.09,0.73,0.27,0.84c0.25,0.15,0.63,0.22,1.14,0.22h0.47v0.2l-4.61,0.03v-0.2h0.46c0.57,0,0.97-0.1,1.2-0.29
				c0.14-0.12,0.21-0.38,0.21-0.79l-0.04-5.11c-0.39-0.25-0.68-0.41-0.88-0.49s-0.49-0.15-0.88-0.22c-0.19-0.03-0.48-0.04-0.86-0.04
				V34.24z"/>
		</g>
		<g>
			<path class="st0" d="M1229.31,41.23v0.2l-5.67,0.04v-0.2h0.47c0.55,0,0.94-0.09,1.19-0.27c0.16-0.12,0.23-0.4,0.23-0.84
				l-0.03-4.75c0-0.37-0.05-0.62-0.13-0.74c-0.07-0.09-0.2-0.17-0.4-0.23c-0.29-0.09-0.59-0.13-0.9-0.12h-0.47v-0.2l5.67-0.04v0.2
				h-0.48c-0.54,0-0.93,0.1-1.18,0.28c-0.16,0.12-0.24,0.4-0.24,0.84l0.03,4.75c0,0.37,0.05,0.62,0.13,0.74
				c0.07,0.09,0.2,0.17,0.41,0.23c0.28,0.08,0.58,0.13,0.89,0.12L1229.31,41.23z"/>
		</g>
	</g>
	<rect x="1124.41" y="0.05" class="st1" width="114.82" height="50"/>
</g>
<g>
	<rect x="460.96" y="0.05" class="st1" width="160.94" height="50"/>
	<g>
		<path class="st0" d="M478.31,17.65h4.57v5.18h5v-5.18h4.59v14.8h-4.59v-5.99h-5v5.99h-4.57V17.65z"/>
		<path class="st0" d="M518.88,30.01h-5.19l-0.72,2.44h-4.67l5.56-14.8h4.99l5.56,14.8h-4.79L518.88,30.01z M517.93,26.81
			l-1.63-5.32l-1.62,5.32H517.93z"/>
		<path class="st0" d="M536.59,17.65h5.08l2.98,4.99l2.99-4.99h5.05l-5.76,8.6v6.2h-4.58v-6.2L536.59,17.65z"/>
		<path class="st0" d="M568.49,17.65h4.27l5.57,8.19v-8.19h4.31v14.8h-4.31l-5.54-8.13v8.13h-4.3L568.49,17.65L568.49,17.65z"/>
		<path class="st0" d="M599.97,17.65h4.58v14.8h-4.58V17.65z"/>
	</g>
</g>
<g>
	<g>
		<path class="st0" d="M686.83,34.15c-0.56-0.12-1.13,0.11-1.69,0.03c-1.3,0.16-1.16-3.45-2.33-1.72c-1.96,2.92-4.8,3.11-8,2.67
			c-1.94-0.17-1.9,3.77-0.66,2.81c1.27-0.84,3.51-3.3,4.92-1.63c0.37,0.44,0.35,0.53-0.18,0.72c-8.84,2.74-18.68,3.02-27.47-0.05
			c-0.12-0.04-0.3-0.09-0.19-0.28c1.24-2.19,3.8,0.45,5.15,1.3c0.92,0.66,0.93-1.64,0.58-2.1c-1.12-1.69-3.52-0.04-5.17-0.67
			c-4.11-0.56-4.42-5.3-5.4-2.07c-0.58,1.99-2.32,0.26-3.15,1.26c-0.22,0.29-0.08,0.55,0.07,0.81c1.57,2.57,4.51,4.21,7.53,4.3
			c0.72,0.05-0.17,1.7,0.49,1.89c5.79,1.94,11.25,2.55,17.6,2.03c3.47-0.31,6.92-0.96,10.23-2.06c0.44-0.21,0.08-1.2,0.18-1.64
			c-0.01-0.16,0.05-0.21,0.2-0.21c2.76-0.03,5.28-1.4,7.05-3.46C687.01,35.6,687.83,34.44,686.83,34.15z M654.55,41.52
			c-0.27,0.01-0.54-0.09-0.81-0.16c-0.12-0.03-0.3,0.04-0.36-0.08c0.23-0.57,0.71-1.55,0.39-2.15c-0.17-0.34,1.04,0.06,1.21,0.11
			C656.17,39.73,655.79,41.43,654.55,41.52z M657.66,40.19c-0.25,0.4-0.37-0.58-0.75-0.41c-0.37,0.24-0.32,1.24-0.35,1.68
			c0.08,0.52,0.73,0.24,0.73-0.17c-0.13-0.18-0.51-0.27-0.49-0.5c0.06-0.15,0.09-0.33,0.28-0.4c0.13-0.05,0.22-0.05,0.21,0.13
			c-0.14,1.1,0.28,0.58,0.28,1.17c-0.23,0.66-1.38,0.02-1.93,0.08c0.47-0.73,0.62-1.56,0.33-2.38c0,0,0.01,0,0.01-0.01
			C656.45,39.67,657.94,39.29,657.66,40.19z M659.72,40.46c-0.01,0.84-0.38-0.17-0.58-0.36c-0.99-0.53-1.09,2.88,0.19,1.61
			c0.17-0.19,0.31-0.01,0.19,0.18c-0.08,0.17-0.56,0.4-0.78,0.38c-1.68-0.19-0.93-3.14,0.64-2.36
			C659.73,40.04,659.74,40.06,659.72,40.46z M661.29,42.35c-1.2,0.64-2.04-1.16-1.2-1.99C661.36,39,662.76,41.59,661.29,42.35z
			 M663.47,42.38c-0.45,0.48-1.81,0.22-1.44-0.62c0.01-0.13,0.13-0.16,0.19-0.05c0.16,0.29,0.64,1.07,0.9,0.45
			c0-0.17,0.03-0.34-0.18-0.43c-0.68-0.13-1.18-1.2-0.41-1.54c0.47-0.08,1.24-0.14,1.13,0.55c0.03,0.55-0.3,0.23-0.38-0.09
			c-0.06-0.22-0.45-0.32-0.58-0.13C662.47,41.18,664.4,41.27,663.47,42.38z M666.96,42.36c0.29,0.48-1.95,0.14-2.33,0.24
			c0.28-0.33,0.35-1.91,0.04-2.19c-0.12-0.05-0.07-0.19,0.06-0.15C668.58,40.11,666.01,39.99,666.96,42.36z M668.92,42.34
			c-1.33,0.95-2.6-1.37-1.13-2.16C669.03,39.66,669.82,41.52,668.92,42.34z M677.01,41.27c-0.95,0.21-1.89,0.44-2.86,0.54
			c0.29-0.5,0.04-0.94-0.07-1.4c-0.28,0.41-0.12,0.92-0.21,1.35c-0.77,0.35-1.77,0.36-2.67,0.53c0.25-0.59,0.19-1.15,0.07-1.71
			c-0.31,0.47-0.03,1.44-0.64,1.68c-0.16,0-0.11-0.15-0.14-0.24c-0.14-0.46-0.34-0.89-0.64-1.28c0.17,0.55,0.07,1.22,0.55,1.59
			c-0.18,0.06-0.92,0.22-0.82-0.06c0.21-0.63,0.24-1.45-0.13-2.01c-0.2-0.35,0.53-0.18,0.71-0.24c0.32,0.23,0.35,0.8,0.6,1.13
			c0.41,0.45-0.01-1.43,0.74-1.32c2.17-0.15,1.16-0.41,2.16,0.88c0.53-0.25-0.13-1.26,0.61-1.27c0.49-0.01,2.99-0.99,2.37,0.17
			c-0.08,0.04-0.11-0.05-0.15-0.1c-0.16-0.24-0.9-0.32-0.7,0.08c0.25,0.47,0.15,2.3,1.01,1.29c0.28-0.77,0.33-0.31,0.39,0.19
			C677.24,41.23,677.11,41.25,677.01,41.27z M676.54,40.58c-0.22,0.05-0.5-0.46-0.36-0.63c0.22-0.24,0.43-0.28,0.43,0.12
			C676.61,40.22,676.71,40.5,676.54,40.58z"/>
		<path class="st0" d="M658.67,28.35c-0.21,5.83,0.08,8.07,6.07,10.17c1.61,0.26,3.75-1.19,5.03-2.12c1.47-1.02,2-2.75,1.99-4.48
			c-0.06-0.54,0.35-4.02-0.29-3.83c-4.18,0.01-8.36,0.01-12.54,0C658.72,28.09,658.67,28.15,658.67,28.35z M659.97,30.28
			c0.31-0.41,0.87-1.72,1.48-1.48c0.36,0.2,0.41,0.44,0.27,0.74c-0.17,0.36-0.17,0.37,0.16,0.58c1.02,0.64,1.93,1.41,2.88,2.13
			c0.61,0.46,0.37,0.45,0.98-0.02c0.98-0.76,1.91-1.59,3.01-2.19c0.27-0.13,0-0.37-0.04-0.56c-0.1-0.24-0.03-0.46,0.19-0.61
			c0.78-0.41,1.22,0.95,1.61,1.43c0.28,0.52-0.36,1.1-0.79,0.59c-0.34-0.26-0.34-0.27-0.7-0.01c-1.05,0.78-2.15,1.4-3.25,2.1
			c0.43,0.39,4.25,2.28,3.58,2.7c-0.32,0.46-0.32,0.46-0.8,0.14c-1.05-0.69-2.03-1.46-3-2.25c-0.37-0.3-0.27-0.3-0.62-0.01
			c-1.05,0.85-2.12,1.67-3.23,2.44c-0.12,0.09-0.18,0.08-0.28-0.01c-0.5-0.44-0.5-0.51,0.01-0.9c4.39-3.12,3.89-1.21-0.14-4.34
			c-0.45-0.39-0.7,0.73-1.13,0.2C659.88,30.76,659.82,30.56,659.97,30.28z"/>
		<path class="st0" d="M645.93,29.12c0.3-0.13,0.53-0.33,0.68-0.64c0.48-1.08,1.06,1.23,2.52,0.22c0.29-0.18,0.37-0.14,0.49,0.16
			c0.79,1.24-0.51,0.53-0.14,1.16c0.08,0.11,0.35,0.18,0.19,0.34c-0.32,0.43-0.77,0.55-1.3,0.51c-0.35,0.04-0.12,0.59-0.16,0.83
			c-0.04,0.42,0.19,0.54,0.45,0.17c0.42-0.42,0.65,0.44,0.84,0.7c0.12,0.2,0.18,0.38-0.03,0.58c-0.37,0.36,0.36,0.27,0.51,0.46
			c0.07,0.08,0.14,0.09,0.22,0.01c0.11-0.11,0.2-0.05,0.25,0.07c0.11,0.17,0.07,0.54,0.31,0.56c0.18-0.04,0.13-0.29,0.19-0.42
			c0.07-0.21,0.13-0.22,0.3-0.07c0.24,0.17,0.1,0.68,0.46,0.68c0.39-0.15,0.11-0.76-0.08-0.99c-0.5-0.64,1.54,0.04,0.76-0.68
			c-0.38-0.24-0.85-0.21-1.25-0.06c-0.87,0.27-1.24-1.99-0.07-1.38c0.44,0.18,0.36-0.29,0.22-0.54c-0.04-0.42,0.35-0.84,0.5-1.23
			c0.72-1.28,2.14,0.3,1.84,1.29c-0.09,0.29-0.19,0.58-0.12,0.88c0.21,0.74-0.1,0.44-0.59,0.66c0.16,0.42,0.89,0.25,1.22,0.55
			c0.05,0.03,0.12,0.05,0.16,0.01c0.3-0.34,0.49,0.62,0.8,0.21c0.48-0.93,0.39,0.36,0.77,0.41c0.52-0.18-0.64-1.77,0.34-0.97
			c0.08,0.05,0.18,0.19,0.28,0.02c0.36-0.33-0.2-0.54-0.41-0.78c-0.38-0.28,0.15-0.34,0.35-0.49c0.31-0.2-0.22-0.33-0.39-0.24
			c-0.85,0.4-1.23,1.15-1.49-0.32c-0.1-0.41,0.25-0.48,0.55-0.62c0.28-0.2-0.22-0.24-0.36-0.22c-0.52,0.03-0.21-0.62-0.29-0.93
			c0-1.39-1.68-0.84-2.17-1.54c-0.21-0.75,1.48-1.05,1.92-0.77c0.05,0.21-0.62,0.59-0.11,0.68c0.53,0.11,0.47-0.39,0.79-0.44
			c0.48,0.22-0.26,1.62,0.41,1.76c0.37-0.18-0.11-0.7,0.71-0.83c0.36-0.02-0.1,0.86,0.4,0.84c0.71-0.01-0.02-1.41,1.09-0.77
			c0.12,0.07,0.27,0.22,0.39,0.12c0.1-0.11-0.02-0.37-0.08-0.5c-0.19-0.31-0.19-0.32,0.15-0.46c0.1-0.04,0.18-0.1,0.16-0.21
			c-0.05-0.33-0.49-0.25-0.73-0.18c-1.47,0.82-1.64-0.72-2.73-1.27c-0.46-0.09,0.94-0.9,1.05-0.81c0.25,0.13,0.35,0,0.46-0.21
			c0.44-0.71,0.68-1.71,1.33-2.23c0.35,0.03,0.5-0.42,0.85-0.33c0.48,0.26,0.42-0.16,0.51-0.5c0.36-0.67-0.88-1.33-1.38-1.41
			c-0.3,0.18-0.61,0.33-0.65,0.73c-0.21,0.91-1.1,1.51-1.68,2.21c-0.24,0.24-0.51,0.33-0.86,0.15c-0.61-0.34-1.26-0.47-1.92-0.74
			c0.57-0.73,1.66,0.34,1.71-0.08c0.11-0.91-1.32-0.19-1.6-0.67c0.18-0.29,0.8-0.02,1.12-0.08c0.51,0.04,2.18,0.31,1.77-0.62
			c-0.13-0.1-0.21,0.02-0.29,0.1c-0.62,0.59-1.63,0.18-2.44,0.15c0.33-0.66,1.26,0.27,1.52-0.33c-0.13-0.3,0.61-0.6,0.09-0.7
			c-0.62,0.02-0.97-0.6-1.53-0.56c-0.86,0.11-0.59-0.43-1.03-0.46c-0.14,0.03-0.13,0.19-0.16,0.3c-0.02,0.41-0.7-0.53-0.99-0.17
			c-0.26,0.27,0.28,0.5,0.09,0.75c-0.12,0.11-0.22-0.04-0.32-0.09c-0.25-0.21-0.56,0.05-0.4,0.34c0.07,0.15,0.14,0.31,0.12,0.49
			c-0.02,0.42-0.41,0.18-0.67,0.15c-0.44,0,0.07,0.63,0.3,0.66c0.18,0.08,0.19,0.19,0.16,0.35c-0.02,0.38-1.09-0.14-0.7,0.42
			c0.14,0.14,0.32,0.23,0.5,0.31c0.25,0.05,0.5,0.62,0.06,0.52c-0.17-0.01-0.77-0.24-0.61,0.12c0.16,0.17,0.3,0.37,0.55,0.43
			c0.64,0.07-0.3,0.64,0.4,0.83c0.37,0.05-0.12,0.74,0.34,0.81c0.54,0.17-1.27,3-1.8,3.11c-1.7,0.62,0.42-3.4,0.44-4.04
			c0.24-0.85-0.63-1.33-1.34-1.09c-1.48,0.46-0.36,2.47-1.09,3.53c-0.08,0.13,0.04,0.25,0.18,0.16c0.49-0.28,0.45-0.94,0.52-1.43
			c0.03-0.55,0.45-0.27,0.66-0.53c0.03-0.11-0.08-0.17-0.14-0.24c-1.01-0.64,0.35-1.67,0.68-0.56c0.06,1.07-0.71,1.97-1,2.97
			c-0.15,0.4-0.17,0.39-0.59,0.39c-0.79-0.06-0.63,0.64-0.85,1.14C645.96,28.77,645.59,29.26,645.93,29.12z M652.42,19.9
			c0.21-0.08,0.61-0.1,0.7,0.15c0.01,0.29-0.84,0.32-0.93,0.17C652.18,20.08,652.28,19.95,652.42,19.9z"/>
		<path class="st0" d="M671.64,21.4c0.02,0.33,0.04,0.52,0.43,0.41c0.37-0.13,0.52,0.37,0.9,0.32c0.67,0.51,0.89,1.6,1.38,2.32
			c0.1,0.19,0.24,0.3,0.45,0.13c0.03-0.02,0.06-0.06,0.1-0.02c1.94,1.14,0.75,0.35-0.19,1.9c-0.45,0.64-1.06,0.46-1.66,0.19
			c-0.39-0.2-1.06,0.17-0.41,0.45c0.31,0.1,0.11,0.32,0.01,0.5c-0.26,0.34,0,0.56,0.34,0.3c0.13-0.09,0.24-0.22,0.41-0.14
			c0.67,0.1,0.02,0.83,0.65,0.91c0.61-0.07-0.1-1.19,0.8-0.73c0.34,0.11,0.03,0.68,0.39,0.75c0.17,0.01,0.18-0.13,0.2-0.25
			c0.1-0.26-0.26-1.92,0.32-1.4c0.17,0.22,0.44,0.48,0.71,0.27c0.17-0.12-0.02-0.22-0.06-0.33c-0.52-0.77,1.29-0.31,1.6-0.09
			c1.14,1.59-2.43,0.04-2.02,2.83c0,0.31-0.4,0.18-0.6,0.25c-0.31,0.1,0.2,0.32,0.34,0.31c0.42,0.12,0.17,0.8,0.07,1.1
			c-0.46,0.81-0.98-0.51-1.58-0.3c-0.28,0.04-0.36,0.34-0.02,0.37c0.98,0.25-0.63,0.68-0.21,1.15c0.29,0.22,0.46-0.38,0.8-0.18
			c-0.18,0.27-0.45,0.82-0.21,1.05c0.24,0.08,0.25-0.2,0.32-0.34c0.06-0.11,0.1-0.24,0.24-0.25c0.27,0.02,0.2,0.67,0.55,0.29
			c0.28-0.43,1.78-0.33,1.88-0.75c-0.03-0.17-0.23-0.11-0.36-0.11c-0.64,0.12,0.08-1.08-0.4-1.56c-0.13-0.94,1.04-2.39,1.85-1.25
			c0.19,0.46,0.69,0.92,0.5,1.44c-0.53,0.96,1.15-0.26,1.03,0.85c-0.16,0.72-0.4,1.18-1.21,0.84c-0.33-0.02-0.68-0.06-0.95,0.21
			c-0.17,0.11-0.08,0.34,0.13,0.31c0.25,0.04,0.61-0.1,0.8,0.1c0.05,0.09-0.02,0.16-0.08,0.21c-0.22,0.23-0.39,0.71-0.16,0.96
			c0.36,0.17,0.53-1.11,0.8-0.68c0.07,0.2,0.13,0.71,0.4,0.37c0.16-0.13,0.07-0.5,0.28-0.51c0.24,0.03,0.88-0.06,0.97-0.28
			c-0.02-0.21-0.43-0.23-0.28-0.5c0.17-0.25,0.41-1.27,0.81-1c0.13,0.08,0.36,0.47,0.47,0.23c0.11-0.34,0.19-0.68,0.09-1.03
			c-0.28-0.57-0.5,0.1-0.77-0.12c-0.44-0.32-0.91-0.38-0.45-0.95c0.23-0.47-0.72-0.07-0.34-0.72c0.38-1.55,1.03,0.54,2.29-0.63
			c1.02-1.26,0.72,0.75,1.67,0.46c0.06-0.07-0.03-0.13-0.08-0.18c-0.16-0.18-0.29-0.37-0.26-0.63c0.18-1.06-1.08-0.39-1.28-0.99
			c-0.15-0.92-1.83-2.96-0.66-3.54c0.53-0.25,0.9,0.62,0.46,0.88c-0.08,0.1-0.29,0.18-0.28,0.32c0.05,0.15,0.26,0.18,0.4,0.17
			c0.47,0.04,0.19,0.8,0.32,1.12c-0.06,0.26,0.75,1.12,0.6,0.51c-0.33-0.83-0.27-1.73-0.3-2.6c0.01-1.28-2.31-1.19-2.14,0.09
			c-0.01,0.69,2.19,4.64,0.5,4.17c-0.97-0.59-1.42-1.64-1.84-2.63c-0.25-0.36,0.05-0.39,0.18-0.67c-0.04-0.45,0.59-0.73,0.41-1.15
			c-0.1-0.14-0.05-0.23,0.11-0.3c0.22-0.05,1.07-0.67,0.43-0.64c-0.21,0.03-0.55,0.18-0.68-0.06c-0.06-0.37,1.03-0.56,0.85-1
			c-0.1-0.14-0.26,0.01-0.38,0.04c-0.3,0.16-0.55-0.24-0.26-0.41c0.34-0.23,0.97-1.01,0.07-0.7c-0.93,0.22,0.33-1.29-0.42-1.13
			c-0.14,0.06-0.27,0.15-0.4,0.22c-0.6,0.21,0.82-1.48-0.82-0.63c-0.12,0.08-0.19,0.08-0.24-0.08c-0.27-0.71-0.25,0.4-1.27,0.24
			c-0.24,0-0.46,0.03-0.6,0.26c-0.04,0.06-0.1,0.1-0.18,0.11c-0.17,0.11-1.04,0.09-0.8,0.38c0.24,0.17,0.1,0.6,0.39,0.69
			c0.41,0.16,0.8-0.26,1.16-0.03c0.19,0.07,0.15,0.24-0.05,0.23c-0.78,0-1.72,0.41-2.29-0.3c-0.59-0.18-0.06,0.8,0.32,0.7
			c0.61,0.12,2.05-0.38,2.41-0.02c-0.24,0.49-1.41-0.1-1.6,0.42c-0.05,0.21,0.1,0.52,0.32,0.3c0.41-0.36,2.07-0.22,0.85,0.27
			c-0.48,0.19-1.05,0.2-1.42,0.64c-0.26,0-0.61-0.02-0.83-0.25c-0.6-0.76-1.49-1.35-1.73-2.33c-0.14-0.59-0.6-0.78-1.12-0.49
			C672.04,20.38,671.3,20.67,671.64,21.4z M677.93,20.29c-0.2,0.02-0.88-0.15-0.5-0.39C677.76,19.64,678.84,20.26,677.93,20.29z"/>
		<path class="st0" d="M659.75,18.48c0.95,0.85,0.17,2.89,0.65,2.88c1.83,0.08,3.68,0.16,5.49,0.14c0.5-0.08,4.99,0.18,4.45-0.48
			c-0.18-0.8-0.17-1.72,0.31-2.44c0.72-1.03,1.8-3.05,0.29-3.86c-0.88-0.73-3.67-0.62-3.72-1.21c0-0.19-0.11-0.18-0.24-0.18
			c-1.15,0-2.3,0-3.45,0.01c-0.52-0.05-0.15,0.36-0.46,0.44C659.76,14.17,657.28,14.77,659.75,18.48z M663.53,19.33
			c-1,0.22-1.78-2.04-1.86-2.85c-0.05-1.16,1.41-1.76,2.36-1.97C662.33,15.88,662.98,17.61,663.53,19.33z M667.05,19.37
			c-0.5,0.04-0.49,0.03-0.34-0.4c0.23-0.63,0.42-1.28,0.51-1.95c0.23-1.16-0.49-1.87-1.25-2.65c1.19,0.33,3.29,1.05,2.75,2.64
			C668.44,17.72,667.95,19.39,667.05,19.37z M665.97,14.02c3.89,0.3,6.58,0.83,3.4,4.9c-0.06,0.19-0.86,0.65-0.64,0.19
			c1.91-3.17,0.63-4.49-2.75-4.94C665.8,14.2,665.79,13.97,665.97,14.02z M665.21,14.19c0.57,0.64,1.32,1.35,1.26,2.28
			c-0.04,0.96-0.32,1.86-0.74,2.72c-0.21,0.32-0.76,0.19-1.1,0.16c-0.67-0.54-1.19-2.78-0.86-3.61
			C664.02,15.38,664.71,13.88,665.21,14.19z M660.63,14.74c1.17-0.38,2.58-0.9,3.75-0.72c-3.64,1.03-4.49,1.56-2.58,5.3
			c-1.03-0.26-1.62-1.8-2.02-2.72C659.48,15.74,659.74,15.02,660.63,14.74z"/>
		<path class="st0" d="M671.5,22.96c-3.5-0.55-7.08-0.49-10.61-0.23c-0.48,0.13-1.92,0.01-2.12,0.39c-0.03,1.35-0.05,2.7-0.05,4.05
			c0,0.12,0.04,0.15,0.16,0.15c2.31,0.07,4.61,0.03,6.92,0.04c1.88,0,3.76,0.01,5.64-0.03c0.22,0,0.25-0.08,0.25-0.27
			c-0.01-1.29-0.01-2.57,0-3.86C671.69,23.05,671.66,22.98,671.5,22.96z M661.37,25.01c-0.62,0.3-0.02,0.6-0.17,0.92
			c-0.31,0.07-0.59-0.58-0.91-0.18c-0.09,0.09-0.18,0.28-0.33,0.19c-0.13-0.08,0-0.24,0.03-0.35c0.23-0.58-0.24-0.41-0.43-0.8
			c0.42-0.06,0.84-0.01,0.89-0.58c0.02-0.19,0.28-0.15,0.25,0.04c0.09,0.44,0.09,0.44,0.56,0.48
			C661.67,24.73,661.92,24.86,661.37,25.01z M663.62,25.07c-0.51,0.17,0.04,0.59-0.05,0.87c-0.32,0.13-0.62-0.58-0.94-0.17
			c-0.1,0.1-0.23,0.23-0.37,0.16c-0.06-0.03-0.05-0.11-0.02-0.15c0.37-0.53-0.18-0.71-0.39-1.05c1.41,0.08,0.48-0.29,1.02-0.6
			c0.17-0.01,0.16,0.21,0.21,0.34c0.12,0.41,0.66,0.1,0.82,0.36C663.92,24.97,663.73,25.02,663.62,25.07z M665.9,25.08
			c-0.43,0.2,0.13,0.64-0.08,0.88c-0.11,0.08-0.26-0.12-0.38-0.21c-0.23-0.19-0.44-0.07-0.62,0.11c-0.2,0.21-0.41,0.07-0.22-0.16
			c0.25-0.45-0.05-0.56-0.36-0.85c0.04-0.33,0.82,0.17,0.82-0.51c0.03-0.1,0.07-0.19,0.19-0.19c0.13,0,0.11,0.12,0.13,0.2
			C665.33,25.08,666.92,24.39,665.9,25.08z M668.5,24.89c-0.21,0.2-0.54,0.32-0.36,0.67c0.24,0.36,0,0.52-0.3,0.24
			c-0.34-0.2-0.37-0.2-0.66,0.06c-0.07,0.13-0.44,0.17-0.31-0.04c0.74-0.74-1.13-1.08,0.26-1.08c0.12,0,0.19-0.04,0.18-0.17
			c-0.01-0.31,0.43-0.67,0.43-0.16C667.71,25.03,668.77,24.44,668.5,24.89z M670.76,24.95c-0.7,0.27,0.05,1.07-0.36,0.98
			c-0.27-0.16-0.48-0.46-0.77-0.16c-0.33,0.34-0.56,0.2-0.31-0.21c0.09-0.33,0.08-0.37-0.23-0.54c-0.28-0.1-0.24-0.35,0.07-0.3
			c0.25,0,0.54,0.01,0.56-0.31c0.01-0.13,0.02-0.31,0.17-0.31c0.16,0,0.17,0.18,0.18,0.3C670,25.01,671.28,24.48,670.76,24.95z"/>
		<path class="st0" d="M663.51,9.76c1.98,0.98,0.79,2.93,1.79,2.8c0.66,0.09-0.19-2.02,1.68-2.81c0.47-0.14-0.26-0.51-0.46-0.58
			c-0.26-0.1-0.4,0.36-0.64,0.13c-0.21-0.17-0.16-0.33-0.02-0.5c0.15-0.17,0.15-0.32,0.01-0.5c-0.4-0.53-0.45-1.21-0.64-1.82
			c-0.15,0.64-0.24,1.27-0.63,1.8c-0.14,0.19-0.14,0.36,0,0.55c0.11,0.14,0.15,0.29,0.02,0.44c-0.14,0.17-0.29,0.06-0.4-0.01
			c-0.32-0.21-0.54-0.01-0.77,0.19C663.25,9.64,663.25,9.65,663.51,9.76z"/>
		<path class="st0" d="M666.13,11.86c-0.12,0.47,0.22,0.55,0.32,0.08c0.3-0.87,1.83-1.06,1.83,0.08c-0.02,0.15,0.11,0.17,0.19,0.06
			C669.58,9.85,666.18,9.58,666.13,11.86z"/>
		<path class="st0" d="M662.18,11.86c0.35-1.14,1.61-0.63,1.91,0.26c0.1,0.17,0.34,0.1,0.26-0.1c0.03-2.43-3.53-2.26-2.32,0.19
			C662.11,12.09,662.14,11.97,662.18,11.86z"/>
		<path class="st0" d="M665.22,12.71c-0.26,0.06-1.3-0.14-1.32,0.11c0.02,0.48,2.01,0.15,2.46,0.22c0.1,0,0.25-0.01,0.24-0.14
			C666.42,12.48,665.62,12.81,665.22,12.71z"/>
		<path class="st0" d="M672.4,40.05c-0.14-0.15-0.54-0.14-0.56,0.09c0.06,0.44-0.04,1.79,0.45,1.89
			C672.92,41.93,672.53,40.51,672.4,40.05z"/>
		<path class="st0" d="M675.23,39.71c-0.08-0.41-0.64-0.29-0.59,0.11c0.17,0.42-0.03,2,0.75,1.61
			C675.72,40.96,675.29,40.25,675.23,39.71z"/>
		<path class="st0" d="M672.79,40.42c0.11,0.43-0.04,1.32,0.53,1.4c0.1-0.01,0.16-0.04,0.11-0.15
			C673.27,41.23,673.04,40.82,672.79,40.42z"/>
		<path class="st0" d="M666.16,40.86c0.01-0.21,0.02-0.49-0.26-0.51c-0.2-0.01-0.38-0.02-0.43,0.24c0,0.18-0.14,0.58,0.11,0.68
			C665.92,41.37,666.14,41.21,666.16,40.86z"/>
		<path class="st0" d="M665.81,41.52c-0.35,0-0.35,0-0.34,0.36c-0.02,0.28,0.02,0.62,0.37,0.61c0.35,0.04,0.29-0.39,0.33-0.62
			C666.18,41.52,666.18,41.52,665.81,41.52z"/>
		<path class="st0" d="M654.6,39.39c-0.18,0.04-0.12,0.22-0.16,0.34c-0.09,0.42-0.18,0.84-0.2,1.27
			C654.54,42.11,655.69,39.49,654.6,39.39z"/>
		<path class="st0" d="M668.64,40.87c-0.06-0.63-0.83-0.65-0.84-0.01c0,0.46-0.1,1.4,0.56,1.41
			C668.89,42.04,668.56,41.3,668.64,40.87z"/>
		<path class="st0" d="M660.82,40.22c-0.63,0.14-0.55,2.83,0.26,1.78C661.29,41.49,661.57,40.33,660.82,40.22z"/>
	</g>
	<rect x="640.21" y="0.05" class="st1" width="50" height="50"/>
</g>
<g>
	<g>
		<path class="st0" d="M190.64,31.83l0.9,1.66h-1.77L190.64,31.83z M187.3,35.22h1.55l0.41-0.78h2.81l0.43,0.78h1.54l-2.48-4.42
			h-1.8L187.3,35.22z"/>
		<path class="st0" d="M197.61,30.8h2.15l2.6,3.21h0.01V30.8h1.39v4.42h-2.15l-2.6-3.21H199v3.21h-1.39V30.8z"/>
		<path class="st0" d="M205.69,33.23c0-0.37,0.09-0.44,0.87-0.44c0.7,0,0.87,0.07,0.87,0.44H205.69z M204.49,33.79
			c0,1.33,0.84,1.48,1.63,1.48h0.9c0.87,0,1.58-0.17,1.58-0.95v-0.13h-1.12c0,0.18-0.03,0.35-0.68,0.35h-0.37
			c-0.5,0-0.74-0.09-0.74-0.42v-0.19h2.91V33.4c0-1.08-0.52-1.34-1.8-1.34h-0.84c-0.87,0-1.47,0.26-1.47,1.44L204.49,33.79
			L204.49,33.79z"/>
		<path class="st0" d="M208.9,32.11h1.31l0.72,2.27h0.01l0.84-2.27h1.1l0.84,2.27h0.01l0.72-2.27h1.31l-1.22,3.12h-1.6l-0.61-1.69
			h-0.01l-0.61,1.69h-1.6L208.9,32.11z"/>
		<path class="st0" d="M220.79,31.9h2.46c0.59,0,0.82,0.17,0.82,0.79v0.6c0,0.63-0.23,0.79-0.82,0.79h-2.46V31.9z M219.41,35.22
			h4.18c1.39,0,1.87-0.45,1.87-1.54v-1.34c0-1.09-0.49-1.54-1.87-1.54h-4.18V35.22z"/>
		<path class="st0" d="M226.24,32.11h1.12v0.59h0.01c0.14-0.49,0.62-0.64,1.17-0.64c0.87,0,1.22,0.37,1.22,1.23
			c0,0.08-0.01,0.16-0.01,0.27h-1.04c0-0.4-0.09-0.59-0.57-0.59c-0.41,0-0.7,0.15-0.7,0.53v1.72h-1.2V32.11z"/>
		<path class="st0" d="M231.67,35.22h-1.2V32.1h1.2V35.22z M231.67,31.72h-1.2V30.8h1.2V31.72z"/>
		<path class="st0" d="M232.19,32.11h1.3l0.97,2.2l0.97-2.2h1.31l-1.53,3.12h-1.5L232.19,32.11z"/>
		<path class="st0" d="M238.47,35.22h-1.2V32.1h1.2V35.22z M238.47,31.72h-1.2V30.8h1.2V31.72z"/>
		<path class="st0" d="M239.36,32.11h1.2v0.5h0.01c0.21-0.43,0.63-0.55,1.27-0.55c0.74,0,1.78,0.03,1.78,1.37v1.79h-1.2v-1.79
			c0-0.31-0.25-0.46-0.77-0.46h-0.27c-0.51,0-0.82,0.23-0.82,0.68v1.57h-1.2L239.36,32.11L239.36,32.11z"/>
		<path class="st0" d="M246.26,34.16c-0.59,0-0.73-0.15-0.73-0.62c0-0.48,0.14-0.64,0.73-0.64h0.59c0.59,0,0.73,0.16,0.73,0.64
			c0,0.47-0.14,0.62-0.73,0.62H246.26z M244.37,33.71c0,0.84,0.36,1.3,1.52,1.3h0.63c0.64,0,0.84-0.09,1.07-0.32v0.21
			c0,0.53-0.26,0.69-0.78,0.69h-0.87c-0.19,0-0.29-0.09-0.29-0.24h-1.24c0,0.78,0.46,0.97,1.26,0.97h1.32c1.5,0,1.72-0.64,1.72-1.28
			v-2.92h-1.12v0.43h-0.01c-0.3-0.4-0.44-0.48-1.05-0.48h-0.7c-0.95,0-1.46,0.26-1.46,1.22L244.37,33.71L244.37,33.71z"/>
		<path class="st0" d="M252.59,33.78h1.39c0.01,0.47,0.2,0.51,0.6,0.51h1.7c0.29,0,0.59-0.03,0.59-0.37c0-0.38-0.16-0.41-1.95-0.41
			c-2.09,0-2.32-0.24-2.32-1.33c0-0.8,0.07-1.42,1.82-1.42h1.94c1.6,0,1.75,0.53,1.75,1.31v0.14h-1.39c0-0.32-0.04-0.46-0.67-0.46
			h-1.54c-0.31,0-0.52,0.1-0.52,0.34c0,0.38,0.17,0.4,1.65,0.39c2.15-0.01,2.65,0.12,2.65,1.41c0,1.19-0.41,1.39-2.25,1.39h-1.68
			c-1.26,0-1.77-0.23-1.77-1.19V33.78z"/>
		<path class="st0" d="M260.14,33.23c0-0.37,0.09-0.44,0.87-0.44c0.7,0,0.87,0.07,0.87,0.44H260.14z M258.94,33.79
			c0,1.33,0.84,1.48,1.63,1.48h0.9c0.87,0,1.58-0.17,1.58-0.95v-0.13h-1.12c0,0.18-0.03,0.35-0.68,0.35h-0.37
			c-0.5,0-0.74-0.09-0.74-0.42v-0.19h2.91V33.4c0-1.08-0.52-1.34-1.8-1.34h-0.84c-0.87,0-1.47,0.26-1.47,1.44L258.94,33.79
			L258.94,33.79z"/>
		<path class="st0" d="M263.73,32.11h1.2v0.5h0.01c0.21-0.43,0.63-0.55,1.27-0.55c0.74,0,1.78,0.03,1.78,1.37v1.79h-1.2v-1.79
			c0-0.31-0.25-0.46-0.77-0.46h-0.27c-0.51,0-0.82,0.23-0.82,0.68v1.57h-1.2V32.11z"/>
		<path class="st0" d="M269.93,34.25c0,0.17,0.06,0.29,0.74,0.29h0.42c0.57,0,0.71-0.04,0.71-0.23c0-0.18-0.09-0.26-0.52-0.26h-1.12
			c-1.12-0.01-1.45-0.24-1.45-1.1c0-0.78,0.64-0.89,1.46-0.89h0.84c1.57,0,1.84,0.21,1.85,0.95h-1.2c-0.06-0.18-0.17-0.21-0.89-0.21
			c-0.69,0-0.82,0.02-0.82,0.23c0,0.13,0.09,0.18,0.72,0.18h0.83c1.44,0,1.54,0.47,1.54,1.03c0,0.82-0.34,1.04-1.7,1.04h-1.14
			c-1.11,0-1.51-0.25-1.51-1.02h1.24V34.25z"/>
		<path class="st0" d="M275.34,34.54c-0.47,0-0.63-0.08-0.63-0.28c0-0.26,0.11-0.37,0.61-0.37h0.53c0.66,0,0.73,0.09,0.73,0.32
			c0,0.21-0.08,0.33-0.9,0.33H275.34z M273.55,34.39c0,0.73,0.47,0.89,1.2,0.89h0.82c0.6,0,0.72-0.07,1.06-0.4v0.35h1.14v-2.05
			c0-0.73-0.44-1.12-1.26-1.12h-1.39c-1.01,0-1.44,0.14-1.44,0.98h1.16c0.01-0.22,0.11-0.25,0.46-0.25h0.71
			c0.47,0,0.56,0.11,0.56,0.42v0.27c-0.23-0.23-0.59-0.25-1.25-0.25c-1.16,0-1.76,0.05-1.76,0.9L273.55,34.39L273.55,34.39z"/>
		<path class="st0" d="M278.81,32.95h-0.6v-0.84h0.6v-0.73h1.2v0.73h1.86v0.84h-1.86v1.2c0,0.23,0.17,0.28,0.46,0.28
			c0.39,0,0.49-0.09,0.49-0.37v-0.21h1.05v0.38c0,0.59-0.4,1.04-1.35,1.04h-0.47c-0.74,0-1.37-0.23-1.37-1.09L278.81,32.95
			L278.81,32.95z"/>
		<path class="st0" d="M283.96,35.22h-1.2V32.1h1.2V35.22z M283.96,31.72h-1.2V30.8h1.2V31.72z"/>
		<path class="st0" d="M285.97,33.52c0-0.45,0.27-0.58,0.82-0.58h0.29c0.77,0,0.92,0.1,0.92,0.51v0.43c0,0.42-0.15,0.51-0.92,0.51
			h-0.29c-0.55,0-0.82-0.13-0.82-0.58V33.52z M284.77,34.04c0,1.03,0.71,1.23,1.32,1.23h1.79c0.61,0,1.32-0.21,1.32-1.23v-0.75
			c0-1.03-0.71-1.23-1.32-1.23h-1.79c-0.61,0-1.32,0.21-1.32,1.23V34.04z"/>
		<path class="st0" d="M289.94,32.11h1.2v0.5h0.01c0.21-0.43,0.63-0.55,1.27-0.55c0.74,0,1.78,0.03,1.78,1.37v1.79H293v-1.79
			c0-0.31-0.25-0.46-0.77-0.46h-0.27c-0.51,0-0.82,0.23-0.82,0.68v1.57h-1.2V32.11z"/>
		<g>
			<g>
				<rect x="258.65" y="18.63" class="st0" width="9.56" height="3.04"/>
				<path class="st0" d="M269.3,13.79v3.1h-12.51v6.56h12.34v3.29h-17.02c0,0,0-9.85,0-10.82c0-0.98,1.47-2.09,3.03-2.09
					C256.2,13.82,269.3,13.79,269.3,13.79z"/>
				<path class="st0" d="M270.51,26.67h5.95l3.08-2.87c0,0,1.2,1.11,1.97,1.8c0.78,0.68,1.28,1.07,2,1.07s6.84,0,6.84,0l-6.39-5.21
					l5.67-4.59h-5.67l-2.61,2.32c-1.97-1.88-2.36-2.32-3.37-2.32c-0.8,0-6.47,0-6.47,0l5.42,4.54L270.51,26.67z"/>
				<path class="st0" d="M307.65,24.6c-1.49,2.14-1.04,2.43-3.95,2.54c0,0-2.11,0.08-4.01,0.08c-5.38,0-9.74-1.11-9.74-5.41
					c0-4.59,4.36-5.5,9.74-5.5c5.78,0,8.81,1.55,8.81,5.01c0,0.29-0.17,1.09-0.25,1.51h-9.62v-2.02h5.15c0-0.6,0.41-1.93-3.32-1.93
					c-2.7,0-4.45,0.51-4.45,2.75c0,1.82,0.61,3.08,3.12,3.08c2.5,0,4.86,0,4.86,0L307.65,24.6z"/>
				<path class="st0" d="M173.38,28.07h8.5l8.84-10.45c0,0,1.25,6.05,1.45,6.91c0.31,1.33,0.72,2.39,1.72,2.39s5.22,0,5.22,0
					l-3.56-12.89c0,0-5.34,0-6.22,0c-1.45,0-3.45,0.82-5.34,2.94C183.11,17.95,173.38,28.07,173.38,28.07z"/>
				<path class="st0" d="M200.14,17.12v3.91c0,0,1.45,5.03,1.53,5.27c0.08,0.25,3.86,1.2,7.5,1.2c3.65,0,8.38-1.28,8.38-3.43
					s0-6.95,0-6.95h-5.88c0,0,0,5.42,0,5.67c0,0.24,0.04,1.52-2.69,1.52s-2.97-1.01-2.97-1.44s0-5.75,0-5.75H200.14z"/>
				<path class="st0" d="M219.99,14.91h5.7V17h3.13v2.78h-3.13c0,0,0,3.78,0,4.08s0.22,0.55,0.59,0.56s3.23-0.18,3.23-0.18
					s-0.89,3.02-2.09,3.02c-1.56,0-3.26,0-3.26,0c-3.48,0-4.17-1.68-4.17-2.99C219.99,22.95,219.99,14.91,219.99,14.91z"/>
				<path class="st0" d="M240.25,16.43c-5.31,0-9.45,1.2-9.45,5.48c0,4.26,4.15,5.48,9.45,5.48c5.32,0,9.48-1.22,9.48-5.48
					C249.73,17.42,245.57,16.43,240.25,16.43z M240.27,24.27c-1.96,0-3.4-0.58-3.4-2.36c0-1.81,1.44-2.37,3.4-2.37
					c2.14,0,3.37,0.65,3.37,2.37C243.64,23.72,242.22,24.27,240.27,24.27z"/>
			</g>
		</g>
	</g>
	<rect x="165.94" y="0.05" class="st1" width="150" height="50"/>
</g>
<g>
	<rect x="708.53" y="0.05" class="st1" width="150" height="50"/>
	<g>
		<path class="st0" d="M754.56,23.74h-0.01h-14.38c-0.36,0.01-0.65,0.3-0.64,0.67l0,0v1.3c-0.01,0.36,0.28,0.66,0.64,0.67l0,0h8.45
			c0.25,0.01,0.45,0.21,0.44,0.46l0,0c0.01,0.07,0.01,0.14,0,0.21c-0.96,2.66-3.92,4.84-7.95,4.84c-4.53,0-8.07-3.2-8.07-6.81
			s3.57-6.79,8.32-6.79c2.37,0.05,4.64,0.94,6.41,2.51c0.21,0.2,0.49,0.32,0.78,0.33h6.05c0.26,0,0.46-0.21,0.46-0.46v-0.01
			c0-0.31-0.33-0.53-0.53-0.73c-3.28-2.61-7.35-4.03-11.54-4.03h-1.63c-8.23,0-14.88,4.1-14.88,9.15s6.45,9.15,14.67,9.15
			c8.21,0,14.73-4.04,14.73-9.15C755.87,24.33,755.29,23.74,754.56,23.74z"/>
		<path class="st0" d="M781.15,16.53h-20.93c-0.72,0-1.31,0.59-1.31,1.31v14.43c0,0.72,0.59,1.31,1.31,1.31h20.93
			c0.36,0,0.65-0.29,0.65-0.65v-1.32c0-0.36-0.29-0.65-0.65-0.65h-15.04c-0.36,0-0.65-0.29-0.65-0.65v-3.28
			c0-0.36,0.29-0.65,0.65-0.65h12.47c0.36,0,0.65-0.29,0.65-0.65v-1.31c0-0.36-0.29-0.65-0.65-0.65h-12.47
			c-0.36,0-0.65-0.29-0.65-0.65v-3.28c0-0.36,0.29-0.66,0.65-0.67h15.04c0.35,0.01,0.65-0.28,0.65-0.63c0-0.01,0-0.02,0-0.02v-1.31
			C781.81,16.82,781.52,16.53,781.15,16.53z"/>
		<path class="st0" d="M840.35,32.54l-10.46-6.79c-0.25-0.16-0.4-0.43-0.4-0.73c0-0.3,0.15-0.57,0.4-0.74l10.46-6.81
			c0.14-0.08,0.23-0.23,0.24-0.39c0.01-0.28-0.21-0.5-0.49-0.51c-0.01,0-0.02,0-0.04,0h-7.8c-0.41,0.02-0.8,0.19-1.09,0.49
			l-4.47,4.96c-0.2,0.25-0.5,0.4-0.82,0.4c-0.32-0.01-0.63-0.15-0.83-0.4l-4.48-5c-0.29-0.29-0.68-0.47-1.09-0.49h-7.79
			c-0.28-0.01-0.51,0.2-0.52,0.47c0,0.01,0,0.02,0,0.04c-0.01,0.18,0.09,0.35,0.24,0.44l10.41,6.81c0.4,0.21,0.56,0.7,0.36,1.1
			c-0.08,0.15-0.2,0.28-0.36,0.36l-10.41,6.79c-0.15,0.09-0.25,0.25-0.24,0.43c-0.01,0.28,0.21,0.5,0.49,0.51c0.01,0,0.02,0,0.04,0
			h7.79c0.41-0.02,0.8-0.19,1.09-0.49l4.48-5c0.2-0.25,0.51-0.4,0.83-0.4c0.32,0.01,0.62,0.15,0.82,0.4l4.48,5
			c0.29,0.29,0.68,0.47,1.09,0.49h7.79c0.28,0.01,0.51-0.2,0.52-0.47c0-0.01,0-0.02,0-0.04C840.6,32.79,840.5,32.62,840.35,32.54z"
			/>
		<path class="st0" d="M797.37,15.9c-8.12,0-14.69,4.1-14.69,9.15s6.57,9.15,14.69,9.15s14.69-4.04,14.69-9.15
			S805.49,15.9,797.37,15.9z M797.38,31.62h-0.01c-4.52,0-8.18-2.94-8.18-6.55s3.67-6.56,8.19-6.56c4.52,0,8.18,2.94,8.18,6.56
			C805.56,28.7,801.9,31.62,797.38,31.62z"/>
	</g>
</g>
<g>
	<rect x="876.84" y="0.05" class="st1" width="50" height="50"/>
	<g>
		<path class="st0" d="M921.6,25.08c0,1.93-0.28,3.86-0.83,5.68l-3.78,0.97c0.49-1.11,0.86-2.29,1.1-3.52
			c-1.13,0.29-3.71,0.95-4.82,1.23c0,0.01-0.01,0.02-0.01,0.03l-1.85,0.47c1.06-2.04,1.41-4.49,1-6.76l-1.43,1.47
			c-0.14-3.68-2.63-6.98-6.07-8.17V8.84c-0.88-0.16-1.78-0.26-2.7-0.27V5.35c2.03,0.04,3.98,0.37,5.87,0.99v8.23
			c1.72,1.02,3.17,2.45,4.21,4.16l1.12-1.16c1.53,2.35,2.32,5.13,2.22,7.99l2.75-0.7c-0.05-6.31-3.85-12.11-9.53-14.75V6.62
			C916.31,9.42,921.63,16.77,921.6,25.08z"/>
		<path class="st0" d="M901.43,5.36v3.22c-0.93,0.02-1.84,0.12-2.72,0.3v7.66c-3.32,1.21-5.72,4.37-5.94,7.92
			c-0.36-0.3-1.09-0.92-1.45-1.22c-0.4,2.22-0.04,4.67,0.97,6.65c-0.91-0.23-2.74-0.7-3.65-0.93l0,0l-2.32-0.59
			c-0.27-1.1-0.38-2.24-0.3-3.37l2.08,0.53c-0.08-2.67,0.6-5.27,1.95-7.53l1.22,1.03c1.03-1.79,2.5-3.3,4.26-4.37V9.84
			c-8.18,3.11-12.62,13.66-8.82,21.83l-3.77-0.96C879.06,18.49,888.91,5.3,901.43,5.36z"/>
		<path class="st0" d="M913.27,29.45c0,0.01-0.01,0.02-0.01,0.03l1.82-0.47c0-0.01,0-0.02,0.01-0.02L913.27,29.45z M892.31,29.92
			c-0.87-0.31-2.76-0.71-3.67-0.97c0,0.01,0.01,0.02,0.01,0.03l1.81,0.46l0,0L892.31,29.92z"/>
		<path class="st0" d="M913.27,29.45c0,0.01-0.01,0.02-0.01,0.03l1.82-0.47c0-0.01,0-0.02,0.01-0.02L913.27,29.45z M892.31,29.92
			c-0.87-0.31-2.76-0.71-3.67-0.97c0,0.01,0.01,0.02,0.01,0.03l1.81,0.46l0,0L892.31,29.92z"/>
		<path class="st0" d="M892.31,29.92c0.02-0.09-1.84-0.47-1.86-0.51c0,0.01,0.01,0.02,0.01,0.03L892.31,29.92z"/>
		<path class="st0" d="M905.38,28.36c-0.16,0.19-0.33,0.36-0.51,0.52C905.05,28.72,905.22,28.54,905.38,28.36z"/>
		<path class="st0" d="M916.55,32.65c-1.52,2.94-3.89,5.36-6.79,6.95l0.03-3.24c2.26-1.59,4.01-3.84,4.99-6.47l-1.91,0.49l0,0
			l-2,0.51c-1.65,2.56-4.38,4.35-7.42,4.79v-2.65c6.2-1.34,7.89-10.25,2.6-13.94c-2.82-2.17-7.22-1.69-9.55,0.96
			c-0.35,0.37-0.66,0.78-0.93,1.23c-1.04,1.68-1.1,3.8-0.1,5.5c0.16,0.28,0.35,0.54,0.56,0.79c2.25,2.8,6.84,2.13,8.32-1.08
			c0.96-2.5-1.24-4.17-2.48-4.05c-2.03-0.06-3.36,2.36-2.27,4.04c-0.08-0.02-0.15-0.04-0.23-0.06c-0.87-0.26-1.52-1.01-1.64-1.91
			c0-0.01,0-0.01,0-0.02c0.01-4.69,5.74-4.63,7.6-2.23c3.12,4.01-0.7,8.4-5.06,8.67v4.76c-3.04-0.45-5.77-2.24-7.42-4.82
			c-0.97-0.25-2.93-0.75-3.91-1c0.98,2.65,2.75,4.92,5.03,6.52l-0.03,3.21c-2.91-1.6-5.29-4.04-6.81-7.01l-3.92-1
			c6.18,17.54,31.01,17.58,37.26,0.08L916.55,32.65z M906.57,40.92c-2.97,0.91-6.49,0.9-9.46-0.01l0.03-2.88
			c2.92,1.1,6.54,1.1,9.46,0L906.57,40.92z"/>
		<path class="st0" d="M905.38,28.36c-0.16,0.19-0.33,0.36-0.51,0.52C905.05,28.72,905.22,28.54,905.38,28.36z"/>
	</g>
</g>
<g>
	<rect x="945.16" y="0.05" class="st1" width="160.94" height="50"/>
	<g>
		<g>
			<path class="st0" d="M1008,19.4c2.98-0.27,6.06,0.12,8.81,1.34c1.35,0.61,2.61,1.42,3.64,2.48c0.83,0.87,1.51,1.91,1.82,3.08
				c0.35,1.27,0.26,2.66-0.26,3.88c-0.52,1.24-1.41,2.3-2.45,3.14c-2.1,1.69-4.74,2.6-7.39,2.94c-3.05,0.38-6.22,0.05-9.07-1.13
				c-1.4-0.58-2.73-1.39-3.82-2.45c-0.8-0.8-1.48-1.74-1.85-2.81c-0.47-1.29-0.47-2.76,0.01-4.05c0.46-1.28,1.33-2.37,2.36-3.24
				C1002.09,20.65,1005.05,19.69,1008,19.4z M1009.35,21.28c-1.55,0.07-3.09,0.54-4.38,1.42c-1.13,0.75-2.07,1.83-2.56,3.1
				c-0.43,1.09-0.51,2.31-0.21,3.43c0.29,1.13,0.93,2.16,1.78,2.96c1.21,1.16,2.8,1.87,4.45,2.12c2.59,0.4,5.41-0.36,7.29-2.23
				c0.9-0.9,1.56-2.07,1.76-3.34c0.2-1.17-0.01-2.39-0.54-3.45c-0.66-1.32-1.79-2.37-3.09-3.04
				C1012.47,21.53,1010.9,21.21,1009.35,21.28z"/>
		</g>
		<g>
			<path class="st0" d="M1045.04,20.68c3.05-1.31,6.49-1.64,9.76-1.14c2.7,0.43,5.38,1.45,7.41,3.31c1.35,1.24,2.38,2.96,2.41,4.83
				c0,2.07-0.01,4.13,0.02,6.2c-0.01,0.64,0.02,1.28-0.02,1.91c0.01,0.34-0.3,0.65-0.65,0.63c-1.05,0-2.1,0-3.14,0
				c-0.26,0.01-0.5-0.17-0.59-0.41c-0.18-0.44-0.34-0.9-0.51-1.34c-0.88,0.34-1.73,0.73-2.64,0.99c-2.99,0.9-6.21,0.98-9.26,0.29
				c-1.63-0.38-3.22-0.99-4.64-1.89c-1.11-0.71-2.13-1.61-2.86-2.71c-0.7-1.03-1.12-2.27-1.1-3.52c-0.02-1.44,0.57-2.83,1.45-3.95
				C1041.81,22.45,1043.38,21.41,1045.04,20.68z M1051.52,21.28c-1.86,0.08-3.72,0.75-5.14,1.98c-1.3,1.11-2.2,2.76-2.21,4.5
				c-0.04,1.29,0.43,2.57,1.21,3.6c0.88,1.18,2.15,2.03,3.52,2.54c2.76,1,6.05,0.57,8.37-1.28c1.1-0.87,1.95-2.09,2.28-3.47
				c0.33-1.37,0.11-2.86-0.59-4.09c-0.68-1.22-1.76-2.19-3-2.82C1054.6,21.52,1053.05,21.21,1051.52,21.28z"/>
		</g>
		<path class="st0" d="M1074.06,21.07c1.7-0.61,3.5-0.93,5.3-1.07c3.51-0.24,7.13,0.02,10.39,1.42c0.97,0.44,1.95,0.94,2.7,1.71
			c-0.46,0.12-0.93,0.03-1.39,0.05c-1.07-0.01-2.14,0.03-3.21-0.02c-1.53-0.35-2.95-1.08-4.51-1.28c-1.45-0.18-2.95-0.2-4.37,0.21
			c-0.66,0.18-1.34,0.43-1.83,0.92c-0.45,0.45-0.61,1.19-0.33,1.78c0.2,0.42,0.58,0.72,0.98,0.94c0.72,0.39,1.53,0.57,2.32,0.73
			c1.84,0.39,3.68,0.79,5.52,1.19c1.52,0.35,3.07,0.61,4.58,1.03c1.1,0.33,2.23,0.72,3.12,1.47c0.56,0.47,1.04,1.11,1.09,1.86v0.21
			c-0.05,0.35-0.19,0.68-0.39,0.97c-0.42,0.62-0.97,1.14-1.6,1.53c-0.96,0.58-2.02,0.97-3.08,1.29c-1.9,0.57-3.9,0.76-5.88,0.81
			c-1.58,0.02-3.17-0.02-4.74-0.14c-1.82-0.16-3.65-0.43-5.35-1.12c-1.01-0.42-2.02-1.02-2.62-1.97c0.6-0.19,1.23-0.13,1.85-0.14
			c0.97,0,1.93-0.01,2.9,0c0.7,0.08,1.33,0.41,1.98,0.67c1.69,0.73,3.54,1.04,5.38,1.01c1.17-0.03,2.36-0.11,3.46-0.54
			c0.58-0.23,1.14-0.61,1.45-1.17c0.32-0.59,0.36-1.35,0.02-1.94c-0.28-0.51-0.78-0.84-1.3-1.08c-0.73-0.33-1.54-0.44-2.31-0.62
			c-3.17-0.69-6.37-1.24-9.49-2.14c-1.22-0.36-2.42-0.84-3.46-1.57c-0.46-0.33-0.9-0.79-0.97-1.37c-0.08-0.66,0.27-1.27,0.7-1.74
			C1071.79,22.05,1072.92,21.49,1074.06,21.07z"/>
		<path class="st0" d="M956.83,20.67c0.09-0.23,0.26-0.46,0.53-0.48c0.33-0.03,0.67-0.01,1.01-0.01c0.61,0.01,1.22-0.02,1.83,0.01
			c0.38,0.04,0.51,0.43,0.65,0.72c1.9,3.93,3.8,7.86,5.71,11.79c1.88-3.88,3.75-7.75,5.63-11.63c0.13-0.25,0.22-0.53,0.42-0.74
			c0.16-0.16,0.4-0.16,0.61-0.16c1.48,0.01,2.96-0.01,4.44,0.01c0.28-0.01,0.5,0.22,0.6,0.46c1.95,4.02,3.89,8.04,5.84,12.06
			c1.94-4.03,3.9-8.06,5.85-12.09c0.1-0.25,0.34-0.45,0.63-0.43c0.87-0.01,1.75-0.01,2.62,0c0.41-0.02,0.75,0.44,0.61,0.83
			c-0.13,0.35-0.32,0.66-0.47,1c-2.09,4.32-4.18,8.64-6.26,12.96c-0.09,0.18-0.21,0.36-0.4,0.43c-0.17,0.06-0.35,0.04-0.53,0.05
			c-1.45-0.01-2.91,0.01-4.36-0.01c-0.33,0.01-0.53-0.28-0.64-0.55c-1.94-4.01-3.88-8.02-5.82-12.03
			c-1.95,4.04-3.89,8.08-5.84,12.12c-0.11,0.29-0.38,0.51-0.7,0.48c-1.53,0-3.06,0.01-4.59-0.01c-0.33,0.01-0.52-0.29-0.63-0.55
			c-1.19-2.48-2.4-4.95-3.59-7.42c-1.04-2.16-2.1-4.31-3.12-6.48v-0.33H956.83z"/>
		<path class="st0" d="M1029.03,20.22c0.14-0.05,0.29-0.04,0.43-0.04c0.99,0.01,1.99,0,2.99,0c0.36-0.01,0.65,0.34,0.63,0.68
			c0.01,4.18,0,8.37,0,12.56c-0.02,1.07-0.1,2.22-0.7,3.15c-0.55,0.83-1.32,1.48-2.03,2.17c-0.43,0.39-0.84,0.81-1.27,1.19
			c-0.27,0.24-0.71,0.21-0.95-0.06c-0.71-0.75-1.42-1.49-2.13-2.23c-0.24-0.25-0.23-0.68,0.02-0.92c0.54-0.53,1.1-1.04,1.64-1.57
			c0.65-0.65,0.97-1.58,0.97-2.49c0-3.93,0-7.86,0-11.79C1028.62,20.6,1028.78,20.33,1029.03,20.22z"/>
		<g>
			<path class="st0" d="M1030.56,10h0.6c1.13,0.1,2.17,0.88,2.59,1.93c0.36,0.87,0.3,1.9-0.17,2.72c-0.46,0.84-1.33,1.43-2.28,1.56
				c-0.92,0.14-1.89-0.17-2.56-0.8c-0.63-0.57-1-1.41-1-2.27c-0.01-0.73,0.24-1.45,0.71-2.01
				C1028.96,10.49,1029.74,10.08,1030.56,10z"/>
		</g>
	</g>
</g>
<g>
	<rect x="18.82" y="0.05" class="st1" width="128.81" height="50"/>
	<g>
		<path class="st0" d="M36.2,14.82c0.67,0,1.35,0,2.02,0c0,2.75,0,5.51,0,8.26c1.94-2.74,3.85-5.51,5.78-8.26
			c0.82,0.01,1.64-0.02,2.46,0.02c-1.99,2.8-3.88,5.67-5.93,8.43c2.78,3.94,5.52,7.91,8.3,11.85c-0.82-0.01-1.64-0.01-2.46,0
			c-2.35-3.37-4.72-6.72-7.05-10.1c-0.37,0.52-0.74,1.03-1.09,1.56c-0.02,2.84,0,5.69-0.01,8.54c-0.67-0.01-1.34-0.01-2.02,0
			C36.2,28.35,36.2,21.59,36.2,14.82z"/>
		<path class="st0" d="M50.29,14.82c0.67,0,1.35,0.01,2.02,0c0,4.62,0,9.23,0,13.85c0.02,1.31,0.65,2.57,1.64,3.42
			c0.99,0.92,2.4,1.31,3.73,1.15c2.25-0.23,4.15-2.31,4.17-4.57c0.01-4.62,0-9.23,0-13.85c0.67,0.01,1.34,0,2.02,0
			c0,4.49,0,8.98,0,13.47c0.19,3.14-2.18,6.19-5.25,6.84c-1.71,0.35-3.57,0.13-5.07-0.8c-1.18-0.74-2.16-1.82-2.72-3.1
			c-0.36-0.83-0.54-1.74-0.54-2.65C50.29,23.99,50.3,19.4,50.29,14.82z"/>
		<g>
			<path class="st0" d="M67.65,14.81c2.13,0.01,4.26,0,6.4,0.01c1.15,0.01,2.27,0.51,3.06,1.35c0.85,0.84,1.29,2.04,1.24,3.23
				c-0.02,1.11-0.51,2.18-1.29,2.97c0.7,0.33,1.21,0.92,1.74,1.46c2.15,2.29,2.27,6.16,0.31,8.61c-1.12,1.46-2.83,2.46-4.66,2.66
				c-2.26,0.02-4.53-0.01-6.8,0.01C67.65,28.35,67.66,21.58,67.65,14.81z M69.66,16.8c0.01,1.58-0.01,3.17,0.01,4.75
				c1.46-0.01,2.93,0,4.39-0.01c0.62-0.04,1.28-0.23,1.68-0.73c0.81-0.9,0.75-2.42-0.12-3.25c-0.45-0.49-1.1-0.77-1.76-0.76
				C72.46,16.8,71.06,16.79,69.66,16.8z M69.67,23.56c0,3.18,0.01,6.35,0,9.53c1.37,0,2.74,0,4.11,0c2.21,0.04,4.25-1.73,4.6-3.89
				c0.25-1.39-0.12-2.9-1.07-3.96c-0.83-0.97-2.05-1.63-3.34-1.66C72.53,23.56,71.1,23.58,69.67,23.56z"/>
		</g>
		<path class="st0" d="M83.41,14.82c3.54,0,7.08,0.01,10.62,0c0.01,0.67,0,1.34,0.01,2.01c-2.87,0-5.74,0-8.61,0
			c0,2.38,0,4.76,0,7.14c2.87,0,5.74,0,8.61,0c0,0.67,0.02,1.34-0.01,2.02c-2.87,0.01-5.74-0.02-8.6,0.01c0.02,2.37,0,4.73,0.01,7.1
			c2.87,0,5.74,0,8.61,0c0,0.67,0,1.35,0,2.02c-3.54,0-7.09,0-10.63,0C83.41,28.35,83.4,21.58,83.41,14.82z"/>
		<path class="st0" d="M97.77,14.82c0.64,0,1.29,0,1.93,0c3.78,5.68,7.52,11.39,11.31,17.06c0.02-5.68,0-11.37,0.01-17.06
			c0.62,0,1.24,0,1.86,0c0,6.77,0,13.54,0,20.31c-0.73-0.01-1.45-0.02-2.18,0.01c-2.73-4.08-5.42-8.19-8.14-12.28
			c-0.98-1.45-1.92-2.94-2.91-4.38c0.01,5.55,0,11.1,0,16.65c-0.63,0-1.25-0.01-1.88,0C97.77,28.35,97.77,21.59,97.77,14.82z"/>
		<path class="st0" d="M116.37,14.82c4.42,0,8.84,0,13.26,0c-3.54,6.09-7.07,12.19-10.6,18.29c3.74-0.04,7.47,0,11.21-0.02
			c0,0.68,0,1.36,0,2.03c-4.88-0.02-9.77-0.01-14.66,0c3.53-6.1,7.04-12.2,10.56-18.3c-3.26,0.01-6.51,0-9.77,0
			C116.37,16.15,116.38,15.49,116.37,14.82z"/>
	</g>
</g>
</svg>
